<?xml version="1.0" encoding="utf-8"?>
<!-- Generator: Adobe Illustrator 26.3.1, SVG Export Plug-In . SVG Version: 6.00 Build 0)  -->
<svg version="1.1" id="Layer_2_00000137854639826779363820000006368430418379048619_"
	 xmlns="http://www.w3.org/2000/svg" xmlns:xlink="http://www.w3.org/1999/xlink" x="0px" y="0px" viewBox="0 0 396.8 119.2"
	 style="enable-background:new 0 0 396.8 119.2;" xml:space="preserve">
<style type="text/css">
	.st0{fill:#003333;}
</style>
<g id="Layer_1-2">
	<g id="Molenbeek-logo-texte">
		<g id="Molenbeek" transform="translate(1 29)">
			<g>
				<path class="st0" d="M171.9,92.8c-0.5-0.1-0.9-0.2-1.3-0.2c-0.9,0-1.5,0.7-1.9,1.2c-0.4,0.5-0.9,1.1-1.4,1.9
					c-0.5,0.7-1,1.5-1.6,2.3c-0.6,0.8-1.2,1.5-1.9,2.2c-0.7,0.6-1.4,1.2-2.2,1.6c-0.7,0.4-1.4,0.6-2.2,0.6c-0.8,0-1.1-0.2-1.1-0.2
					c-0.2-0.2-0.4-0.5-0.4-0.9c-0.1-0.5-0.1-1.1-0.1-1.7c0.1-0.7,0.1-1.4,0.1-1.9c0-0.1,0-0.3,0-0.6c0-0.2,0-0.5,0.1-0.8
					c0-0.3,0.1-0.6,0.2-1c0-0.2,0.1-0.4,0.2-0.5c0.1-0.1,0.4-0.3,0.9-0.5c0.7-0.3,1.4-0.8,2.3-1.2s1.8-1,2.7-1.6
					c1-0.6,1.8-1.1,2.6-1.7c0.8-0.6,1.4-1.1,1.9-1.6c0.8-0.9,0.9-1.6,0.8-2.1c0-0.8-0.3-1.6-0.7-2.3c-0.4-0.7-1-1.3-1.6-1.8
					c-0.6-0.5-1.3-0.8-2-1.1c-0.8-0.3-1.5-0.4-2.1-0.4h-0.2c-1.3,0-2.5,0.3-3.4,0.8c-1,0.6-1.8,1.3-2.5,2.2
					c-0.6,0.8-1.1,1.8-1.6,2.8c-0.4,1-0.9,2-1.2,2.9c-0.4,0.9-0.8,1.8-1.2,2.6c-0.4,0.7-0.9,1.3-1.4,1.7c-0.2,0.2-0.4,0.4-0.5,0.5
					c-0.2,0.2-0.5,0.6-0.5,1.3c0,0.8,0.3,1.4,1,1.8c0.4,0.2,0.9,0.4,1.4,0.4c0.1,0,0.3,0,0.4,0h0.1c0,0.6,0,1.1,0,1.8
					c0,1.2,0.2,2.4,0.5,3.4c0.3,1.2,0.9,2.2,1.8,3c0.9,0.9,2.2,1.3,3.8,1.3c0.9,0,1.8-0.2,2.9-0.7c0.9-0.4,1.9-1,2.9-1.7
					c1-0.7,1.9-1.4,2.9-2.3s1.8-1.7,2.5-2.6c0.7-0.9,1.4-1.7,1.8-2.5c0.6-0.9,0.8-1.8,0.8-2.5C173.3,93.7,172.8,93,171.9,92.8
					L171.9,92.8z M160.5,87.2c0.4-0.6,0.9-1.1,1.4-1.6c0.3-0.3,0.6-0.4,0.8-0.4c0.2,0,0.4,0,0.6,0.1c0.2,0,0.4,0.1,0.6,0.2
					c0.1,0.1,0.2,0.1,0.3,0.2c-0.1,0.1-0.2,0.3-0.5,0.6c-0.6,0.5-1.2,1-2,1.5c-0.7,0.4-1.4,0.8-2.1,1.1
					C159.8,88.2,160.1,87.7,160.5,87.2L160.5,87.2z"/>
				<path class="st0" d="M194.8,103.7l-0.1,0.3c-0.1,0.4-0.4,0.7-0.7,1c-0.3,0.3-0.7,0.5-1.1,0.7c-0.3,0.1-0.5,0.1-0.8,0.1
					c-0.2,0-0.3,0-0.5-0.1c-0.5-0.1-1-0.4-1.3-1l-0.2-0.3v-0.4c0-0.3,0-0.9-0.1-1.9c-0.1-1-0.1-2.2-0.2-3.5s-0.2-2.8-0.3-4.3
					c-0.1-1.5-0.2-3-0.3-4.3c-0.1-1.3-0.1-2.5-0.2-3.5c-0.1-0.9-0.1-1.4-0.1-1.7c-0.6-1-1-1.1-1-1.1c0,0-0.1,0-0.1,0
					c-0.2,0-0.5,0.2-0.7,0.3c-0.5,0.4-1,1.1-1.5,2.1c-0.5,1.1-1.1,2.3-1.5,3.6c-0.5,1.3-1,2.8-1.4,4.3c-0.4,1.5-0.8,2.9-1.1,4.3
					c-0.3,1.4-0.6,2.7-0.8,3.8c-0.2,1.1-0.4,2-0.4,2.5l0,0.2l-0.1,0.2c-0.2,0.4-0.5,0.8-1,1.1c-0.4,0.3-0.8,0.5-1.2,0.6
					c-0.3,0.1-0.6,0.1-0.9,0.1c-0.1,0-0.3,0-0.5,0c-0.7-0.1-1.3-0.5-1.6-1.2l-0.1-0.2l0-0.2c-0.3-4-0.6-8.1-0.9-12.1
					c-0.2-4-0.5-8.2-0.8-12.5v-0.1c0-1.4,0.9-2.2,2.3-2.2h0.4c0.6,0,1,0.3,1.4,1c0.2,0.3,0.3,0.8,0.5,1.6c0.1,0.7,0.3,1.7,0.5,3
					c0.2,1.3,0.4,3,0.6,5.1c0,0.3,0.1,0.7,0.1,1c0.3-1.6,0.8-3.2,1.3-4.6c0.6-1.7,1.5-3.2,2.6-4.5c1.2-1.4,2.9-2.4,5-3l0.3-0.1
					l0.3,0.1c1.4,0.2,2.6,1.1,3.4,2.5c0.7,1.2,1.3,2.7,1.7,4.4c0.4,1.7,0.7,3.5,0.8,5.5c0.1,1.9,0.2,3.8,0.3,5.6
					c0,1.8,0.1,3.4,0.1,4.7s0,2.3,0.1,2.8L194.8,103.7L194.8,103.7z"/>
				<path class="st0" d="M253.4,81.4c-0.8-0.1-1.5-0.2-2.1-0.2c-1.3,0-2.4,0.2-3.4,0.6c-1.6,0.6-2.8,1.7-3.7,3.3
					c-0.5,0.9-0.9,2-1.3,3.2c0-0.2,0-0.3-0.1-0.5c-0.1-0.9-0.2-1.8-0.3-2.6c-0.1-0.8-0.2-1.5-0.3-1.9l0-0.1l0-0.1
					c-0.4-0.9-1-1.2-1.3-1.2c-0.3,0-0.6-0.1-0.9-0.1c-0.5,0-0.9,0.1-1.3,0.3c-0.6,0.3-1,0.9-0.9,1.7v0.5l0.1,0.6
					c-0.2-0.4-0.4-0.7-0.7-1.1c-0.8-0.9-2-1.5-3.8-2c-0.7-0.1-1.4-0.2-2.1-0.2c-0.7,0-1.5,0.1-2.2,0.2c-1.3,0.3-2.6,0.8-3.9,1.4
					c-1.2,0.6-2.4,1.3-3.5,2.1c-0.4,0.2-0.7,0.5-1.1,0.8c0.1-0.4,0.1-0.8,0.1-1.2c0.1-0.8,0-1.5-0.1-2.2c-0.2-1-0.9-1.7-2-1.9h-0.1
					c-0.3-0.1-0.5-0.1-0.8-0.1c-1,0-1.4,0.5-1.6,0.8c-0.2,0.3-0.4,0.8-0.5,1.3l0,0.1V83c0,3.1,0.1,6.1,0.3,8.9
					c0.2,2.8,0.3,5.5,0.3,8.2c0.1,2.7,0.1,5.5,0,8.2c0,2.8-0.2,5.7-0.5,8.8v0.1c0,0.3,0.1,0.6,0.3,0.9c0.3,0.6,0.7,0.8,1,0.8
					c0.1,0,0.3,0.1,0.5,0.1c0.1,0,0.2,0,0.2,0c0.2,0,0.4,0,0.6,0c0.3,0,0.5,0,0.7-0.1c0.3-0.1,0.5-0.1,0.6-0.2l0.7-0.3v-0.7
					c0-0.3,0-0.9,0.1-1.6c0-0.8,0.1-1.6,0.1-2.5c0-1,0.1-2,0.1-3c0-1,0.1-2,0.1-3c0-0.9,0.1-1.8,0.1-2.5c0-0.4,0-0.7,0.1-1
					c0.6-0.3,1.2-0.7,2-1.3c1.1-0.7,2.2-1.5,3.5-2.4c1.2-0.9,2.5-1.9,3.8-3c1.3-1.1,2.5-2.2,3.6-3.3c1.1-1.1,2-2.3,2.8-3.4
					c0.8-1.2,1.3-2.4,1.4-3.5c0-0.1,0-0.2,0-0.2l0,0h0v0l2.8,17.8l0,0.2l0.1,0.2c0.3,0.5,0.7,0.9,1.2,1.1c0.5,0.2,1,0.3,1.5,0.3
					c0.6,0,1.1-0.1,1.5-0.4c0.5-0.3,0.9-0.9,0.9-1.5c0.3-2.1,0.5-4.2,0.6-6.2c0.1-2,0.2-3.8,0.4-5.5c0.2-1.6,0.4-3,0.8-4.1
					c0.3-1,0.9-1.7,1.7-2.1l0.1-0.1l0.1-0.1c0,0,0.1-0.1,0.6-0.2c0.6,0,1.2-0.1,1.8-0.2c0.7,0,1.3-0.1,1.9-0.3c1-0.3,1.6-1,1.6-1.9
					v0C255.9,82.5,255,81.5,253.4,81.4z M217,117.4L217,117.4c0,0,0,0.1,0,0.2C217,117.5,217,117.4,217,117.4z M217.6,118L217.6,118
					l0.2,0C217.7,118,217.7,118,217.6,118z M233.2,86.4c-0.3,1.4-1,2.7-1.9,3.8c-1,1.2-2.2,2.3-3.6,3.3c-1.4,1-2.8,2-4.3,2.8
					c-0.9,0.5-1.7,1-2.4,1.5c-0.1-0.5-0.1-1-0.2-1.5c-0.1-0.6-0.1-1.3-0.2-1.9c0-0.5,0-0.9,0-1.2l0,0c0.2-0.9,0.7-1.8,1.6-2.7
					c0.9-1,2-1.8,3.3-2.5c1.3-0.7,2.6-1.3,3.9-1.6c0.8-0.2,1.5-0.3,2.2-0.3c0.4,0,0.8,0,1.1,0.1h0.1c0.2,0,0.3,0.1,0.4,0.1
					C233.2,86.2,233.2,86.3,233.2,86.4z M237.8,85L237.8,85C237.8,85,237.8,85,237.8,85L237.8,85z"/>
				<path class="st0" d="M268.3,89.7c-0.1-1.4-0.3-2.6-0.5-3.7l0-0.1l0-0.1c-0.2-0.5-0.5-1.1-0.8-1.7c-0.3-0.7-0.8-1.4-1.2-2.1
					c-0.5-0.7-1.1-1.3-1.7-1.8c-0.7-0.6-1.6-0.9-2.5-0.9c-0.4,0-0.9,0.1-1.3,0.2c-0.4,0.2-0.8,0.3-1.2,0.6c-0.4,0.3-0.8,0.7-1.1,1.1
					c-0.3,0.4-0.4,0.9-0.4,1.4c-0.4,1.6-0.8,3.1-1.1,4.6c-0.3,1.5-0.6,2.9-0.7,4.3c-0.2,1.4-0.3,2.8-0.3,4.1s0.1,2.7,0.3,4.1
					c0,0.4,0,1,0,1.6c0,0.8,0.1,1.5,0.3,2.3c0.2,0.8,0.5,1.5,1,2.1c0.4,0.5,1.2,1.1,2.5,1.1h0.2c1.5-0.2,2.8-0.8,3.9-1.6
					c1-0.8,1.9-1.9,2.6-3.1c0.6-1.2,1.1-2.5,1.5-3.9c0.3-1.4,0.6-2.8,0.7-4.2C268.5,92.5,268.4,91.1,268.3,89.7L268.3,89.7z
					 M260.6,101.5c-0.1-0.2-0.1-0.5-0.1-0.7s-0.1-0.4-0.1-0.6c0-0.2,0-0.5,0-0.8c0-1.3,0-2.7,0-4.1c0-1.3,0-2.6,0-3.8
					c0-1.2,0.1-2.2,0.2-3.2c0.1-0.9,0.3-1.7,0.6-2.3c0.2-0.5,0.4-0.8,0.7-0.9c0,0,0.1-0.1,0.3-0.1c0.1,0,0.2,0,0.4,0.1l0.2,0.1h0.2
					h0.1c0.1,0.2,0.2,0.4,0.3,0.7c0.1,0.4,0.2,0.8,0.3,1.2c0.1,0.5,0.1,1,0.1,1.4c0,0.5,0,0.9,0,1.2v0.9c0,0.4,0,1.1-0.1,1.8
					s-0.1,1.6-0.2,2.4c-0.1,0.9-0.3,1.8-0.5,2.7c-0.2,0.9-0.5,1.6-0.8,2.3c-0.3,0.6-0.6,1.1-1,1.5
					C260.9,101.3,260.8,101.4,260.6,101.5L260.6,101.5z"/>
				<path class="st0" d="M294.2,102.1c-0.5-0.8-0.9-1.6-1.1-2.4c-0.2-0.8-0.4-1.7-0.5-2.6c-0.1-0.9-0.1-1.9-0.1-2.8c0-1,0-2.1,0-3.2
					c0-1.2-0.1-2.4-0.3-3.6c-0.2-1.3-0.5-2.6-1-4l0-0.1l0-0.1c-0.6-1.2-1.6-1.9-2.9-1.9c-0.1,0-0.2,0-0.2,0
					c-0.2-0.1-0.4-0.1-0.6-0.1c-0.2,0-0.5,0-0.7,0.1c-0.5,0.2-0.9,0.5-1.4,1c-0.4,0.4-0.8,1.1-1.2,2c-0.4,0.8-0.9,2-1.4,3.4
					c-0.2,0.5-0.4,1-0.6,1.5c0-0.4-0.1-0.9-0.2-1.4c-0.1-0.8-0.3-1.6-0.5-2.3c-0.2-0.8-0.6-1.5-1-2c-0.6-0.7-1.3-1.1-2.2-1.1
					c-0.5,0-0.9,0-1.2,0h-0.1c-0.5,0-1,0.1-1.4,0.3c-0.5,0.3-0.9,0.7-1.3,1.4c-0.2,0.5-0.5,1.2-0.8,2.2c0-0.1,0-0.2,0-0.3
					c0-1.7-0.1-3.2-0.2-4.6c-0.1-1.5-0.3-2.7-0.6-3.7l-0.2-0.6l-0.6-0.2c-0.2-0.1-0.5-0.1-0.8-0.1h-0.4c-0.6,0-1,0.1-1.5,0.2
					c-0.5,0.2-1.1,0.7-1.1,2.1v0.1l0,0.1c0.1,0.8,0.3,1.8,0.4,3.1c0.1,1.3,0.2,2.8,0.3,4.4c0.1,1.6,0.2,3.3,0.2,5.2
					c0.1,1.8,0.1,3.6,0.2,5.2c0.1,1.7,0.1,3.2,0.2,4.7c0.1,1.4,0.1,2.6,0.2,3.5l0.1,1.3l1.3-0.3l2.2-0.5l0.7-0.2l0.1-0.7
					c1-4.9,1.8-8.8,2.4-11.5c0.3-1.4,0.6-2.3,0.8-3c0,0.1,0.1,0.3,0.1,0.4c0.5,1.9,1.1,5,1.8,9.3l0.2,1.2l1.2-0.2c0,0,0.1,0,0.2,0
					c0,0,0.1,0,0.1,0c0.2,0,0.4,0,0.7,0c0.3,0,0.5,0,0.8-0.1c0.5-0.1,1-0.4,1.2-0.8l0.1-0.2l0-0.2c1.1-4.4,2.1-7.7,2.9-9.7
					c0.2-0.6,0.4-1,0.6-1.3c0.1,0.4,0.2,0.9,0.2,1.7c0.2,2.2,0.4,5.5,0.5,9.7v0.2l0,0.2c0.1,0.3,0.2,0.6,0.3,1
					c0.1,0.4,0.3,0.9,0.5,1.3c0.2,0.5,0.5,0.9,0.9,1.3c0.5,0.5,1.1,0.7,1.7,0.7s1.2-0.2,1.6-0.4c0.4-0.3,0.8-0.7,1.1-1.4l0.3-0.6
					L294.2,102.1L294.2,102.1z"/>
				<path class="st0" d="M314.2,92.8c-0.5-0.1-0.9-0.2-1.3-0.2c-0.9,0-1.5,0.7-1.9,1.2c-0.4,0.5-0.9,1.1-1.4,1.9
					c-0.5,0.7-1,1.5-1.6,2.3c-0.6,0.8-1.2,1.5-1.9,2.2c-0.7,0.6-1.4,1.2-2.2,1.6c-0.7,0.4-1.4,0.6-2.2,0.6c-0.8,0-1.1-0.2-1.1-0.2
					c-0.2-0.2-0.4-0.5-0.4-0.9c-0.1-0.5-0.1-1.1-0.1-1.7c0-0.7,0.1-1.4,0.1-1.9c0-0.1,0-0.3,0-0.6c0-0.2,0-0.5,0.1-0.8
					c0-0.3,0.1-0.6,0.2-1c0-0.2,0.1-0.4,0.2-0.5c0.2-0.1,0.4-0.3,0.9-0.5c0.7-0.3,1.4-0.8,2.3-1.2c0.9-0.5,1.8-1,2.7-1.6
					c1-0.6,1.8-1.1,2.6-1.7c0.8-0.6,1.4-1.1,1.9-1.6c0.9-0.9,0.9-1.6,0.8-2.1c0-0.8-0.3-1.6-0.7-2.3c-0.4-0.7-1-1.3-1.6-1.8
					c-0.6-0.5-1.3-0.8-2-1.1c-0.8-0.3-1.5-0.4-2.1-0.4h-0.2c-1.3,0-2.5,0.3-3.5,0.8c-1,0.6-1.8,1.3-2.5,2.2
					c-0.6,0.8-1.2,1.8-1.6,2.8c-0.4,1-0.9,2-1.2,2.9c-0.4,0.9-0.8,1.8-1.2,2.6c-0.4,0.7-0.9,1.3-1.4,1.7c-0.2,0.2-0.4,0.4-0.5,0.5
					c-0.2,0.2-0.5,0.6-0.5,1.3c0,0.8,0.3,1.4,1,1.8c0.4,0.2,0.9,0.4,1.4,0.4c0.1,0,0.3,0,0.4,0h0.1c0,0.6,0,1.1,0,1.8
					c0,1.2,0.2,2.4,0.5,3.4c0.3,1.2,0.9,2.2,1.8,3c0.9,0.9,2.2,1.3,3.8,1.3c0.9,0,1.8-0.2,2.9-0.7c1-0.4,1.9-1,2.9-1.7
					c1-0.7,1.9-1.4,2.9-2.3c0.9-0.8,1.8-1.7,2.5-2.6c0.7-0.9,1.3-1.7,1.8-2.5c0.5-0.9,0.8-1.8,0.8-2.5
					C315.6,93.7,315.1,93,314.2,92.8L314.2,92.8z M302.8,87.2c0.4-0.6,0.9-1.1,1.4-1.6c0.3-0.3,0.6-0.4,0.8-0.4c0.2,0,0.4,0,0.6,0.1
					c0.2,0,0.4,0.1,0.6,0.2c0.1,0.1,0.2,0.1,0.3,0.2c0,0.1-0.2,0.3-0.5,0.6c-0.6,0.5-1.2,1-2,1.5c-0.7,0.4-1.4,0.8-2.1,1.1
					C302.1,88.2,302.5,87.7,302.8,87.2z"/>
				<path class="st0" d="M388.5,92.8c-0.5-0.1-0.9-0.2-1.3-0.2c-0.9,0-1.5,0.7-1.9,1.2c-0.4,0.5-0.9,1.1-1.4,1.9
					c-0.5,0.7-1,1.5-1.6,2.3c-0.6,0.8-1.2,1.5-1.9,2.2c-0.7,0.6-1.4,1.2-2.2,1.6c-0.7,0.4-1.4,0.6-2.2,0.6c-0.6,0-1-0.1-1.1-0.2
					c-0.2-0.2-0.4-0.5-0.4-0.9c-0.1-0.5-0.1-1.1-0.1-1.7c0-0.7,0.1-1.4,0.1-1.9c0-0.1,0-0.3,0-0.6c0-0.3,0-0.6,0.1-0.8
					c0-0.3,0.1-0.6,0.2-1c0-0.2,0.1-0.4,0.2-0.5c0.1-0.1,0.4-0.3,0.9-0.5c0.7-0.3,1.4-0.8,2.3-1.2s1.8-1,2.7-1.6
					c1-0.6,1.8-1.1,2.6-1.7c0.8-0.6,1.5-1.1,1.9-1.6c0.8-0.9,0.9-1.6,0.8-2.1c0-0.8-0.3-1.6-0.7-2.2s-1-1.3-1.6-1.8
					c-0.6-0.5-1.3-0.8-2-1.1c-0.8-0.3-1.5-0.4-2.1-0.4h-0.2c-1.3,0-2.5,0.3-3.5,0.8c-1,0.6-1.8,1.3-2.5,2.2
					c-0.6,0.8-1.2,1.8-1.6,2.8c-0.4,1-0.9,2-1.2,2.9c-0.4,0.9-0.8,1.8-1.2,2.6c-0.4,0.7-0.9,1.3-1.4,1.7c0,0,0,0-0.1,0.1
					c0-2.1-0.1-4.2-0.1-6.3c0-3.5-0.1-7-0.1-10.5s0-7.1,0-10.7v-0.7l-0.5-0.4c-0.3-0.2-0.6-0.3-1.1-0.3c-0.2,0-0.4,0-0.5,0
					s-0.4,0-0.6,0c-0.5,0.1-0.9,0.2-1.3,0.4c-0.6,0.3-1,0.9-1,1.6v0c0,0.9,0.1,2.2,0.2,3.6c0.1,1.4,0.2,2.9,0.4,4.5
					c0.1,1.5,0.2,3,0.3,4.4c0,0.7,0,1.4,0,1.9c-0.4,0-0.8-0.1-1.1-0.1c-0.9,0-1.8,0.2-2.5,0.4c-1.4,0.5-2.6,1.4-3.5,2.6
					c-0.9,1.2-1.5,2.6-2,4.2c-0.5,1.5-0.8,3.2-1,4.9c-0.1,0.7-0.1,1.3-0.2,2c0-0.2,0-0.3-0.1-0.5c-0.2-1.3-0.4-2.6-0.5-4
					c-0.1-1.3-0.2-2.9-0.2-4.8c0.4-2.1,0.2-3.6-0.6-4.7c-0.5-0.6-1.4-1.3-3-1.3c-0.3,0-0.6,0-0.9,0.1c-1.1,0-2.2,0.5-3.3,1.5
					c-0.9,0.8-1.8,1.9-2.7,3.2c-0.8,1.2-1.6,2.6-2.3,4.1c-0.7,1.5-1.3,3-1.9,4.4c-0.5,1.4-0.9,2.6-1.2,3.8c0-0.3,0-0.6,0-0.9
					c0-1.8-0.1-3.6-0.3-5.6c-0.1-2-0.4-3.8-0.8-5.5c-0.4-1.7-1-3.2-1.7-4.4c-0.8-1.4-2-2.3-3.4-2.5l-0.3-0.1l-0.2,0.1
					c-2.1,0.6-3.8,1.6-5,3c-1.1,1.3-2,2.8-2.6,4.5c-0.5,1.4-0.9,2.9-1.3,4.6c0-0.3-0.1-0.7-0.1-1c-0.2-2.1-0.4-3.8-0.6-5.1
					c-0.2-1.3-0.3-2.3-0.5-3c-0.2-0.8-0.3-1.3-0.5-1.6c-0.3-0.7-0.8-1-1.4-1H318c-1.4,0-2.3,0.9-2.3,2.2v0.1
					c0.3,4.3,0.6,8.5,0.8,12.5c0.2,4,0.5,8.1,0.9,12.1l0,0.2l0.1,0.2c0.3,0.6,0.9,1.1,1.6,1.2c0.2,0,0.3,0,0.5,0
					c0.3,0,0.6-0.1,1-0.1c0.4-0.1,0.8-0.3,1.2-0.6c0.5-0.3,0.8-0.7,1-1.1l0.1-0.2l0-0.2c0-0.6,0.2-1.4,0.4-2.5
					c0.2-1.1,0.5-2.4,0.8-3.8c0.3-1.4,0.7-2.8,1.1-4.3s0.9-2.9,1.4-4.3c0.5-1.3,1-2.5,1.5-3.6c0.5-1,1-1.7,1.5-2.1
					c0.2-0.2,0.4-0.3,0.7-0.3c0,0,0.1,0,0.1,0c0,0,0.4,0.1,1,1.1c0,0.4,0.1,1,0.1,1.7c0.1,1,0.1,2.2,0.2,3.5
					c0.1,1.3,0.2,2.7,0.3,4.3c0.1,1.5,0.2,3,0.3,4.3s0.2,2.5,0.2,3.5c0.1,1.2,0.1,1.7,0.1,1.9v0.3l0.2,0.3c0.4,0.5,0.8,0.8,1.3,1
					c0.2,0,0.3,0.1,0.5,0.1c0.3,0,0.5,0,0.8-0.1c0.4-0.1,0.8-0.3,1.1-0.7c0.3-0.3,0.5-0.7,0.7-1l0.1-0.3v-0.1
					c0.2,0.5,0.4,0.9,0.7,1.3c0.6,0.8,1.4,1.2,2.3,1.3h0.1c0.9,0,1.8-0.4,2.9-1.4c1-0.8,2-2.2,3.3-4c0.8-1.2,1.7-2.8,2.7-4.7
					c0.1,0.8,0.2,1.6,0.3,2.4c0.1,1.1,0.2,2.2,0.3,3.3c0.1,1.1,0.2,2,0.4,2.8c0.1,0.5,0.4,0.9,0.5,1c0.4,0.4,0.8,0.6,1.2,0.6
					c1.2,0,2-0.4,2.2-1.2c0.1-0.2,0.1-0.5,0.1-0.8c0,0.1,0.1,0.1,0.1,0.2c0.2,0.4,0.4,0.7,0.7,1c0.3,0.3,0.7,0.6,1.1,0.8
					c0.4,0.2,0.9,0.2,1.5,0.2c1.2,0,2.4-0.4,3.4-1.1c0.9-0.6,1.7-1.4,2.4-2.3c0.2-0.3,0.5-0.6,0.7-1l0.1,6.7v0.2l0,0.2
					c0.1,0.5,0.5,0.9,0.9,1.2c0.4,0.2,0.8,0.3,1.1,0.3c1.3,0,1.9-0.9,1.9-1.6c0-0.4,0.1-0.8,0.1-1.2c0-3.5,0-6.9-0.1-10.3
					c0-0.2,0-0.4,0-0.6c0.4,0.2,0.8,0.3,1.3,0.4c0.1,0,0.3,0,0.4,0h0.1c0,0.6,0,1.1,0,1.8c0,1.2,0.2,2.4,0.5,3.4
					c0.3,1.2,0.9,2.2,1.8,3c0.9,0.9,2.2,1.3,3.8,1.3c0.9,0,1.8-0.2,2.9-0.7c1-0.4,1.9-1,2.9-1.7c1-0.7,1.9-1.4,2.9-2.3
					c0.9-0.8,1.8-1.7,2.5-2.6c0.7-0.9,1.3-1.7,1.8-2.5c0.5-0.9,0.8-1.8,0.8-2.5C389.9,93.7,389.4,93,388.5,92.8L388.5,92.8z
					 M377.1,87.2c0.4-0.6,0.9-1.1,1.4-1.6c0.3-0.3,0.6-0.4,0.8-0.4c0.2,0,0.4,0,0.6,0.1c0.2,0,0.4,0.1,0.6,0.2
					c0.1,0.1,0.2,0.1,0.3,0.2c0,0.1-0.2,0.3-0.5,0.6c-0.6,0.5-1.2,1-2,1.5c-0.7,0.4-1.4,0.8-2.1,1.1
					C376.4,88.2,376.7,87.7,377.1,87.2z M347.7,86.2c0,0.4-0.1,0.9-0.1,1.3c-0.1,0.5-0.2,1-0.4,1.5c-0.1,0.5-0.3,1-0.6,1.6
					c-0.3,0.6-0.7,1.3-1.2,2.2c-0.5,0.9-1.1,1.9-1.6,2.9c-0.5,1-1.1,1.9-1.7,2.8c-0.4,0.6-0.8,1.2-1.2,1.6v0
					c0.1-0.7,0.4-1.5,0.8-2.5c0.4-1.1,0.9-2.3,1.4-3.6c0.5-1.2,1.2-2.5,1.8-3.7c0.6-1.2,1.2-2.2,1.8-3.1c0.4-0.5,0.7-0.9,1-1.2
					C347.7,86,347.7,86.1,347.7,86.2L347.7,86.2z M363.4,89c0,0.6,0,1.2,0,1.5c0,0.2,0,0.7-0.2,1.5c-0.1,0.7-0.3,1.5-0.6,2.4
					c-0.2,0.9-0.5,1.8-0.9,2.8c-0.3,0.9-0.7,1.8-1.1,2.5c-0.4,0.7-0.9,1.3-1.3,1.7c-0.3,0.2-0.5,0.4-0.7,0.4
					c-0.2-0.3-0.4-0.7-0.6-1.2c-0.2-0.9-0.3-2.1-0.2-3.3c0.1-1.3,0.3-2.7,0.6-4.1c0.3-1.4,0.8-2.7,1.3-3.9c0.5-1.1,1.1-2,1.8-2.7
					c0.5-0.5,1-0.8,1.5-0.8l0,0c0,0,0,0,0,0c0.1,0.4,0.2,0.9,0.3,1.4C363.4,87.8,363.4,88.4,363.4,89L363.4,89z"/>
			</g>
			<g id="letters">
				<path class="st0" d="M56.5,4v50c0,0.6-0.4,1-1,1h-10c-0.5,0-1-0.4-1-1V26.5L33,54.3c-0.2,0.4-0.5,0.6-0.9,0.6h-7.6
					c-0.4,0-0.8-0.2-0.9-0.6L12,26.5V54c0,0.6-0.4,1-1,1H1c-0.6,0-1-0.4-1-1V4c0-0.6,0.4-1,1-1h11.4c0.4,0,0.8,0.2,0.9,0.6l15,35
					l15-35C43.4,3.2,43.8,3,44.2,3h11.3C56,3,56.5,3.4,56.5,4z"/>
				<path class="st0" d="M122.1,1v53c0,0.6-0.4,1-1,1h-10c-0.6,0-1-0.4-1-1V1c0-0.6,0.4-1,1-1h10C121.6,0,122.1,0.4,122.1,1z"/>
				<path class="st0" d="M166.2,22.5c-1.7-3.1-4.2-5.6-7.3-7.3c-3.1-1.7-6.7-2.6-10.6-2.6s-7.7,0.9-10.9,2.6
					c-3.2,1.8-5.7,4.3-7.4,7.6c-1.8,3.2-2.6,7-2.6,11.3s0.9,8,2.7,11.2c1.8,3.3,4.3,5.8,7.5,7.6c3.2,1.8,6.8,2.7,10.8,2.7
					c4.9,0,9.1-1.3,12.6-3.9c3.4-2.6,5.7-5.9,6.9-9.9c0.1-0.3,0-0.6-0.1-0.9c-0.2-0.2-0.5-0.4-0.8-0.4H156c-0.4,0-0.7,0.2-0.9,0.6
					c-1.4,2.8-3.7,4.2-7.1,4.2c-2.3,0-4.2-0.7-5.8-2.2c-1.3-1.2-2.2-2.9-2.6-5h27.9c0.5,0,0.9-0.3,1-0.8c0.2-1.2,0.3-2.5,0.3-4
					C168.8,29.3,167.9,25.7,166.2,22.5z M142.4,24.9c1.5-1.3,3.3-2,5.6-2c2.4,0,4.4,0.7,6,2.1c1.4,1.2,2.1,2.6,2.4,4.4h-16.6
					C140.2,27.5,141.1,26,142.4,24.9z"/>
				<path class="st0" d="M213.9,30.7V54c0,0.6-0.4,1-1,1h-10c-0.6,0-1-0.4-1-1V32.1c0-2.9-0.7-5.1-2.1-6.6c-1.4-1.5-3.3-2.2-5.7-2.2
					s-4.4,0.7-5.8,2.2c-1.4,1.5-2.1,3.7-2.1,6.6V54c0,0.6-0.4,1-1,1h-10c-0.6,0-1-0.4-1-1V14.3c0-0.6,0.4-1,1-1h10c0.6,0,1,0.4,1,1
					v2.4c1.1-1,2.3-1.8,3.7-2.4c2.2-1,4.6-1.6,7.3-1.6c5,0,9.1,1.6,12.2,4.8h0C212.3,20.7,213.9,25.1,213.9,30.7L213.9,30.7z"/>
				<path class="st0" d="M262.1,22.8c-1.7-3.2-4-5.8-6.9-7.5c-2.9-1.8-6.2-2.6-9.7-2.6c-3.1,0-5.8,0.6-8.2,1.9
					c-1.5,0.8-2.8,1.7-3.9,2.8V1c0-0.6-0.4-1-1-1h-10c-0.6,0-1,0.4-1,1v53c0,0.6,0.4,1,1,1h10c0.6,0,1-0.4,1-1v-3
					c1.1,1.1,2.4,2,3.9,2.8c2.4,1.2,5.1,1.9,8.2,1.9c3.6,0,6.8-0.9,9.7-2.7s5.2-4.4,6.9-7.7c1.7-3.2,2.5-7,2.5-11.2
					S263.8,26,262.1,22.8z M252.4,34c0,2.2-0.4,4.2-1.3,5.8c-0.9,1.6-2.1,2.8-3.5,3.7s-3,1.3-4.7,1.3s-3.2-0.4-4.6-1.3
					c-1.4-0.8-2.6-2.1-3.5-3.7c-0.9-1.6-1.3-3.5-1.3-5.8s0.4-4.1,1.3-5.7c0.9-1.6,2.1-2.8,3.5-3.7c1.4-0.8,3-1.3,4.6-1.3
					s3.3,0.4,4.7,1.2c1.4,0.8,2.6,2,3.5,3.6C252,29.9,252.4,31.8,252.4,34L252.4,34z"/>
				<path class="st0" d="M306.2,22.5c-1.7-3.1-4.2-5.6-7.4-7.3c-3.1-1.7-6.7-2.6-10.6-2.6s-7.7,0.9-10.9,2.6
					c-3.2,1.8-5.6,4.3-7.4,7.6c-1.7,3.2-2.6,7-2.6,11.3s0.9,8,2.7,11.2c1.8,3.3,4.3,5.8,7.5,7.6c3.2,1.8,6.8,2.7,10.8,2.7
					c4.9,0,9.1-1.3,12.6-3.9c3.4-2.6,5.7-5.9,6.9-9.9c0.1-0.3,0-0.6-0.2-0.9s-0.5-0.4-0.8-0.4H296c-0.4,0-0.7,0.2-0.9,0.6
					c-1.4,2.8-3.7,4.2-7,4.2c-2.3,0-4.2-0.7-5.8-2.2c-1.3-1.2-2.2-2.9-2.5-5h27.9c0.5,0,0.9-0.3,1-0.8c0.2-1.2,0.3-2.5,0.3-4
					C308.8,29.3,308,25.7,306.2,22.5L306.2,22.5z M282.4,24.9c1.5-1.3,3.4-2,5.6-2c2.4,0,4.4,0.7,6,2.1c1.4,1.2,2.1,2.6,2.4,4.4
					h-16.5C280.3,27.5,281.1,26,282.4,24.9L282.4,24.9z"/>
				<path class="st0" d="M350.4,22.5c-1.7-3.1-4.2-5.6-7.4-7.3c-3.1-1.7-6.7-2.6-10.6-2.6s-7.7,0.9-10.9,2.6
					c-3.2,1.8-5.7,4.3-7.4,7.6c-1.7,3.2-2.6,7-2.6,11.3s0.9,8,2.7,11.2c1.8,3.3,4.3,5.8,7.5,7.6c3.2,1.8,6.8,2.7,10.8,2.7
					c4.9,0,9.1-1.3,12.6-3.9c3.4-2.6,5.7-5.9,6.9-9.9c0.1-0.3,0-0.6-0.2-0.9s-0.5-0.4-0.8-0.4h-10.8c-0.4,0-0.7,0.2-0.9,0.6
					c-1.4,2.8-3.7,4.2-7,4.2c-2.3,0-4.2-0.7-5.8-2.2c-1.4-1.2-2.2-2.9-2.5-5h27.9c0.5,0,0.9-0.3,1-0.8c0.2-1.2,0.3-2.5,0.3-4
					C353,29.3,352.1,25.7,350.4,22.5L350.4,22.5z M326.6,24.9c1.5-1.3,3.4-2,5.6-2c2.4,0,4.4,0.7,6,2.1c1.4,1.2,2.1,2.6,2.4,4.4H324
					C324.5,27.5,325.3,26,326.6,24.9L326.6,24.9z"/>
				<path class="st0" d="M396.7,54.4c-0.2,0.4-0.5,0.6-0.9,0.6h-13c-0.3,0-0.6-0.1-0.8-0.4l-11.7-14.7v14c0,0.6-0.4,1-1,1h-10
					c-0.5,0-1-0.4-1-1V1c0-0.6,0.5-1,1-1h10c0.6,0,1,0.4,1,1v27.3l11.5-14.6c0.2-0.2,0.5-0.4,0.8-0.4h13c0.4,0,0.8,0.2,0.9,0.6
					s0.1,0.8-0.2,1.1l-16.9,19.2l17,19.1C396.8,53.6,396.9,54,396.7,54.4z"/>
			</g>
			<g id="moulin-shape">
				<path class="st0" d="M98.3,36.5c2.2-2.3,3.9-4.4,5.2-6c0,0,0,0,0.1-0.1c0.1-0.2,0.3-0.3,0.4-0.5c0,0,0.1-0.1,0.1-0.1h0
					c0.9-1.2,1.4-2.7,1.4-4.3V12.4c0-0.5-0.2-0.8-0.4-0.8c-0.2,0-0.4,0.1-0.6,0.3L92.1,24.3c0,0,0-0.1,0-0.1c-0.1-0.7-0.4-1.8-5-6.1
					c-2.3-2.2-4.4-4-6-5.2c0,0,0,0-0.1-0.1c-0.2-0.1-0.3-0.3-0.5-0.4c0,0-0.1-0.1-0.1-0.1l0,0c0,0,0,0,0,0l0,0
					c-1.2-0.9-2.7-1.4-4.3-1.4H63.1c-0.8,0-1,0.5-0.4,1.1L75,24.3c0,0-0.1,0-0.1,0c-0.7,0.1-1.8,0.4-6.1,5c-2.2,2.4-4.1,4.5-5.4,6.2
					c-0.1,0.1-0.2,0.2-0.2,0.3c0,0-0.1,0.1-0.1,0.1c0,0,0,0.1-0.1,0.1c-0.9,1.2-1.4,2.7-1.4,4.3v13.1c0,0.5,0.2,0.8,0.5,0.8
					c0.2,0,0.4-0.1,0.6-0.3l12.4-12.4c0.4,3.2,4.9,6.4,10.3,11c0,0,0,0,0,0c0,0,0,0,0,0h0c0.4,0.3,0.7,0.6,1.1,0.9c0,0,0,0,0.1,0
					c0,0,0,0,0,0l0,0c0.4,0.2,0.8,0.4,1.3,0.6c0.6,0.2,1.2,0.4,1.8,0.5c1.8,0.3,4.2,0.4,7.1,0.4c2.1,0,4.4,0,7.2-0.1
					c0.8,0,1-0.5,0.4-1L92.1,41.5c0,0,0.1,0,0.1,0C93,41.4,94,41.1,98.3,36.5L98.3,36.5z M64.6,12.2h11.6c1.8,0,3.5,0.8,4.6,2.1
					c1,1.1,1.6,2.5,1.6,4.1v9.4c-0.5,0.1-1,0.3-1.5,0.6c0,0-0.1,0-0.1,0C80.8,28.4,64.6,12.2,64.6,12.2z M75.4,39.2L62.8,51.8V40.2
					c0-1.8,0.8-3.5,2.1-4.6c1.1-1,2.5-1.6,4.1-1.6h9.3c0.1,0.5,0.3,1,0.6,1.5c0,0,0,0.1,0.1,0.1C79,35.7,75.4,39.2,75.4,39.2z
					 M83.6,37.1c0,0-0.1,0-0.1,0c-1.1,0-2.1-0.5-2.8-1.3c-0.2-0.3-0.5-0.6-0.7-0.9c0,0-0.1-0.1-0.1-0.1c-0.1-0.2-0.2-0.5-0.3-0.7
					c-0.1-0.2-0.1-0.4-0.1-0.6c0-0.2,0-0.3,0-0.5v-0.1c0-1.1,0.5-2.1,1.2-2.9c0.3-0.3,0.6-0.5,0.9-0.7c0,0,0.1,0,0.1-0.1
					c0.2-0.1,0.4-0.2,0.7-0.3c0.2-0.1,0.4-0.1,0.6-0.1c0.2,0,0.4,0,0.6,0h0c1.1,0,2.1,0.5,2.9,1.2c0.3,0.2,0.5,0.5,0.7,0.9
					c0,0,0.1,0.1,0.1,0.1c0.1,0.2,0.2,0.5,0.3,0.7c0.1,0.2,0.1,0.4,0.1,0.6c0,0.2,0.1,0.4,0.1,0.6v0c0,1.1-0.5,2.2-1.2,2.9l0,0
					c-0.3,0.3-0.6,0.5-0.9,0.7c0,0-0.1,0-0.1,0c-0.3,0.1-0.5,0.2-0.8,0.3c-0.2,0-0.3,0.1-0.5,0.1C84,37.1,83.8,37.1,83.6,37.1z
					 M102.6,53.6c-2.1,0-4,0.1-5.7,0.1c-3.3,0-5.4-0.1-6.9-0.4c-1.6-0.3-2.7-0.8-3.4-1.5c-0.1-0.1-0.1-0.1-0.2-0.2
					c-1.5-1.8-1.8-5.4-1.7-11.4v0c0-0.6,0-1.3,0-2c0.6-0.1,1.1-0.3,1.6-0.6c0,0,0.1,0,0.1-0.1l3.4,3.4
					C89.8,40.9,102.5,53.6,102.6,53.6z M88.8,31.7c-0.1-0.5-0.3-1-0.6-1.5c0,0,0-0.1-0.1-0.1l3.4-3.4l12.7-12.7v11.6
					c0,1.8-0.8,3.5-2.1,4.6c-1.1,1-2.5,1.6-4.1,1.6C98.1,31.7,88.8,31.7,88.8,31.7z"/>
			</g>
		</g>
	</g>
</g>
<path class="st0" d="M238.8,114L238.8,114L238.8,114C238.8,114,238.8,114,238.8,114z"/>
</svg>
