<?xml version="1.0" encoding="UTF-8"?><svg id="Layer_2" xmlns="http://www.w3.org/2000/svg" viewBox="0 0 396.81 119.2"><defs><style>.cls-1{fill:#033;}.cls-2{fill:#699;}</style></defs><g><path class="cls-2" d="M171.92,92.75c-.46-.14-.89-.21-1.3-.21-.86,0-1.49,.66-1.89,1.15-.41,.5-.86,1.12-1.38,1.89-.48,.7-1.02,1.48-1.62,2.3-.57,.77-1.2,1.5-1.89,2.16-.67,.64-1.4,1.19-2.17,1.63-.69,.39-1.4,.58-2.18,.58-.84,0-1.08-.21-1.11-.25-.22-.23-.36-.52-.43-.9-.09-.51-.11-1.07-.07-1.66,.05-.71,.06-1.37,.06-1.95,0-.13,0-.33,.02-.59,0-.25,.04-.53,.08-.84,.04-.31,.1-.63,.18-.98,.04-.19,.09-.37,.16-.53,.15-.11,.43-.27,.9-.53,.66-.35,1.41-.77,2.28-1.25s1.78-1,2.72-1.55c.96-.56,1.83-1.11,2.6-1.65,.8-.56,1.44-1.1,1.93-1.6,.84-.88,.89-1.6,.75-2.08-.04-.82-.28-1.57-.71-2.26-.43-.68-.97-1.27-1.62-1.76-.62-.46-1.3-.84-2.02-1.11-.76-.29-1.47-.43-2.11-.43h-.21c-1.33,0-2.49,.28-3.44,.82-.97,.56-1.8,1.3-2.46,2.2-.61,.83-1.15,1.78-1.61,2.82-.44,.98-.86,1.97-1.24,2.93-.37,.92-.77,1.79-1.21,2.59-.39,.71-.86,1.29-1.38,1.72-.25,.22-.42,.36-.53,.48-.22,.22-.48,.62-.48,1.28,0,.77,.34,1.4,.96,1.77,.4,.24,.86,.38,1.36,.43,.14,.01,.29,.02,.43,.02h.14c0,.56,.02,1.14,.03,1.75,.02,1.21,.18,2.37,.49,3.45,.34,1.18,.93,2.18,1.77,2.97,.9,.87,2.19,1.31,3.84,1.31,.86,0,1.79-.23,2.85-.7,.95-.43,1.93-.99,2.9-1.67,.96-.66,1.92-1.43,2.86-2.28s1.79-1.72,2.52-2.59c.74-.88,1.35-1.73,1.81-2.53,.55-.93,.8-1.75,.8-2.5,0-.9-.5-1.6-1.34-1.85h-.04Zm-11.41-5.56c.43-.62,.9-1.14,1.39-1.57,.32-.28,.63-.45,.83-.45,.16,0,.35,.02,.57,.07,.22,.04,.44,.11,.65,.19,.11,.05,.21,.1,.29,.15-.06,.12-.19,.32-.52,.62-.56,.51-1.24,1-2,1.47-.71,.43-1.43,.8-2.15,1.1,.26-.53,.57-1.07,.93-1.58h.01Z"/><path class="cls-2" d="M194.76,103.72l-.1,.26c-.15,.39-.37,.74-.67,1.04s-.67,.53-1.06,.66c-.26,.09-.52,.13-.79,.13-.16,0-.32-.02-.48-.05-.52-.11-.96-.43-1.31-.96l-.2-.29v-.36c0-.3-.03-.95-.08-1.94-.06-1-.13-2.18-.22-3.53s-.19-2.79-.29-4.32c-.1-1.51-.19-2.97-.26-4.34-.08-1.35-.14-2.53-.2-3.54-.05-.89-.09-1.41-.11-1.71-.6-.99-.97-1.09-.98-1.09-.04-.01-.08-.02-.12-.02-.23,0-.48,.18-.66,.34-.49,.43-1,1.14-1.49,2.1-.54,1.06-1.06,2.26-1.54,3.59-.49,1.34-.97,2.78-1.4,4.27-.44,1.48-.82,2.94-1.14,4.32-.32,1.38-.59,2.66-.82,3.79-.21,1.1-.35,1.96-.4,2.54l-.02,.18-.07,.17c-.18,.41-.5,.79-.97,1.11-.39,.26-.8,.46-1.23,.58-.31,.09-.63,.13-.95,.13-.15,0-.32-.01-.48-.04-.69-.1-1.26-.51-1.57-1.15l-.1-.21-.02-.22c-.33-4-.62-8.06-.87-12.07-.25-3.99-.53-8.21-.82-12.53v-.08c0-1.36,.91-2.24,2.33-2.24h.36c.56,0,1.02,.34,1.36,1.01,.16,.34,.32,.84,.48,1.6,.14,.67,.29,1.65,.46,2.99,.16,1.28,.36,2.99,.6,5.07,.04,.32,.08,.66,.12,1.01,.34-1.64,.77-3.17,1.27-4.56,.61-1.68,1.48-3.2,2.6-4.49,1.17-1.36,2.85-2.36,4.99-2.99l.26-.08,.26,.05c1.42,.23,2.56,1.07,3.4,2.5,.71,1.21,1.28,2.7,1.69,4.44,.39,1.68,.67,3.54,.83,5.5,.15,1.93,.24,3.81,.27,5.57,.03,1.77,.05,3.36,.05,4.72s.03,2.29,.08,2.84l.03,.28-.02,.02h0Z"/><path class="cls-2" d="M253.43,81.45c-.76-.1-1.47-.16-2.14-.16-1.26,0-2.39,.19-3.36,.58-1.57,.62-2.82,1.72-3.71,3.27-.53,.92-.95,2.01-1.26,3.25l-.06-.48c-.12-.94-.22-1.8-.31-2.59-.09-.83-.19-1.46-.28-1.94l-.02-.11-.04-.11c-.36-.89-.98-1.15-1.33-1.22-.29-.05-.6-.09-.92-.09-.49,0-.94,.11-1.33,.32-.61,.32-.95,.93-.94,1.66v.53l.09,.61c-.16-.39-.39-.74-.69-1.09-.78-.9-2.04-1.54-3.85-1.95-.7-.15-1.4-.22-2.08-.22-.72,0-1.45,.08-2.18,.24-1.33,.31-2.63,.77-3.87,1.39-1.2,.6-2.38,1.3-3.48,2.06-.36,.25-.72,.5-1.06,.75,.06-.42,.1-.83,.14-1.24,.06-.79,.03-1.53-.11-2.19-.22-1-.93-1.69-1.99-1.94h-.05c-.28-.06-.53-.09-.76-.09-.95,0-1.38,.49-1.56,.79-.21,.34-.36,.77-.48,1.31l-.03,.13v.13c.03,3.12,.12,6.12,.27,8.92,.15,2.75,.26,5.53,.33,8.25,.07,2.71,.09,5.48,.04,8.25-.04,2.76-.23,5.71-.55,8.78v.12c0,.29,.08,.59,.27,.94,.31,.56,.71,.76,1.02,.83,.14,.04,.3,.06,.48,.06,.08,0,.16,0,.25-.01,.18-.02,.36-.03,.56-.05,.27-.02,.49-.05,.68-.08,.26-.06,.45-.11,.6-.19l.66-.32v-.73c0-.33,.02-.86,.06-1.58,.04-.75,.09-1.6,.13-2.55,.05-.96,.09-1.95,.13-2.99,.05-1.04,.09-2.03,.13-2.98,.05-.94,.09-1.8,.13-2.55,.02-.39,.04-.73,.06-1.01,.56-.32,1.23-.73,2.03-1.26,1.07-.7,2.24-1.51,3.47-2.42,1.23-.92,2.51-1.93,3.8-3,1.31-1.1,2.51-2.22,3.57-3.34,1.09-1.14,2.01-2.3,2.76-3.44,.8-1.23,1.29-2.39,1.45-3.46,0-.08,.02-.16,.02-.23v-.03h.02l2.76,17.83,.04,.23,.12,.2c.3,.49,.72,.87,1.24,1.12,.47,.22,.96,.33,1.48,.33,.56,0,1.06-.13,1.49-.4,.54-.34,.87-.9,.9-1.55,.32-2.12,.52-4.22,.6-6.24,.07-1.96,.2-3.79,.38-5.46,.16-1.6,.45-2.99,.85-4.15,.34-.97,.89-1.67,1.71-2.12l.11-.06,.1-.08s.14-.11,.63-.16c.57-.05,1.18-.1,1.8-.15,.7-.05,1.34-.15,1.91-.3,1.02-.28,1.63-.99,1.63-1.92h0c0-1.61-.94-2.61-2.46-2.65h0Zm-36.42,35.92h0s0,.1,.03,.16c-.02-.06-.04-.12-.04-.16Zm.61,.67h0Zm15.56-31.63c-.32,1.4-.96,2.68-1.92,3.79-1.04,1.2-2.24,2.31-3.57,3.3-1.37,1.01-2.8,1.96-4.26,2.83-.86,.5-1.66,1.01-2.41,1.52-.06-.5-.13-1.02-.19-1.55-.07-.65-.13-1.27-.17-1.87-.04-.5-.02-.9,.04-1.21h-.03c.19-.92,.72-1.84,1.58-2.74,.93-.98,2.02-1.84,3.27-2.55,1.26-.72,2.59-1.27,3.94-1.64,.8-.22,1.55-.34,2.24-.34,.38,0,.75,.04,1.09,.11h.05c.17,.04,.29,.07,.37,.09,0,.06,0,.15-.03,.26Zm4.65-1.4v-.03s0,.02,0,.03h0Z"/><path class="cls-2" d="M268.34,89.73c-.11-1.37-.29-2.62-.54-3.71l-.02-.11-.05-.11c-.22-.49-.48-1.08-.79-1.74-.34-.73-.75-1.43-1.23-2.08-.49-.68-1.06-1.27-1.68-1.75-.74-.57-1.58-.87-2.5-.87-.43,0-.88,.08-1.34,.25-.41,.15-.81,.35-1.17,.59-.44,.29-.8,.65-1.07,1.07-.27,.43-.42,.89-.44,1.38-.4,1.61-.76,3.14-1.07,4.56-.32,1.47-.56,2.91-.73,4.27-.17,1.37-.26,2.75-.26,4.08s.11,2.69,.32,4.08c0,.44,0,.98,.02,1.63,.02,.77,.12,1.53,.31,2.28,.2,.82,.53,1.54,.99,2.13,.4,.52,1.16,1.14,2.49,1.14h.16c1.48-.22,2.79-.76,3.89-1.63,1.05-.84,1.92-1.89,2.59-3.13,.64-1.18,1.14-2.49,1.49-3.91,.34-1.38,.56-2.8,.66-4.24,.09-1.41,.08-2.82-.02-4.2v.02h-.01Zm-7.71,11.8c-.06-.24-.12-.48-.15-.69s-.06-.43-.08-.64c-.01-.25-.02-.5-.02-.79,0-1.33,0-2.72-.02-4.11-.02-1.34,0-2.63,.02-3.84,.03-1.17,.11-2.24,.25-3.2,.13-.92,.33-1.68,.57-2.29,.19-.46,.42-.79,.66-.94,.05-.04,.13-.08,.28-.08,.11,0,.25,.02,.4,.08l.18,.05h.24c.13,.15,.25,.37,.34,.65,.12,.36,.22,.77,.28,1.21,.07,.49,.12,.97,.15,1.42,.03,.47,.04,.89,.04,1.24v.89c0,.45-.02,1.07-.06,1.82s-.13,1.57-.25,2.43c-.13,.86-.31,1.75-.53,2.65-.22,.86-.5,1.64-.82,2.32-.29,.62-.64,1.13-1.04,1.5-.13,.13-.29,.23-.45,.29v.03h.01Z"/><path class="cls-2" d="M294.2,102.14c-.54-.78-.93-1.57-1.14-2.36-.23-.84-.38-1.71-.45-2.59-.07-.91-.1-1.86-.08-2.83,.01-1.01,0-2.09-.02-3.23-.03-1.16-.14-2.38-.32-3.62-.19-1.27-.54-2.62-1.04-4.02l-.02-.07-.03-.06c-.62-1.22-1.64-1.89-2.87-1.89-.09,0-.18-.01-.25-.04-.21-.06-.41-.09-.62-.09-.23,0-.48,.04-.72,.11-.47,.15-.91,.48-1.36,1.02-.36,.43-.75,1.09-1.18,2.01-.4,.84-.87,1.98-1.41,3.4-.18,.46-.37,.97-.57,1.53-.05-.45-.11-.9-.18-1.36-.11-.83-.28-1.61-.48-2.31-.24-.8-.58-1.48-1.02-2.02-.57-.69-1.34-1.05-2.22-1.05-.46,0-.86,0-1.17-.02h-.14c-.5,0-.97,.11-1.39,.33-.52,.27-.93,.74-1.27,1.44-.25,.5-.49,1.21-.75,2.15v-.26c-.05-1.68-.11-3.24-.18-4.64-.08-1.52-.26-2.74-.56-3.73l-.18-.59-.59-.19c-.21-.06-.46-.1-.8-.1h-.4c-.56,0-1.04,.08-1.45,.23-.52,.21-1.15,.74-1.15,2.14v.11l.02,.11c.14,.77,.28,1.81,.41,3.11,.13,1.31,.24,2.79,.33,4.4,.09,1.62,.17,3.35,.24,5.15,.08,1.81,.14,3.55,.21,5.23,.06,1.68,.12,3.23,.18,4.66,.06,1.44,.13,2.6,.23,3.46l.14,1.33,1.3-.31,2.23-.53,.73-.18,.14-.74c.97-4.92,1.78-8.8,2.4-11.53,.32-1.39,.59-2.33,.8-2.96,.04,.12,.07,.26,.11,.4,.48,1.88,1.1,5.02,1.83,9.33l.19,1.15,1.16-.19s.12-.02,.18-.02h.1c.21,.02,.43,.03,.67,.03,.26,0,.5-.02,.75-.06,.52-.08,.96-.38,1.22-.82l.09-.15,.04-.16c1.14-4.39,2.11-7.66,2.88-9.7,.22-.58,.4-1.01,.56-1.34,.08,.4,.17,.94,.25,1.68,.25,2.23,.43,5.48,.55,9.68v.15l.05,.15c.08,.29,.18,.62,.28,.99,.12,.45,.29,.9,.49,1.34,.25,.5,.55,.93,.93,1.28,.48,.46,1.08,.7,1.74,.7s1.21-.15,1.64-.45c.42-.28,.76-.73,1.1-1.4l.32-.63-.4-.57h-.08Z"/><path class="cls-2" d="M314.23,92.75c-.46-.14-.89-.21-1.3-.21-.86,0-1.5,.66-1.89,1.15-.4,.5-.86,1.12-1.37,1.89-.48,.7-1.02,1.48-1.62,2.3-.56,.77-1.2,1.5-1.89,2.16-.67,.64-1.4,1.19-2.18,1.63-.69,.39-1.4,.58-2.18,.58-.84,0-1.07-.21-1.11-.25-.22-.23-.36-.52-.43-.9-.09-.51-.11-1.07-.08-1.66,.05-.71,.07-1.37,.07-1.95,0-.13,0-.33,.02-.59,.01-.25,.04-.53,.08-.84,.04-.31,.1-.63,.18-.98,.05-.19,.1-.37,.16-.53,.16-.11,.43-.27,.91-.53,.66-.35,1.41-.77,2.28-1.25,.86-.48,1.78-1,2.72-1.55,.96-.56,1.82-1.11,2.6-1.65,.8-.56,1.44-1.1,1.92-1.59,.85-.89,.89-1.61,.75-2.08-.04-.82-.28-1.57-.71-2.26-.43-.68-.98-1.27-1.62-1.76-.62-.46-1.3-.84-2.02-1.11-.75-.29-1.46-.43-2.11-.43h-.21c-1.33,0-2.49,.28-3.45,.82-.97,.56-1.8,1.3-2.46,2.2-.61,.83-1.16,1.78-1.61,2.82-.44,.98-.86,1.97-1.24,2.93-.37,.92-.77,1.79-1.21,2.59-.38,.71-.85,1.29-1.38,1.72-.25,.22-.42,.36-.53,.48-.22,.22-.48,.62-.48,1.28,0,.77,.34,1.4,.96,1.77,.4,.24,.86,.38,1.36,.43,.15,.01,.29,.02,.43,.02h.14c.01,.56,.02,1.14,.03,1.75,.02,1.21,.18,2.37,.49,3.45,.34,1.18,.93,2.18,1.77,2.97,.9,.87,2.19,1.31,3.84,1.31,.86,0,1.79-.23,2.85-.7,.95-.43,1.93-.99,2.9-1.67,.96-.66,1.92-1.43,2.86-2.28,.94-.85,1.79-1.72,2.52-2.59,.74-.88,1.34-1.73,1.81-2.53,.54-.93,.8-1.75,.8-2.5,0-.9-.5-1.6-1.34-1.85h-.03Zm-11.41-5.58c.43-.62,.9-1.14,1.38-1.57,.33-.28,.63-.45,.84-.45,.16,0,.35,.02,.57,.07,.22,.04,.43,.11,.65,.19,.11,.05,.21,.1,.29,.15-.05,.12-.19,.32-.51,.62-.56,.51-1.24,1-2,1.47-.71,.43-1.43,.8-2.15,1.1,.25-.53,.57-1.07,.93-1.58Z"/><path class="cls-2" d="M388.48,92.75c-.46-.14-.89-.21-1.3-.21-.86,0-1.5,.66-1.89,1.15-.4,.5-.86,1.11-1.37,1.89-.47,.69-1.01,1.47-1.62,2.3-.56,.77-1.2,1.5-1.89,2.16-.67,.64-1.4,1.19-2.18,1.63-.69,.39-1.4,.58-2.18,.58-.65,0-1-.13-1.12-.25-.22-.23-.36-.52-.42-.9-.09-.51-.11-1.07-.07-1.66,.04-.71,.06-1.37,.06-1.95,0-.13,0-.33,.02-.58,.01-.26,.04-.55,.08-.85,.04-.3,.1-.63,.18-.98,.05-.19,.1-.37,.16-.53,.15-.11,.43-.27,.9-.53,.66-.35,1.41-.77,2.28-1.25s1.79-1,2.72-1.55c.96-.56,1.83-1.11,2.6-1.65,.8-.56,1.45-1.1,1.93-1.6,.84-.88,.89-1.6,.75-2.08-.04-.81-.28-1.57-.71-2.25s-.97-1.27-1.62-1.76c-.62-.46-1.3-.84-2.02-1.11-.75-.29-1.46-.43-2.11-.43h-.21c-1.33,0-2.49,.28-3.45,.82-.97,.56-1.8,1.3-2.46,2.2-.61,.83-1.16,1.78-1.61,2.82-.44,.99-.86,1.98-1.24,2.94-.37,.92-.77,1.79-1.21,2.59-.38,.71-.85,1.29-1.38,1.72-.02,.02-.05,.04-.06,.05-.04-2.11-.06-4.24-.09-6.35-.04-3.46-.08-7-.11-10.51s-.01-7.12,.05-10.73v-.65l-.53-.36c-.26-.17-.58-.26-1.07-.32-.18-.02-.37-.03-.55-.03s-.37,.01-.56,.03c-.45,.05-.87,.18-1.26,.38-.64,.34-1,.94-1,1.64v.04c.03,.94,.11,2.15,.23,3.6,.12,1.44,.23,2.93,.35,4.47,.12,1.52,.21,2.99,.26,4.36,.04,.72,.04,1.36,.04,1.91-.38-.04-.75-.06-1.1-.06-.92,0-1.78,.15-2.54,.43-1.4,.52-2.57,1.41-3.48,2.62-.87,1.16-1.55,2.56-2.02,4.17-.45,1.54-.77,3.2-.96,4.95-.07,.66-.12,1.32-.16,1.98-.02-.17-.05-.33-.07-.5-.19-1.28-.38-2.61-.53-3.97-.15-1.32-.23-2.93-.23-4.78,.43-2.11,.24-3.63-.59-4.67-.49-.6-1.4-1.33-2.97-1.33-.28,0-.57,.02-.87,.06-1.12,.03-2.22,.52-3.27,1.46-.93,.83-1.83,1.89-2.69,3.16-.83,1.23-1.61,2.61-2.33,4.11-.71,1.48-1.33,2.97-1.85,4.41-.49,1.36-.89,2.63-1.18,3.79,0-.31,0-.62-.01-.94-.03-1.75-.12-3.63-.27-5.57-.15-1.96-.43-3.81-.83-5.5-.42-1.74-.98-3.24-1.69-4.45-.84-1.43-1.98-2.26-3.4-2.5l-.27-.05-.25,.08c-2.14,.63-3.82,1.63-4.99,2.99-1.11,1.29-1.99,2.8-2.6,4.49-.5,1.38-.93,2.92-1.27,4.56-.04-.35-.08-.69-.12-1.01-.23-2.08-.44-3.79-.6-5.07-.17-1.34-.32-2.32-.46-2.99-.16-.75-.31-1.26-.48-1.6-.34-.67-.8-1.01-1.37-1.01h-.35c-1.42,0-2.33,.88-2.33,2.24v.08c.3,4.32,.57,8.54,.83,12.53,.25,4.01,.55,8.07,.87,12.07l.02,.22,.11,.21c.32,.64,.87,1.05,1.57,1.15,.16,.02,.32,.04,.48,.04,.32,0,.64-.05,.95-.13,.43-.12,.84-.32,1.23-.58,.47-.32,.8-.7,.97-1.11l.08-.17,.02-.18c.05-.58,.19-1.44,.4-2.54,.22-1.13,.49-2.41,.82-3.79,.32-1.38,.7-2.83,1.14-4.32s.91-2.93,1.4-4.27c.49-1.33,1.01-2.53,1.55-3.59,.49-.96,.99-1.67,1.49-2.1,.18-.16,.43-.34,.66-.34,.04,0,.08,0,.12,.02,.01,0,.38,.1,.98,1.09,.02,.38,.06,.97,.11,1.71,.06,1.01,.13,2.19,.2,3.54,.07,1.3,.16,2.72,.27,4.34,.11,1.53,.2,2.97,.29,4.32s.16,2.53,.22,3.53c.08,1.22,.09,1.72,.09,1.94v.35l.2,.3c.35,.53,.79,.85,1.3,.96,.16,.04,.33,.05,.49,.05,.26,0,.52-.04,.78-.13,.39-.13,.75-.35,1.06-.66,.3-.29,.52-.65,.67-1.04l.1-.26v-.11c.18,.5,.43,.95,.72,1.34,.59,.77,1.4,1.21,2.34,1.26h.13c.88,0,1.83-.45,2.9-1.38,.97-.84,2.04-2.15,3.26-4.03,.82-1.24,1.72-2.81,2.71-4.69,.12,.78,.22,1.6,.31,2.44,.12,1.11,.23,2.2,.33,3.29,.11,1.09,.23,2.04,.38,2.83,.06,.5,.38,.86,.49,.99,.36,.4,.77,.61,1.21,.61,1.23,0,1.98-.41,2.22-1.22,.06-.23,.11-.48,.13-.75l.12,.21c.21,.38,.44,.71,.7,.99,.3,.33,.67,.58,1.08,.75,.39,.16,.88,.25,1.49,.25,1.22,0,2.35-.36,3.35-1.06,.89-.63,1.69-1.4,2.38-2.3,.23-.32,.46-.64,.69-.97l.08,6.73v.16l.05,.15c.14,.5,.45,.9,.89,1.16,.37,.21,.75,.32,1.13,.32,1.3,0,1.85-.86,1.94-1.59,.05-.41,.08-.81,.08-1.18,0-3.46-.03-6.94-.09-10.35v-.55c.39,.22,.83,.35,1.31,.4,.15,.01,.29,.02,.43,.02h.14c.01,.56,.02,1.14,.03,1.75,.02,1.21,.18,2.38,.49,3.45,.34,1.17,.93,2.18,1.77,2.97,.9,.87,2.19,1.31,3.84,1.31,.86,0,1.79-.23,2.85-.7,.95-.43,1.93-.99,2.9-1.67,.96-.66,1.92-1.43,2.86-2.28,.94-.85,1.79-1.72,2.52-2.59,.73-.88,1.34-1.73,1.81-2.53,.54-.93,.8-1.75,.8-2.5,0-.9-.5-1.6-1.34-1.85l-.09-.03h0Zm-11.41-5.56c.43-.62,.9-1.14,1.39-1.57,.32-.28,.63-.45,.83-.45,.16,0,.35,.02,.57,.07,.22,.04,.43,.11,.65,.19,.11,.05,.21,.1,.29,.15-.05,.12-.19,.32-.51,.62-.56,.51-1.24,1.01-2,1.47-.71,.43-1.43,.8-2.15,1.1,.25-.53,.57-1.07,.93-1.58Zm-29.35-1.04c-.01,.43-.06,.87-.15,1.28-.1,.47-.22,.96-.36,1.47-.13,.48-.32,1-.56,1.56-.28,.56-.67,1.3-1.19,2.25-.51,.94-1.06,1.92-1.64,2.92-.55,.97-1.14,1.9-1.73,2.77-.43,.63-.83,1.15-1.17,1.55v-.02c.14-.66,.4-1.52,.77-2.54,.4-1.11,.89-2.31,1.44-3.55,.55-1.25,1.16-2.5,1.8-3.72,.62-1.2,1.24-2.23,1.84-3.08,.38-.54,.7-.92,.97-1.18v.3h-.02Zm15.66,2.82c-.03,.64-.05,1.15-.05,1.48,0,.22-.03,.65-.18,1.51-.13,.72-.32,1.53-.56,2.41-.24,.89-.54,1.82-.89,2.79-.33,.92-.72,1.75-1.15,2.49-.42,.7-.87,1.27-1.34,1.71-.27,.25-.5,.37-.69,.42-.24-.26-.43-.67-.56-1.23-.23-.95-.31-2.08-.24-3.34,.07-1.3,.28-2.69,.62-4.11,.34-1.41,.79-2.73,1.33-3.9,.52-1.11,1.13-2.03,1.82-2.72,.5-.5,1.01-.75,1.54-.75h0c.15,.41,.25,.89,.31,1.44,.05,.59,.06,1.2,.04,1.8h0Z"/></g><g id="letters"><path class="cls-1" d="M56.48,4.01V53.97c0,.56-.44,1-1,1h-10.02c-.55,0-1-.44-1-1V26.53l-11.46,27.82c-.15,.38-.52,.62-.92,.62h-7.59c-.41,0-.77-.24-.93-.61L12.03,26.5v27.47c0,.56-.45,1-1,1H1c-.55,0-1-.44-1-1V4.01c0-.56,.45-1,1-1H12.39c.4,0,.76,.23,.92,.6l14.97,35.01L43.25,3.61c.16-.37,.52-.6,.92-.6h11.31c.56,0,1,.44,1,1Z"/><path class="cls-1" d="M122.06,1V53.97c0,.56-.45,1-1,1h-10.02c-.56,0-1-.44-1-1V1c0-.56,.44-1,1-1h10.02c.55,0,1,.44,1,1Z"/><path class="cls-1" d="M166.21,22.53c-1.73-3.14-4.2-5.6-7.34-7.31-3.12-1.69-6.69-2.55-10.61-2.55s-7.72,.88-10.86,2.63c-3.17,1.76-5.66,4.3-7.41,7.56-1.75,3.23-2.63,7.03-2.63,11.28s.9,7.99,2.66,11.22c1.78,3.26,4.3,5.81,7.48,7.59,3.17,1.77,6.79,2.67,10.76,2.67,4.93,0,9.15-1.31,12.56-3.89,3.4-2.58,5.74-5.92,6.94-9.93,.09-.3,.03-.63-.15-.88-.19-.25-.49-.4-.81-.4h-10.81c-.38,0-.73,.21-.89,.56-1.41,2.85-3.71,4.23-7.05,4.23-2.34,0-4.25-.71-5.84-2.17-1.34-1.23-2.2-2.91-2.55-4.99h27.86c.49,0,.91-.35,.99-.84,.2-1.2,.3-2.55,.3-4.03,0-4.01-.88-7.63-2.6-10.75Zm-23.83,2.37c1.51-1.34,3.34-2,5.6-2,2.4,0,4.36,.68,6,2.09,1.36,1.16,2.14,2.61,2.37,4.43h-16.55c.45-1.9,1.3-3.38,2.58-4.52Z"/><path class="cls-1" d="M213.91,30.71v23.26c0,.56-.45,1-1,1h-10.03c-.55,0-1-.44-1-1v-21.9c0-2.88-.7-5.09-2.09-6.59-1.39-1.49-3.26-2.22-5.71-2.22s-4.41,.73-5.82,2.23c-1.42,1.49-2.13,3.71-2.13,6.58v21.9c0,.56-.45,1-1,1h-10.02c-.56,0-1-.44-1-1V14.31c0-.55,.44-1,1-1h10.02c.55,0,1,.45,1,1v2.42c1.08-.97,2.31-1.78,3.69-2.43,2.2-1.03,4.65-1.56,7.26-1.56,4.98,0,9.08,1.61,12.17,4.78h0c3.08,3.16,4.65,7.6,4.65,13.19h.01Z"/><path class="cls-1" d="M262.15,22.84c-1.67-3.23-3.99-5.76-6.88-7.52-2.89-1.76-6.16-2.65-9.72-2.65-3.06,0-5.83,.64-8.23,1.9-1.48,.78-2.77,1.71-3.87,2.79V1c0-.56-.45-1-1-1h-10.02c-.56,0-1,.44-1,1V53.97c0,.56,.44,1,1,1h10.02c.55,0,1-.44,1-1v-2.98c1.11,1.06,2.4,1.99,3.87,2.76,2.35,1.24,5.12,1.87,8.23,1.87,3.56,0,6.84-.92,9.73-2.73s5.2-4.39,6.87-7.66c1.67-3.25,2.51-7.03,2.51-11.23s-.84-7.96-2.51-11.16Zm-9.73,11.16c0,2.25-.45,4.21-1.34,5.82-.88,1.6-2.06,2.84-3.5,3.7s-3.01,1.29-4.68,1.29-3.16-.41-4.61-1.26c-1.44-.83-2.61-2.07-3.5-3.66-.89-1.61-1.34-3.54-1.34-5.75s.45-4.13,1.34-5.74c.89-1.6,2.06-2.83,3.5-3.67,1.45-.84,2.96-1.26,4.61-1.26s3.26,.42,4.7,1.23c1.43,.82,2.6,2.02,3.49,3.6,.88,1.58,1.33,3.5,1.33,5.7h0Z"/><path class="cls-1" d="M306.24,22.53c-1.74-3.14-4.21-5.6-7.35-7.31-3.11-1.69-6.68-2.55-10.6-2.55s-7.73,.88-10.87,2.63c-3.16,1.76-5.65,4.3-7.41,7.56-1.74,3.23-2.62,7.03-2.62,11.28s.89,7.99,2.66,11.22c1.78,3.26,4.29,5.81,7.48,7.59,3.16,1.77,6.79,2.67,10.76,2.67,4.92,0,9.15-1.31,12.56-3.89,3.4-2.58,5.74-5.92,6.94-9.93,.09-.3,.03-.63-.16-.88s-.49-.4-.8-.4h-10.81c-.38,0-.73,.21-.9,.56-1.4,2.85-3.71,4.23-7.05,4.23-2.34,0-4.25-.71-5.84-2.17-1.34-1.23-2.19-2.91-2.55-4.99h27.87c.48,0,.9-.35,.98-.84,.2-1.2,.3-2.55,.3-4.03,0-4.01-.87-7.63-2.59-10.75h0Zm-23.84,2.37c1.52-1.34,3.35-2,5.6-2,2.4,0,4.37,.68,6.01,2.09,1.35,1.16,2.13,2.61,2.37,4.43h-16.55c.44-1.9,1.29-3.38,2.57-4.52h0Z"/><path class="cls-1" d="M350.41,22.53c-1.74-3.14-4.21-5.6-7.35-7.31-3.11-1.69-6.68-2.55-10.6-2.55s-7.73,.88-10.87,2.63c-3.16,1.76-5.66,4.3-7.41,7.56-1.74,3.23-2.62,7.03-2.62,11.28s.89,7.99,2.66,11.22c1.78,3.26,4.29,5.81,7.48,7.59,3.16,1.77,6.78,2.67,10.76,2.67,4.92,0,9.15-1.31,12.56-3.89,3.4-2.58,5.74-5.92,6.94-9.93,.09-.3,.03-.63-.16-.88s-.49-.4-.8-.4h-10.81c-.38,0-.73,.21-.9,.56-1.4,2.85-3.71,4.23-7.05,4.23-2.34,0-4.25-.71-5.84-2.17-1.36-1.25-2.2-2.89-2.55-4.99h27.87c.48,0,.9-.35,.98-.84,.2-1.2,.3-2.55,.3-4.03,0-4.01-.87-7.63-2.59-10.75h0Zm-23.84,2.37c1.52-1.34,3.35-2,5.6-2,2.4,0,4.37,.68,6.01,2.09,1.35,1.16,2.13,2.61,2.37,4.43h-16.55c.45-1.88,1.31-3.4,2.57-4.52h0Z"/><path class="cls-1" d="M396.72,54.38c-.16,.36-.51,.59-.91,.59h-13.03c-.3,0-.59-.14-.78-.37l-11.68-14.66v14.03c0,.56-.44,1-1,1h-10.02c-.55,0-1-.44-1-1V1c0-.56,.45-1,1-1h10.02c.56,0,1,.44,1,1V28.26l11.54-14.57c.19-.24,.47-.38,.78-.38h13.03c.39,0,.75,.23,.91,.59s.1,.78-.16,1.07l-16.88,19.24,17.02,19.1c.26,.29,.33,.71,.16,1.07Z"/></g><g id="moulin-shape"><path class="cls-1" d="M98.35,36.49c2.19-2.34,3.95-4.42,5.24-6.03,.02-.02,.04-.04,.05-.06,.14-.17,.26-.33,.38-.48,.04-.04,.07-.08,.09-.12h.01c.87-1.21,1.38-2.69,1.38-4.29V12.44c0-.5-.18-.77-.45-.77-.17,0-.38,.11-.6,.33l-12.3,12.3v-.1c-.07-.73-.4-1.81-4.99-6.12-2.33-2.2-4.41-3.96-6.02-5.25-.02-.02-.04-.04-.06-.05-.17-.14-.33-.26-.48-.38-.03-.03-.06-.05-.09-.07h0s-.02-.02-.03-.02h0c-1.21-.88-2.7-1.39-4.29-1.39h-13.07c-.82,0-1.02,.48-.44,1.06l12.3,12.3h-.1c-.73,.07-1.81,.39-6.13,4.98-2.25,2.41-4.05,4.55-5.36,6.17-.08,.1-.15,.19-.22,.28-.04,.04-.07,.08-.1,.12-.03,.03-.05,.07-.07,.11-.89,1.22-1.4,2.71-1.4,4.3v13.07c0,.5,.18,.77,.45,.77,.17,0,.38-.11,.6-.34l12.43-12.43c.39,3.2,4.86,6.4,10.28,11.05,.01,0,.02,.02,.04,.03,0,.02,.02,.03,.04,.05h.02c.36,.3,.71,.61,1.07,.92,0,.02,.03,.03,.05,.04h.04c.38,.25,.8,.44,1.26,.61,.55,.2,1.16,.36,1.84,.48,1.82,.33,4.16,.43,7.14,.43,2.06,0,4.43-.04,7.16-.09,.8,0,.99-.49,.43-1.05l-12.33-12.33h.1c.73-.07,1.82-.4,6.13-4.98h0v.02ZM64.61,12.16h11.58c1.82,0,3.46,.79,4.58,2.05,.99,1.09,1.59,2.53,1.59,4.11v9.4c-.53,.11-1.03,.31-1.48,.59-.02,.01-.05,.02-.07,.05l-16.2-16.2Zm10.82,27.06l-12.6,12.6v-11.58c0-1.82,.8-3.47,2.06-4.59,1.09-.99,2.53-1.58,4.11-1.58h9.35c.11,.54,.3,1.05,.58,1.51,.01,.03,.02,.06,.05,.09l-3.55,3.55Zm8.15-2.15h-.14c-1.11-.03-2.12-.51-2.84-1.26-.25-.27-.47-.57-.65-.9-.03-.04-.05-.08-.07-.13-.11-.22-.2-.46-.27-.7-.06-.19-.1-.39-.12-.6-.03-.17-.04-.35-.04-.53v-.1c.03-1.12,.5-2.13,1.25-2.85,.26-.27,.56-.49,.88-.66,.04-.03,.09-.05,.13-.07,.21-.11,.43-.2,.65-.26,.19-.07,.39-.11,.6-.14,.2-.03,.41-.05,.62-.05h.01c1.12,0,2.13,.45,2.87,1.18,.27,.25,.5,.55,.69,.88,.03,.04,.05,.07,.07,.11,.12,.22,.22,.46,.29,.7,.07,.19,.11,.39,.14,.59,.04,.21,.06,.42,.06,.64v.03c0,1.13-.46,2.16-1.21,2.91h0c-.27,.28-.57,.51-.9,.69-.03,.02-.07,.04-.1,.05-.26,.14-.53,.25-.82,.33-.17,.05-.34,.08-.52,.11-.19,.03-.38,.04-.58,.04h0Zm18.97,16.56c-2.14,.04-4.02,.07-5.69,.07-3.29,0-5.37-.12-6.95-.41-1.6-.3-2.68-.78-3.41-1.52-.06-.06-.11-.12-.16-.18-1.52-1.75-1.75-5.37-1.7-11.4v-.04c0-.63,.01-1.29,.02-1.97,.59-.12,1.14-.33,1.64-.64,.04,0,.07-.03,.1-.06l3.39,3.39,12.76,12.76Zm-13.76-21.96c-.12-.54-.33-1.05-.62-1.51-.01-.03-.03-.06-.05-.09l3.43-3.43,12.72-12.72v11.58c0,1.82-.79,3.46-2.05,4.57-1.1,1-2.54,1.6-4.12,1.6h-9.31Z"/></g></svg>