<?xml version="1.0" encoding="utf-8"?>
<!-- Generator: Adobe Illustrator 26.3.1, SVG Export Plug-In . SVG Version: 6.00 Build 0)  -->
<svg version="1.1" id="Layer_2_00000010990495565489318650000002592019935934123661_"
	 xmlns="http://www.w3.org/2000/svg" xmlns:xlink="http://www.w3.org/1999/xlink" x="0px" y="0px" viewBox="0 0 396.8 119.2"
	 style="enable-background:new 0 0 396.8 119.2;" xml:space="preserve">
<style type="text/css">
	.st0{fill:#669999;}
	.st1{fill:#003333;}
</style>
<g>
	<path class="st0" d="M172.9,121.8c-0.5-0.1-0.9-0.2-1.3-0.2c-0.9,0-1.5,0.7-1.9,1.2c-0.4,0.5-0.9,1.1-1.4,1.9
		c-0.5,0.7-1,1.5-1.6,2.3c-0.6,0.8-1.2,1.5-1.9,2.2c-0.7,0.6-1.4,1.2-2.2,1.6c-0.7,0.4-1.4,0.6-2.2,0.6c-0.8,0-1.1-0.2-1.1-0.2
		c-0.2-0.2-0.4-0.5-0.4-0.9c-0.1-0.5-0.1-1.1-0.1-1.7c0.1-0.7,0.1-1.4,0.1-1.9c0-0.1,0-0.3,0-0.6c0-0.2,0-0.5,0.1-0.8
		c0-0.3,0.1-0.6,0.2-1c0-0.2,0.1-0.4,0.2-0.5c0.1-0.1,0.4-0.3,0.9-0.5c0.7-0.3,1.4-0.8,2.3-1.2s1.8-1,2.7-1.6c1-0.6,1.8-1.1,2.6-1.7
		c0.8-0.6,1.4-1.1,1.9-1.6c0.8-0.9,0.9-1.6,0.8-2.1c0-0.8-0.3-1.6-0.7-2.3c-0.4-0.7-1-1.3-1.6-1.8c-0.6-0.5-1.3-0.8-2-1.1
		c-0.8-0.3-1.5-0.4-2.1-0.4h-0.2c-1.3,0-2.5,0.3-3.4,0.8c-1,0.6-1.8,1.3-2.5,2.2c-0.6,0.8-1.1,1.8-1.6,2.8c-0.4,1-0.9,2-1.2,2.9
		c-0.4,0.9-0.8,1.8-1.2,2.6c-0.4,0.7-0.9,1.3-1.4,1.7c-0.2,0.2-0.4,0.4-0.5,0.5c-0.2,0.2-0.5,0.6-0.5,1.3c0,0.8,0.3,1.4,1,1.8
		c0.4,0.2,0.9,0.4,1.4,0.4c0.1,0,0.3,0,0.4,0h0.1c0,0.6,0,1.1,0,1.7c0,1.2,0.2,2.4,0.5,3.5c0.3,1.2,0.9,2.2,1.8,3
		c0.9,0.9,2.2,1.3,3.8,1.3c0.9,0,1.8-0.2,2.9-0.7c0.9-0.4,1.9-1,2.9-1.7c1-0.7,1.9-1.4,2.9-2.3c0.9-0.9,1.8-1.7,2.5-2.6
		c0.7-0.9,1.4-1.7,1.8-2.5c0.6-0.9,0.8-1.8,0.8-2.5C174.3,122.7,173.8,122,172.9,121.8L172.9,121.8L172.9,121.8z M161.5,116.2
		c0.4-0.6,0.9-1.1,1.4-1.6c0.3-0.3,0.6-0.4,0.8-0.4c0.2,0,0.4,0,0.6,0.1c0.2,0,0.4,0.1,0.6,0.2c0.1,0.1,0.2,0.1,0.3,0.2
		c-0.1,0.1-0.2,0.3-0.5,0.6c-0.6,0.5-1.2,1-2,1.5c-0.7,0.4-1.4,0.8-2.1,1.1C160.8,117.2,161.1,116.7,161.5,116.2L161.5,116.2
		L161.5,116.2z"/>
	<path class="st0" d="M195.8,132.7l-0.1,0.3c-0.1,0.4-0.4,0.7-0.7,1s-0.7,0.5-1.1,0.7c-0.3,0.1-0.5,0.1-0.8,0.1c-0.2,0-0.3,0-0.5,0
		c-0.5-0.1-1-0.4-1.3-1l-0.2-0.3v-0.4c0-0.3,0-0.9-0.1-1.9c-0.1-1-0.1-2.2-0.2-3.5s-0.2-2.8-0.3-4.3c-0.1-1.5-0.2-3-0.3-4.3
		c-0.1-1.3-0.1-2.5-0.2-3.5c-0.1-0.9-0.1-1.4-0.1-1.7c-0.6-1-1-1.1-1-1.1c0,0-0.1,0-0.1,0c-0.2,0-0.5,0.2-0.7,0.3
		c-0.5,0.4-1,1.1-1.5,2.1c-0.5,1.1-1.1,2.3-1.5,3.6c-0.5,1.3-1,2.8-1.4,4.3c-0.4,1.5-0.8,2.9-1.1,4.3c-0.3,1.4-0.6,2.7-0.8,3.8
		c-0.2,1.1-0.4,2-0.4,2.5l0,0.2l-0.1,0.2c-0.2,0.4-0.5,0.8-1,1.1c-0.4,0.3-0.8,0.5-1.2,0.6c-0.3,0.1-0.6,0.1-0.9,0.1
		c-0.1,0-0.3,0-0.5,0c-0.7-0.1-1.3-0.5-1.6-1.1l-0.1-0.2l0-0.2c-0.3-4-0.6-8.1-0.9-12.1c-0.2-4-0.5-8.2-0.8-12.5v-0.1
		c0-1.4,0.9-2.2,2.3-2.2h0.4c0.6,0,1,0.3,1.4,1c0.2,0.3,0.3,0.8,0.5,1.6c0.1,0.7,0.3,1.7,0.5,3c0.2,1.3,0.4,3,0.6,5.1
		c0,0.3,0.1,0.7,0.1,1c0.3-1.6,0.8-3.2,1.3-4.6c0.6-1.7,1.5-3.2,2.6-4.5c1.2-1.4,2.9-2.4,5-3l0.3-0.1l0.3,0.1
		c1.4,0.2,2.6,1.1,3.4,2.5c0.7,1.2,1.3,2.7,1.7,4.4c0.4,1.7,0.7,3.5,0.8,5.5c0.1,1.9,0.2,3.8,0.3,5.6c0,1.8,0.1,3.4,0.1,4.7
		c0,1.4,0,2.3,0.1,2.8L195.8,132.7L195.8,132.7L195.8,132.7z"/>
	<path class="st0" d="M254.4,110.4c-0.8-0.1-1.5-0.2-2.1-0.2c-1.3,0-2.4,0.2-3.4,0.6c-1.6,0.6-2.8,1.7-3.7,3.3
		c-0.5,0.9-0.9,2-1.3,3.2l-0.1-0.5c-0.1-0.9-0.2-1.8-0.3-2.6c-0.1-0.8-0.2-1.5-0.3-1.9l0-0.1l0-0.1c-0.4-0.9-1-1.2-1.3-1.2
		c-0.3-0.1-0.6-0.1-0.9-0.1c-0.5,0-0.9,0.1-1.3,0.3c-0.6,0.3-0.9,0.9-0.9,1.7v0.5l0.1,0.6c-0.2-0.4-0.4-0.7-0.7-1.1
		c-0.8-0.9-2-1.5-3.9-1.9c-0.7-0.2-1.4-0.2-2.1-0.2c-0.7,0-1.4,0.1-2.2,0.2c-1.3,0.3-2.6,0.8-3.9,1.4c-1.2,0.6-2.4,1.3-3.5,2.1
		c-0.4,0.2-0.7,0.5-1.1,0.8c0.1-0.4,0.1-0.8,0.1-1.2c0.1-0.8,0-1.5-0.1-2.2c-0.2-1-0.9-1.7-2-1.9h-0.1c-0.3-0.1-0.5-0.1-0.8-0.1
		c-0.9,0-1.4,0.5-1.6,0.8c-0.2,0.3-0.4,0.8-0.5,1.3l0,0.1v0.1c0,3.1,0.1,6.1,0.3,8.9c0.1,2.8,0.3,5.5,0.3,8.2c0.1,2.7,0.1,5.5,0,8.2
		c0,2.8-0.2,5.7-0.6,8.8v0.1c0,0.3,0.1,0.6,0.3,0.9c0.3,0.6,0.7,0.8,1,0.8c0.1,0,0.3,0.1,0.5,0.1c0.1,0,0.2,0,0.2,0
		c0.2,0,0.4,0,0.6-0.1c0.3,0,0.5-0.1,0.7-0.1c0.3-0.1,0.4-0.1,0.6-0.2l0.7-0.3v-0.7c0-0.3,0-0.9,0.1-1.6c0-0.8,0.1-1.6,0.1-2.6
		c0.1-1,0.1-1.9,0.1-3c0.1-1,0.1-2,0.1-3c0.1-0.9,0.1-1.8,0.1-2.6c0-0.4,0-0.7,0.1-1c0.6-0.3,1.2-0.7,2-1.3c1.1-0.7,2.2-1.5,3.5-2.4
		c1.2-0.9,2.5-1.9,3.8-3c1.3-1.1,2.5-2.2,3.6-3.3c1.1-1.1,2-2.3,2.8-3.4c0.8-1.2,1.3-2.4,1.4-3.5c0-0.1,0-0.2,0-0.2v0h0l2.8,17.8
		l0,0.2l0.1,0.2c0.3,0.5,0.7,0.9,1.2,1.1c0.5,0.2,1,0.3,1.5,0.3c0.6,0,1.1-0.1,1.5-0.4c0.5-0.3,0.9-0.9,0.9-1.6
		c0.3-2.1,0.5-4.2,0.6-6.2c0.1-2,0.2-3.8,0.4-5.5c0.2-1.6,0.4-3,0.9-4.2c0.3-1,0.9-1.7,1.7-2.1l0.1-0.1l0.1-0.1c0,0,0.1-0.1,0.6-0.2
		c0.6-0.1,1.2-0.1,1.8-0.2c0.7-0.1,1.3-0.2,1.9-0.3c1-0.3,1.6-1,1.6-1.9l0,0C256.9,111.5,256,110.5,254.4,110.4L254.4,110.4z
		 M218,146.4L218,146.4c0,0,0,0.1,0,0.2C218,146.5,218,146.4,218,146.4z M218.6,147h0.2C218.7,147,218.7,147,218.6,147z
		 M234.2,115.4c-0.3,1.4-1,2.7-1.9,3.8c-1,1.2-2.2,2.3-3.6,3.3c-1.4,1-2.8,2-4.3,2.8c-0.9,0.5-1.7,1-2.4,1.5c-0.1-0.5-0.1-1-0.2-1.6
		c-0.1-0.7-0.1-1.3-0.2-1.9c0-0.5,0-0.9,0-1.2h0c0.2-0.9,0.7-1.8,1.6-2.7c0.9-1,2-1.8,3.3-2.6c1.3-0.7,2.6-1.3,3.9-1.6
		c0.8-0.2,1.6-0.3,2.2-0.3c0.4,0,0.8,0,1.1,0.1h0.1c0.2,0,0.3,0.1,0.4,0.1C234.2,115.2,234.2,115.3,234.2,115.4z M238.8,114
		L238.8,114C238.8,114,238.8,114,238.8,114L238.8,114z"/>
	<path class="st0" d="M269.3,118.7c-0.1-1.4-0.3-2.6-0.5-3.7l0-0.1l0-0.1c-0.2-0.5-0.5-1.1-0.8-1.7c-0.3-0.7-0.8-1.4-1.2-2.1
		c-0.5-0.7-1.1-1.3-1.7-1.8c-0.7-0.6-1.6-0.9-2.5-0.9c-0.4,0-0.9,0.1-1.3,0.2c-0.4,0.2-0.8,0.3-1.2,0.6c-0.4,0.3-0.8,0.7-1.1,1.1
		c-0.3,0.4-0.4,0.9-0.4,1.4c-0.4,1.6-0.8,3.1-1.1,4.6c-0.3,1.5-0.6,2.9-0.7,4.3c-0.2,1.4-0.3,2.8-0.3,4.1s0.1,2.7,0.3,4.1
		c0,0.4,0,1,0,1.6c0,0.8,0.1,1.5,0.3,2.3c0.2,0.8,0.5,1.5,1,2.1c0.4,0.5,1.2,1.1,2.5,1.1h0.2c1.5-0.2,2.8-0.8,3.9-1.6
		c1-0.8,1.9-1.9,2.6-3.1c0.6-1.2,1.1-2.5,1.5-3.9c0.3-1.4,0.6-2.8,0.7-4.2C269.5,121.5,269.4,120.1,269.3,118.7L269.3,118.7
		L269.3,118.7z M261.6,130.5c-0.1-0.2-0.1-0.5-0.1-0.7c0-0.2-0.1-0.4-0.1-0.6c0-0.2,0-0.5,0-0.8c0-1.3,0-2.7,0-4.1
		c0-1.3,0-2.6,0-3.8c0-1.2,0.1-2.2,0.2-3.2c0.1-0.9,0.3-1.7,0.6-2.3c0.2-0.5,0.4-0.8,0.7-0.9c0,0,0.1-0.1,0.3-0.1
		c0.1,0,0.2,0,0.4,0.1l0.2,0.1h0.2c0.1,0.2,0.2,0.4,0.3,0.7c0.1,0.4,0.2,0.8,0.3,1.2c0.1,0.5,0.1,1,0.1,1.4c0,0.5,0,0.9,0,1.2v0.9
		c0,0.4,0,1.1-0.1,1.8s-0.1,1.6-0.2,2.4c-0.1,0.9-0.3,1.8-0.5,2.7c-0.2,0.9-0.5,1.6-0.8,2.3c-0.3,0.6-0.6,1.1-1,1.5
		C261.9,130.3,261.8,130.4,261.6,130.5L261.6,130.5L261.6,130.5z"/>
	<path class="st0" d="M295.2,131.1c-0.5-0.8-0.9-1.6-1.1-2.4c-0.2-0.8-0.4-1.7-0.5-2.6c-0.1-0.9-0.1-1.9-0.1-2.8c0-1,0-2.1,0-3.2
		c0-1.2-0.1-2.4-0.3-3.6c-0.2-1.3-0.5-2.6-1-4l0-0.1l0-0.1c-0.6-1.2-1.6-1.9-2.9-1.9c-0.1,0-0.2,0-0.2,0c-0.2-0.1-0.4-0.1-0.6-0.1
		c-0.2,0-0.5,0-0.7,0.1c-0.5,0.2-0.9,0.5-1.4,1c-0.4,0.4-0.8,1.1-1.2,2c-0.4,0.8-0.9,2-1.4,3.4c-0.2,0.5-0.4,1-0.6,1.5
		c0-0.4-0.1-0.9-0.2-1.4c-0.1-0.8-0.3-1.6-0.5-2.3c-0.2-0.8-0.6-1.5-1-2c-0.6-0.7-1.3-1.1-2.2-1.1c-0.5,0-0.9,0-1.2,0h-0.1
		c-0.5,0-1,0.1-1.4,0.3c-0.5,0.3-0.9,0.7-1.3,1.4c-0.2,0.5-0.5,1.2-0.8,2.2v-0.3c0-1.7-0.1-3.2-0.2-4.6c-0.1-1.5-0.3-2.7-0.6-3.7
		l-0.2-0.6l-0.6-0.2c-0.2-0.1-0.5-0.1-0.8-0.1h-0.4c-0.6,0-1,0.1-1.5,0.2c-0.5,0.2-1.1,0.7-1.1,2.1v0.1l0,0.1
		c0.1,0.8,0.3,1.8,0.4,3.1c0.1,1.3,0.2,2.8,0.3,4.4c0.1,1.6,0.2,3.3,0.2,5.2c0.1,1.8,0.1,3.6,0.2,5.2c0.1,1.7,0.1,3.2,0.2,4.7
		c0.1,1.4,0.1,2.6,0.2,3.5l0.1,1.3l1.3-0.3l2.2-0.5l0.7-0.2l0.1-0.7c1-4.9,1.8-8.8,2.4-11.5c0.3-1.4,0.6-2.3,0.8-3
		c0,0.1,0.1,0.3,0.1,0.4c0.5,1.9,1.1,5,1.8,9.3l0.2,1.2l1.2-0.2c0,0,0.1,0,0.2,0h0.1c0.2,0,0.4,0,0.7,0c0.3,0,0.5,0,0.8-0.1
		c0.5-0.1,1-0.4,1.2-0.8l0.1-0.2l0-0.2c1.1-4.4,2.1-7.7,2.9-9.7c0.2-0.6,0.4-1,0.6-1.3c0.1,0.4,0.2,0.9,0.2,1.7
		c0.2,2.2,0.4,5.5,0.5,9.7v0.2l0,0.2c0.1,0.3,0.2,0.6,0.3,1c0.1,0.4,0.3,0.9,0.5,1.3c0.2,0.5,0.5,0.9,0.9,1.3
		c0.5,0.5,1.1,0.7,1.7,0.7s1.2-0.2,1.6-0.4c0.4-0.3,0.8-0.7,1.1-1.4l0.3-0.6L295.2,131.1L295.2,131.1L295.2,131.1z"/>
	<path class="st0" d="M315.2,121.8c-0.5-0.1-0.9-0.2-1.3-0.2c-0.9,0-1.5,0.7-1.9,1.2c-0.4,0.5-0.9,1.1-1.4,1.9
		c-0.5,0.7-1,1.5-1.6,2.3c-0.6,0.8-1.2,1.5-1.9,2.2c-0.7,0.6-1.4,1.2-2.2,1.6c-0.7,0.4-1.4,0.6-2.2,0.6c-0.8,0-1.1-0.2-1.1-0.2
		c-0.2-0.2-0.4-0.5-0.4-0.9c-0.1-0.5-0.1-1.1-0.1-1.7c0-0.7,0.1-1.4,0.1-1.9c0-0.1,0-0.3,0-0.6c0-0.2,0-0.5,0.1-0.8
		c0-0.3,0.1-0.6,0.2-1c0-0.2,0.1-0.4,0.2-0.5c0.2-0.1,0.4-0.3,0.9-0.5c0.7-0.3,1.4-0.8,2.3-1.2c0.9-0.5,1.8-1,2.7-1.6
		c1-0.6,1.8-1.1,2.6-1.7c0.8-0.6,1.4-1.1,1.9-1.6c0.9-0.9,0.9-1.6,0.8-2.1c0-0.8-0.3-1.6-0.7-2.3c-0.4-0.7-1-1.3-1.6-1.8
		c-0.6-0.5-1.3-0.8-2-1.1c-0.8-0.3-1.5-0.4-2.1-0.4h-0.2c-1.3,0-2.5,0.3-3.5,0.8c-1,0.6-1.8,1.3-2.5,2.2c-0.6,0.8-1.2,1.8-1.6,2.8
		c-0.4,1-0.9,2-1.2,2.9c-0.4,0.9-0.8,1.8-1.2,2.6c-0.4,0.7-0.9,1.3-1.4,1.7c-0.2,0.2-0.4,0.4-0.5,0.5c-0.2,0.2-0.5,0.6-0.5,1.3
		c0,0.8,0.3,1.4,1,1.8c0.4,0.2,0.9,0.4,1.4,0.4c0.1,0,0.3,0,0.4,0h0.1c0,0.6,0,1.1,0,1.8c0,1.2,0.2,2.4,0.5,3.4
		c0.3,1.2,0.9,2.2,1.8,3c0.9,0.9,2.2,1.3,3.8,1.3c0.9,0,1.8-0.2,2.9-0.7c1-0.4,1.9-1,2.9-1.7c1-0.7,1.9-1.4,2.9-2.3
		c0.9-0.8,1.8-1.7,2.5-2.6c0.7-0.9,1.3-1.7,1.8-2.5c0.5-0.9,0.8-1.8,0.8-2.5C316.6,122.7,316.1,122,315.2,121.8L315.2,121.8
		L315.2,121.8z M303.8,116.2c0.4-0.6,0.9-1.1,1.4-1.6c0.3-0.3,0.6-0.4,0.8-0.4c0.2,0,0.4,0,0.6,0.1c0.2,0,0.4,0.1,0.6,0.2
		c0.1,0.1,0.2,0.1,0.3,0.2c0,0.1-0.2,0.3-0.5,0.6c-0.6,0.5-1.2,1-2,1.5c-0.7,0.4-1.4,0.8-2.1,1.1
		C303.1,117.2,303.5,116.7,303.8,116.2z"/>
	<path class="st0" d="M389.5,121.8c-0.5-0.1-0.9-0.2-1.3-0.2c-0.9,0-1.5,0.7-1.9,1.2c-0.4,0.5-0.9,1.1-1.4,1.9
		c-0.5,0.7-1,1.5-1.6,2.3c-0.6,0.8-1.2,1.5-1.9,2.2c-0.7,0.6-1.4,1.2-2.2,1.6c-0.7,0.4-1.4,0.6-2.2,0.6c-0.6,0-1-0.1-1.1-0.2
		c-0.2-0.2-0.4-0.5-0.4-0.9c-0.1-0.5-0.1-1.1-0.1-1.7c0-0.7,0.1-1.4,0.1-1.9c0-0.1,0-0.3,0-0.6c0-0.3,0-0.6,0.1-0.8
		c0-0.3,0.1-0.6,0.2-1c0-0.2,0.1-0.4,0.2-0.5c0.1-0.1,0.4-0.3,0.9-0.5c0.7-0.3,1.4-0.8,2.3-1.2s1.8-1,2.7-1.6c1-0.6,1.8-1.1,2.6-1.7
		c0.8-0.6,1.5-1.1,1.9-1.6c0.8-0.9,0.9-1.6,0.8-2.1c0-0.8-0.3-1.6-0.7-2.2s-1-1.3-1.6-1.8c-0.6-0.5-1.3-0.8-2-1.1
		c-0.8-0.3-1.5-0.4-2.1-0.4h-0.2c-1.3,0-2.5,0.3-3.5,0.8c-1,0.6-1.8,1.3-2.5,2.2c-0.6,0.8-1.2,1.8-1.6,2.8c-0.4,1-0.9,2-1.2,2.9
		c-0.4,0.9-0.8,1.8-1.2,2.6c-0.4,0.7-0.9,1.3-1.4,1.7c0,0,0,0-0.1,0.1c0-2.1-0.1-4.2-0.1-6.3c0-3.5-0.1-7-0.1-10.5s0-7.1,0-10.7
		v-0.7l-0.5-0.4c-0.3-0.2-0.6-0.3-1.1-0.3c-0.2,0-0.4,0-0.5,0s-0.4,0-0.6,0c-0.5,0.1-0.9,0.2-1.3,0.4c-0.6,0.3-1,0.9-1,1.6v0
		c0,0.9,0.1,2.2,0.2,3.6c0.1,1.4,0.2,2.9,0.4,4.5c0.1,1.5,0.2,3,0.3,4.4c0,0.7,0,1.4,0,1.9c-0.4,0-0.8-0.1-1.1-0.1
		c-0.9,0-1.8,0.2-2.5,0.4c-1.4,0.5-2.6,1.4-3.5,2.6c-0.9,1.2-1.5,2.6-2,4.2c-0.5,1.5-0.8,3.2-1,4.9c-0.1,0.7-0.1,1.3-0.2,2
		c0-0.2,0-0.3-0.1-0.5c-0.2-1.3-0.4-2.6-0.5-4c-0.1-1.3-0.2-2.9-0.2-4.8c0.4-2.1,0.2-3.6-0.6-4.7c-0.5-0.6-1.4-1.3-3-1.3
		c-0.3,0-0.6,0-0.9,0.1c-1.1,0-2.2,0.5-3.3,1.5c-0.9,0.8-1.8,1.9-2.7,3.2c-0.8,1.2-1.6,2.6-2.3,4.1c-0.7,1.5-1.3,3-1.9,4.4
		c-0.5,1.4-0.9,2.6-1.2,3.8c0-0.3,0-0.6,0-0.9c0-1.8-0.1-3.6-0.3-5.6c-0.1-2-0.4-3.8-0.8-5.5c-0.4-1.7-1-3.2-1.7-4.4
		c-0.8-1.4-2-2.3-3.4-2.5l-0.3-0.1l-0.2,0.1c-2.1,0.6-3.8,1.6-5,3c-1.1,1.3-2,2.8-2.6,4.5c-0.5,1.4-0.9,2.9-1.3,4.6
		c0-0.3-0.1-0.7-0.1-1c-0.2-2.1-0.4-3.8-0.6-5.1c-0.2-1.3-0.3-2.3-0.5-3c-0.2-0.8-0.3-1.3-0.5-1.6c-0.3-0.7-0.8-1-1.4-1H319
		c-1.4,0-2.3,0.9-2.3,2.2v0.1c0.3,4.3,0.6,8.5,0.8,12.5c0.2,4,0.5,8.1,0.9,12.1l0,0.2l0.1,0.2c0.3,0.6,0.9,1.1,1.6,1.2
		c0.2,0,0.3,0,0.5,0c0.3,0,0.6-0.1,1-0.1c0.4-0.1,0.8-0.3,1.2-0.6c0.5-0.3,0.8-0.7,1-1.1l0.1-0.2l0-0.2c0-0.6,0.2-1.4,0.4-2.5
		c0.2-1.1,0.5-2.4,0.8-3.8c0.3-1.4,0.7-2.8,1.1-4.3s0.9-2.9,1.4-4.3c0.5-1.3,1-2.5,1.5-3.6c0.5-1,1-1.7,1.5-2.1
		c0.2-0.2,0.4-0.3,0.7-0.3c0,0,0.1,0,0.1,0c0,0,0.4,0.1,1,1.1c0,0.4,0.1,1,0.1,1.7c0.1,1,0.1,2.2,0.2,3.5c0.1,1.3,0.2,2.7,0.3,4.3
		c0.1,1.5,0.2,3,0.3,4.3s0.2,2.5,0.2,3.5c0.1,1.2,0.1,1.7,0.1,1.9v0.3l0.2,0.3c0.4,0.5,0.8,0.9,1.3,1c0.2,0,0.3,0.1,0.5,0.1
		c0.3,0,0.5,0,0.8-0.1c0.4-0.1,0.8-0.4,1.1-0.7c0.3-0.3,0.5-0.6,0.7-1l0.1-0.3v-0.1c0.2,0.5,0.4,0.9,0.7,1.3
		c0.6,0.8,1.4,1.2,2.3,1.3h0.1c0.9,0,1.8-0.5,2.9-1.4c1-0.8,2-2.1,3.3-4c0.8-1.2,1.7-2.8,2.7-4.7c0.1,0.8,0.2,1.6,0.3,2.4
		c0.1,1.1,0.2,2.2,0.3,3.3c0.1,1.1,0.2,2,0.4,2.8c0.1,0.5,0.4,0.9,0.5,1c0.4,0.4,0.8,0.6,1.2,0.6c1.2,0,2-0.4,2.2-1.2
		c0.1-0.2,0.1-0.5,0.1-0.8l0.1,0.2c0.2,0.4,0.4,0.7,0.7,1c0.3,0.3,0.7,0.6,1.1,0.8c0.4,0.2,0.9,0.2,1.5,0.2c1.2,0,2.4-0.4,3.4-1.1
		c0.9-0.6,1.7-1.4,2.4-2.3c0.2-0.3,0.5-0.6,0.7-1l0.1,6.7v0.2l0,0.1c0.1,0.5,0.5,0.9,0.9,1.2c0.4,0.2,0.8,0.3,1.1,0.3
		c1.3,0,1.9-0.9,1.9-1.6c0-0.4,0.1-0.8,0.1-1.2c0-3.5,0-6.9-0.1-10.3V126c0.4,0.2,0.8,0.3,1.3,0.4c0.1,0,0.3,0,0.4,0h0.1
		c0,0.6,0,1.1,0,1.8c0,1.2,0.2,2.4,0.5,3.4c0.3,1.2,0.9,2.2,1.8,3c0.9,0.9,2.2,1.3,3.8,1.3c0.9,0,1.8-0.2,2.9-0.7
		c1-0.4,1.9-1,2.9-1.7c1-0.7,1.9-1.4,2.9-2.3c0.9-0.8,1.8-1.7,2.5-2.6c0.7-0.9,1.3-1.7,1.8-2.5c0.5-0.9,0.8-1.8,0.8-2.5
		C390.9,122.7,390.4,122,389.5,121.8L389.5,121.8L389.5,121.8z M378.1,116.2c0.4-0.6,0.9-1.1,1.4-1.6c0.3-0.3,0.6-0.4,0.8-0.4
		c0.2,0,0.4,0,0.6,0.1c0.2,0,0.4,0.1,0.6,0.2c0.1,0.1,0.2,0.1,0.3,0.2c0,0.1-0.2,0.3-0.5,0.6c-0.6,0.5-1.2,1-2,1.5
		c-0.7,0.4-1.4,0.8-2.1,1.1C377.4,117.2,377.7,116.7,378.1,116.2z M348.7,115.2c0,0.4-0.1,0.9-0.1,1.3c-0.1,0.5-0.2,1-0.4,1.5
		c-0.1,0.5-0.3,1-0.6,1.6c-0.3,0.6-0.7,1.3-1.2,2.2c-0.5,0.9-1.1,1.9-1.6,2.9c-0.5,1-1.1,1.9-1.7,2.8c-0.4,0.6-0.8,1.1-1.2,1.6v0
		c0.1-0.7,0.4-1.5,0.8-2.5c0.4-1.1,0.9-2.3,1.4-3.6c0.5-1.2,1.2-2.5,1.8-3.7c0.6-1.2,1.2-2.2,1.8-3.1c0.4-0.5,0.7-0.9,1-1.2
		L348.7,115.2L348.7,115.2L348.7,115.2z M364.4,118c0,0.6,0,1.2,0,1.5c0,0.2,0,0.7-0.2,1.5c-0.1,0.7-0.3,1.5-0.6,2.4
		c-0.2,0.9-0.5,1.8-0.9,2.8c-0.3,0.9-0.7,1.8-1.1,2.5c-0.4,0.7-0.9,1.3-1.3,1.7c-0.3,0.2-0.5,0.4-0.7,0.4c-0.2-0.3-0.4-0.7-0.6-1.2
		c-0.2-0.9-0.3-2.1-0.2-3.3c0.1-1.3,0.3-2.7,0.6-4.1c0.3-1.4,0.8-2.7,1.3-3.9c0.5-1.1,1.1-2,1.8-2.7c0.5-0.5,1-0.8,1.5-0.8l0,0
		c0.1,0.4,0.2,0.9,0.3,1.4C364.4,116.8,364.4,117.4,364.4,118L364.4,118L364.4,118z"/>
</g>
<g id="letters">
	<path class="st1" d="M57.5,33v50c0,0.6-0.4,1-1,1h-10c-0.5,0-1-0.4-1-1V55.5L34,83.3c-0.2,0.4-0.5,0.6-0.9,0.6h-7.6
		c-0.4,0-0.8-0.2-0.9-0.6L13,55.5V83c0,0.6-0.4,1-1,1H2c-0.5,0-1-0.4-1-1V33c0-0.6,0.5-1,1-1h11.4c0.4,0,0.8,0.2,0.9,0.6l15,35
		l15-35c0.2-0.4,0.5-0.6,0.9-0.6h11.3C57,32,57.5,32.5,57.5,33z"/>
	<path class="st1" d="M123.1,30v53c0,0.6-0.4,1-1,1h-10c-0.6,0-1-0.4-1-1V30c0-0.6,0.4-1,1-1h10C122.6,29,123.1,29.4,123.1,30z"/>
	<path class="st1" d="M167.2,51.5c-1.7-3.1-4.2-5.6-7.3-7.3c-3.1-1.7-6.7-2.5-10.6-2.5s-7.7,0.9-10.9,2.6c-3.2,1.8-5.7,4.3-7.4,7.6
		c-1.8,3.2-2.6,7-2.6,11.3s0.9,8,2.7,11.2c1.8,3.3,4.3,5.8,7.5,7.6c3.2,1.8,6.8,2.7,10.8,2.7c4.9,0,9.1-1.3,12.6-3.9
		c3.4-2.6,5.7-5.9,6.9-9.9c0.1-0.3,0-0.6-0.1-0.9c-0.2-0.2-0.5-0.4-0.8-0.4H157c-0.4,0-0.7,0.2-0.9,0.6c-1.4,2.8-3.7,4.2-7.1,4.2
		c-2.3,0-4.2-0.7-5.8-2.2c-1.3-1.2-2.2-2.9-2.6-5h27.9c0.5,0,0.9-0.3,1-0.8c0.2-1.2,0.3-2.5,0.3-4C169.8,58.3,168.9,54.7,167.2,51.5
		z M143.4,53.9c1.5-1.3,3.3-2,5.6-2c2.4,0,4.4,0.7,6,2.1c1.4,1.2,2.1,2.6,2.4,4.4h-16.6C141.2,56.5,142.1,55,143.4,53.9z"/>
	<path class="st1" d="M214.9,59.7V83c0,0.6-0.4,1-1,1h-10c-0.6,0-1-0.4-1-1V61.1c0-2.9-0.7-5.1-2.1-6.6c-1.4-1.5-3.3-2.2-5.7-2.2
		s-4.4,0.7-5.8,2.2c-1.4,1.5-2.1,3.7-2.1,6.6V83c0,0.6-0.4,1-1,1h-10c-0.6,0-1-0.4-1-1V43.3c0-0.5,0.4-1,1-1h10c0.6,0,1,0.5,1,1v2.4
		c1.1-1,2.3-1.8,3.7-2.4c2.2-1,4.6-1.6,7.3-1.6c5,0,9.1,1.6,12.2,4.8l0,0C213.3,49.7,214.9,54.1,214.9,59.7L214.9,59.7L214.9,59.7z"
		/>
	<path class="st1" d="M263.1,51.8c-1.7-3.2-4-5.8-6.9-7.5c-2.9-1.8-6.2-2.7-9.7-2.7c-3.1,0-5.8,0.6-8.2,1.9
		c-1.5,0.8-2.8,1.7-3.9,2.8V30c0-0.6-0.4-1-1-1h-10c-0.6,0-1,0.4-1,1v53c0,0.6,0.4,1,1,1h10c0.6,0,1-0.4,1-1v-3
		c1.1,1.1,2.4,2,3.9,2.8c2.4,1.2,5.1,1.9,8.2,1.9c3.6,0,6.8-0.9,9.7-2.7c2.9-1.8,5.2-4.4,6.9-7.7c1.7-3.2,2.5-7,2.5-11.2
		S264.8,55,263.1,51.8z M253.4,63c0,2.2-0.4,4.2-1.3,5.8c-0.9,1.6-2.1,2.8-3.5,3.7s-3,1.3-4.7,1.3s-3.2-0.4-4.6-1.3
		c-1.4-0.8-2.6-2.1-3.5-3.7c-0.9-1.6-1.3-3.5-1.3-5.7c0-2.2,0.4-4.1,1.3-5.7c0.9-1.6,2.1-2.8,3.5-3.7c1.4-0.8,3-1.3,4.6-1.3
		s3.3,0.4,4.7,1.2c1.4,0.8,2.6,2,3.5,3.6C253,58.9,253.4,60.8,253.4,63L253.4,63L253.4,63z"/>
	<path class="st1" d="M307.2,51.5c-1.7-3.1-4.2-5.6-7.4-7.3c-3.1-1.7-6.7-2.5-10.6-2.5s-7.7,0.9-10.9,2.6c-3.2,1.8-5.6,4.3-7.4,7.6
		c-1.7,3.2-2.6,7-2.6,11.3s0.9,8,2.7,11.2c1.8,3.3,4.3,5.8,7.5,7.6c3.2,1.8,6.8,2.7,10.8,2.7c4.9,0,9.1-1.3,12.6-3.9
		c3.4-2.6,5.7-5.9,6.9-9.9c0.1-0.3,0-0.6-0.2-0.9s-0.5-0.4-0.8-0.4H297c-0.4,0-0.7,0.2-0.9,0.6c-1.4,2.8-3.7,4.2-7,4.2
		c-2.3,0-4.2-0.7-5.8-2.2c-1.3-1.2-2.2-2.9-2.5-5h27.9c0.5,0,0.9-0.3,1-0.8c0.2-1.2,0.3-2.5,0.3-4C309.8,58.3,309,54.7,307.2,51.5
		L307.2,51.5L307.2,51.5z M283.4,53.9c1.5-1.3,3.4-2,5.6-2c2.4,0,4.4,0.7,6,2.1c1.4,1.2,2.1,2.6,2.4,4.4h-16.5
		C281.3,56.5,282.1,55,283.4,53.9L283.4,53.9L283.4,53.9z"/>
	<path class="st1" d="M351.4,51.5c-1.7-3.1-4.2-5.6-7.4-7.3c-3.1-1.7-6.7-2.5-10.6-2.5s-7.7,0.9-10.9,2.6c-3.2,1.8-5.7,4.3-7.4,7.6
		c-1.7,3.2-2.6,7-2.6,11.3s0.9,8,2.7,11.2c1.8,3.3,4.3,5.8,7.5,7.6c3.2,1.8,6.8,2.7,10.8,2.7c4.9,0,9.1-1.3,12.6-3.9
		c3.4-2.6,5.7-5.9,6.9-9.9c0.1-0.3,0-0.6-0.2-0.9s-0.5-0.4-0.8-0.4h-10.8c-0.4,0-0.7,0.2-0.9,0.6c-1.4,2.8-3.7,4.2-7,4.2
		c-2.3,0-4.2-0.7-5.8-2.2c-1.4-1.2-2.2-2.9-2.5-5h27.9c0.5,0,0.9-0.3,1-0.8c0.2-1.2,0.3-2.5,0.3-4C354,58.3,353.1,54.7,351.4,51.5
		L351.4,51.5L351.4,51.5z M327.6,53.9c1.5-1.3,3.4-2,5.6-2c2.4,0,4.4,0.7,6,2.1c1.4,1.2,2.1,2.6,2.4,4.4H325
		C325.5,56.5,326.3,55,327.6,53.9L327.6,53.9L327.6,53.9z"/>
	<path class="st1" d="M397.7,83.4c-0.2,0.4-0.5,0.6-0.9,0.6h-13c-0.3,0-0.6-0.1-0.8-0.4l-11.7-14.7v14c0,0.6-0.4,1-1,1h-10
		c-0.5,0-1-0.4-1-1V30c0-0.6,0.5-1,1-1h10c0.6,0,1,0.4,1,1v27.3l11.5-14.6c0.2-0.2,0.5-0.4,0.8-0.4h13c0.4,0,0.8,0.2,0.9,0.6
		s0.1,0.8-0.2,1.1l-16.9,19.2l17,19.1C397.8,82.6,397.9,83,397.7,83.4z"/>
</g>
<g id="moulin-shape">
	<path class="st1" d="M99.3,65.5c2.2-2.3,3.9-4.4,5.2-6c0,0,0,0,0.1-0.1c0.1-0.2,0.3-0.3,0.4-0.5c0,0,0.1-0.1,0.1-0.1h0
		c0.9-1.2,1.4-2.7,1.4-4.3V41.4c0-0.5-0.2-0.8-0.4-0.8c-0.2,0-0.4,0.1-0.6,0.3L93.1,53.3v-0.1c-0.1-0.7-0.4-1.8-5-6.1
		c-2.3-2.2-4.4-4-6-5.2c0,0,0,0-0.1,0c-0.2-0.1-0.3-0.3-0.5-0.4c0,0-0.1,0-0.1-0.1l0,0c0,0,0,0,0,0l0,0c-1.2-0.9-2.7-1.4-4.3-1.4
		H64.1c-0.8,0-1,0.5-0.4,1.1L76,53.3h-0.1c-0.7,0.1-1.8,0.4-6.1,5c-2.2,2.4-4.1,4.5-5.4,6.2c-0.1,0.1-0.2,0.2-0.2,0.3
		c0,0-0.1,0.1-0.1,0.1c0,0-0.1,0.1-0.1,0.1c-0.9,1.2-1.4,2.7-1.4,4.3v13.1c0,0.5,0.2,0.8,0.5,0.8c0.2,0,0.4-0.1,0.6-0.3l12.4-12.4
		c0.4,3.2,4.9,6.4,10.3,11.1c0,0,0,0,0,0c0,0,0,0,0,0h0c0.4,0.3,0.7,0.6,1.1,0.9c0,0,0,0,0.1,0c0,0,0,0,0,0l0,0
		c0.4,0.2,0.8,0.4,1.3,0.6c0.6,0.2,1.2,0.4,1.8,0.5c1.8,0.3,4.2,0.4,7.1,0.4c2.1,0,4.4,0,7.2-0.1c0.8,0,1-0.5,0.4-1L93.1,70.4h0.1
		C94,70.4,95,70,99.3,65.5L99.3,65.5L99.3,65.5z M65.6,41.2h11.6c1.8,0,3.5,0.8,4.6,2c1,1.1,1.6,2.5,1.6,4.1v9.4
		c-0.5,0.1-1,0.3-1.5,0.6c0,0-0.1,0-0.1,0.1C81.8,57.4,65.6,41.2,65.6,41.2z M76.4,68.2L63.8,80.8V69.2c0-1.8,0.8-3.5,2.1-4.6
		c1.1-1,2.5-1.6,4.1-1.6h9.3c0.1,0.5,0.3,1,0.6,1.5c0,0,0,0.1,0.1,0.1C80,64.7,76.4,68.2,76.4,68.2z M84.6,66.1c0,0-0.1,0-0.1,0
		c-1.1,0-2.1-0.5-2.8-1.3c-0.2-0.3-0.5-0.6-0.7-0.9c0,0-0.1-0.1-0.1-0.1c-0.1-0.2-0.2-0.5-0.3-0.7c-0.1-0.2-0.1-0.4-0.1-0.6
		c0-0.2,0-0.3,0-0.5v-0.1c0-1.1,0.5-2.1,1.2-2.9c0.3-0.3,0.6-0.5,0.9-0.7c0,0,0.1-0.1,0.1-0.1c0.2-0.1,0.4-0.2,0.7-0.3
		c0.2-0.1,0.4-0.1,0.6-0.1c0.2,0,0.4,0,0.6,0h0c1.1,0,2.1,0.5,2.9,1.2c0.3,0.2,0.5,0.5,0.7,0.9c0,0,0.1,0.1,0.1,0.1
		c0.1,0.2,0.2,0.5,0.3,0.7c0.1,0.2,0.1,0.4,0.1,0.6c0,0.2,0.1,0.4,0.1,0.6v0c0,1.1-0.5,2.2-1.2,2.9l0,0c-0.3,0.3-0.6,0.5-0.9,0.7
		c0,0-0.1,0-0.1,0c-0.3,0.1-0.5,0.2-0.8,0.3c-0.2,0-0.3,0.1-0.5,0.1C85,66.1,84.8,66.1,84.6,66.1L84.6,66.1z M103.6,82.6
		c-2.1,0-4,0.1-5.7,0.1c-3.3,0-5.4-0.1-6.9-0.4c-1.6-0.3-2.7-0.8-3.4-1.5c-0.1-0.1-0.1-0.1-0.2-0.2c-1.5-1.8-1.8-5.4-1.7-11.4v0
		c0-0.6,0-1.3,0-2c0.6-0.1,1.1-0.3,1.6-0.6c0,0,0.1,0,0.1-0.1l3.4,3.4C90.8,69.9,103.5,82.6,103.6,82.6z M89.8,60.7
		c-0.1-0.5-0.3-1-0.6-1.5c0,0,0-0.1-0.1-0.1l3.4-3.4l12.7-12.7v11.6c0,1.8-0.8,3.5-2.1,4.6c-1.1,1-2.5,1.6-4.1,1.6
		C99.1,60.7,89.8,60.7,89.8,60.7z"/>
</g>
</svg>
