<?xml version="1.0" encoding="utf-8"?>
<!-- Generator: Adobe Illustrator 26.3.1, SVG Export Plug-In . SVG Version: 6.00 Build 0)  -->
<svg version="1.1" id="Layer_2_00000107553193817234514970000013943782543811584432_"
	 xmlns="http://www.w3.org/2000/svg" xmlns:xlink="http://www.w3.org/1999/xlink" x="0px" y="0px" viewBox="0 0 159.9 164.6"
	 style="enable-background:new 0 0 159.9 164.6;" xml:space="preserve">
<g id="logo-forme">
	<g id="moulin-shape">
		<path d="M380.1,154.2c-11.3,0-18.5-0.4-24.1-1.4c-2.2-0.4-4.2-0.9-6-1.6c-1.2-0.5-2.3-0.9-3.2-1.4v-0.7l-1.2,0l-0.9-0.8
			c-0.7-0.6-1.4-1.2-2.1-1.8v-0.3l-0.8-0.4c-3-2.5-5.8-4.9-8.6-7.2c-13.9-11.6-24.9-20.8-25.9-29.3l-0.4-3.5L262,150.7
			c-0.2,0.3-0.5,0.4-0.6,0.5c0-0.2-0.1-0.4-0.1-0.8v-44.5c0-4.9,1.5-9.7,4.5-13.7l0.1-0.1l0.1-0.2l0.1-0.1c0.1-0.1,0.1-0.2,0.2-0.2
			l0.1-0.1l0.1-0.1c0.2-0.3,0.5-0.6,0.7-0.9c5.8-7.2,12-14.2,18.2-20.9c14.8-15.7,18.1-16.3,19.8-16.4l6.6,2.2l-47.2-47
			c-0.2-0.2-0.4-0.5-0.5-0.6c0.2,0,0.4-0.1,0.8-0.1h44.7c4.6,0,9.1,1.3,12.9,3.9v0.8l1.1,0c0.2,0.1,0.4,0.3,0.6,0.4
			c0.3,0.2,0.6,0.5,1,0.8l0.2,0.1l0.1,0.1c6.9,5.5,13.7,11.5,20.5,17.8c15.8,14.8,16.4,18,16.5,19.7l-2.2,6.6l47.2-47
			c0.2-0.2,0.4-0.4,0.6-0.5c0,0.2,0.1,0.4,0.1,0.8v44.5c0,4.6-1.4,9.1-3.9,12.9h-0.2l-0.5,0.9l-0.1,0.1l-0.1,0
			c-0.2,0.2-0.3,0.4-0.5,0.6c-0.2,0.3-0.5,0.6-0.8,1l-0.1,0.2l-0.1,0.1c-5.4,6.7-11.4,13.6-17.8,20.5
			c-14.8,15.7-18.1,16.3-19.8,16.4l-6.6-2.2l47.3,47.1c0.2,0.2,0.4,0.4,0.5,0.6c-0.2,0-0.4,0.1-0.8,0.1
			C395.4,154.1,387.2,154.2,380.1,154.2L380.1,154.2z M343.1,95.2c-1.5,0.9-3.2,1.6-5,2l-1.3,0.3l0,1.6c0,2.2-0.1,4.4-0.1,6.5v0.1
			c-0.2,21.6,0.7,33.7,6.2,40c0.2,0.2,0.4,0.5,0.6,0.7c2.7,2.8,6.7,4.6,12.5,5.6c5.5,1,12.7,1.4,24.1,1.4c5.5,0,11.8-0.1,19.5-0.2
			l4-0.1l-59.2-59.1l-1.1,1L343.1,95.2L343.1,95.2z M284.9,83.1c-5.6,0-11,2.1-15.2,5.8c-4.8,4.3-7.6,10.4-7.6,16.9v43.6l59.3-59.1
			l-1-1.1l-0.1-0.2c-0.8-1.3-1.4-2.9-1.8-4.6l-0.3-1.4L284.9,83.1L284.9,83.1z M334.1,96.7c0.3,0,0.5,0,0.7,0c0.8,0,1.6-0.1,2.2-0.2
			c0.7-0.1,1.3-0.2,2-0.4c1-0.3,2-0.7,3-1.2c0.2-0.1,0.3-0.2,0.5-0.3c1.2-0.7,2.4-1.5,3.4-2.6l0.5-0.5v-0.1
			c2.7-2.9,4.1-6.7,4.1-10.6v-0.1c0-0.8-0.1-1.7-0.2-2.5c-0.1-0.6-0.2-1.4-0.5-2.2c-0.3-0.9-0.6-1.8-1.1-2.7
			c-0.1-0.2-0.2-0.3-0.3-0.5c-0.8-1.3-1.6-2.4-2.6-3.3c-2.9-2.9-6.8-4.5-11-4.5h0c-0.7,0-1.5,0.1-2.4,0.2c-0.9,0.1-1.6,0.3-2.3,0.5
			c-0.8,0.2-1.7,0.6-2.5,1c-0.2,0.1-0.4,0.2-0.5,0.3c-1.3,0.7-2.4,1.5-3.3,2.5c-2.9,2.8-4.6,6.7-4.8,10.8V81c0,0.8,0,1.4,0.1,2
			c0.1,0.8,0.2,1.6,0.5,2.3c0.3,0.9,0.6,1.8,1,2.6c0.1,0.2,0.2,0.4,0.4,0.7c0.7,1.2,1.5,2.3,2.4,3.3C326.2,94.9,330,96.6,334.1,96.7
			L334.1,96.7z M348.9,72.3l0.1,0.2c0.9,1.4,1.5,3,1.9,4.6l0.3,1.3h33.2c5.6,0,11-2.1,15.2-5.9c4.8-4.2,7.6-10.4,7.6-16.8V12.1
			L348,71L348.9,72.3L348.9,72.3L348.9,72.3z M325.5,68.1l1-1.5c1.4-0.8,2.8-1.4,4.4-1.7l1.4-0.3V31.2c0-5.6-2.1-11-5.9-15.1
			c-4.3-4.8-10.4-7.5-16.9-7.5h-43.7L325.5,68.1L325.5,68.1z"/>
		<path d="M331.9,21.5c4.3,3.6,8.5,7.4,12.7,11.4c14,13.1,15.7,16.8,15.9,18.3l-2.5,7.5l-10.2,10.2l-0.3,0.3
			c-0.2-0.2-0.4-0.4-0.6-0.6c-3.3-3.2-7.6-5-12.2-5c-0.2,0-0.5,0-0.8,0V31.2C334,27.8,333.3,24.5,331.9,21.5L331.9,21.5z
			 M304.9,54.9l7.6,2.5l10.4,10.4L323,68c-0.2,0.2-0.4,0.4-0.6,0.5c-3.3,3.2-5.1,7.4-5.3,12V81c0,0.2,0,0.3,0,0.4h-32.3
			c-3.4,0-6.7,0.7-9.7,2c3.7-4.3,7.5-8.5,11.3-12.6C299.7,56.9,303.5,55.2,304.9,54.9L304.9,54.9z M394.1,78.1
			c-3.6,4.2-7.4,8.5-11.4,12.7c-13.1,13.9-16.9,15.6-18.4,15.9l-7.5-2.5l-10.1-10l-0.2-0.2c0.2-0.2,0.4-0.3,0.5-0.5l1-1v-0.1
			c2.7-3.2,4.1-7.1,4.1-11.2v-0.1c0-0.3,0-0.5,0-0.8h32.1C387.7,80.1,391,79.4,394.1,78.1L394.1,78.1z M321.6,92.5
			c0.1,0.2,0.3,0.3,0.5,0.5l0,0l0,0c3.1,3.3,7.3,5.2,11.8,5.3c0.3,0,0.6,0,0.8,0c0.1,0,0.2,0,0.3,0v0.6c0,2.3-0.1,4.4-0.1,6.5v0.1
			c-0.1,16.2,0.4,27.2,3,34.5c-1.2-1-2.4-2-3.5-2.9c-13.6-11.4-24.4-20.4-25.3-28.2l-0.4-3.6l0.7-0.7l12.1-12.1L321.6,92.5
			L321.6,92.5z M309.5,6h-44.7c-2.8,0-3.5,1.6-1.5,3.6l42,41.9c0,0-0.1,0-0.1,0c-0.1,0-0.2,0-0.2,0c-2.5,0.2-6.2,1.3-21,17
			c-7.7,8.2-13.8,15.5-18.3,21c-0.3,0.3-0.5,0.7-0.8,0.9c-0.1,0.1-0.2,0.3-0.3,0.4c-0.1,0.1-0.2,0.2-0.2,0.4
			c-3,4.2-4.8,9.2-4.8,14.7v44.5c0,1.7,0.6,2.6,1.5,2.6c0.6,0,1.3-0.4,2.1-1.2l42.5-42.4c1.3,10.9,16.6,21.8,35.1,37.7
			c0,0,0.1,0.1,0.1,0.1c0,0.1,0.1,0.1,0.1,0.2c0,0,0.1,0,0.1,0c1.2,1,2.4,2.1,3.7,3.1c0,0.1,0.1,0.1,0.2,0.1c0,0,0.1,0,0.1,0v0
			c1.3,0.8,2.7,1.5,4.3,2c1.9,0.7,4,1.2,6.3,1.6c6.2,1.1,14.2,1.5,24.4,1.5c7,0,15.1-0.1,24.5-0.3c2.7,0,3.4-1.7,1.5-3.6l-42.1-42
			c0,0,0.1,0,0.1,0c0.1,0,0.2,0,0.2,0c2.5-0.2,6.2-1.4,21-17c7.5-8,13.5-15.1,17.9-20.6c0.1-0.1,0.1-0.1,0.2-0.2
			c0.5-0.6,0.9-1.1,1.3-1.6c0.1-0.1,0.2-0.3,0.3-0.4h0c3-4.1,4.7-9.2,4.7-14.6V11.1c0-1.7-0.6-2.6-1.5-2.6c-0.6,0-1.3,0.4-2,1.1
			l-42,41.9c0-0.1,0-0.2,0-0.3c-0.2-2.5-1.4-6.2-17.1-20.8c-8-7.5-15.1-13.5-20.6-17.9c-0.1-0.1-0.1-0.1-0.2-0.2
			c-0.6-0.5-1.1-0.9-1.6-1.3c-0.1-0.1-0.2-0.2-0.3-0.2v0c0,0-0.1,0-0.1,0v0C320,7.7,314.9,6,309.5,6L309.5,6L309.5,6z M325.3,65.4
			l-55.4-55.2h39.6c6.2,0,11.8,2.7,15.6,7c3.4,3.7,5.4,8.6,5.4,14v32c-1.8,0.4-3.5,1.1-5.1,2C325.4,65.2,325.3,65.3,325.3,65.4
			L325.3,65.4L325.3,65.4z M352.5,76.7c-0.4-1.8-1.1-3.6-2.1-5.2c0-0.1-0.1-0.2-0.2-0.3L362,59.5l43.5-43.3v39.5
			c0,6.2-2.7,11.8-7,15.6c-3.8,3.4-8.7,5.4-14.1,5.4L352.5,76.7L352.5,76.7z M334.7,95.1c-0.2,0-0.3,0-0.5,0
			c-3.8-0.1-7.2-1.7-9.7-4.3c-0.9-0.9-1.6-1.9-2.2-3.1c-0.1-0.1-0.2-0.3-0.2-0.4c-0.4-0.8-0.7-1.6-0.9-2.4c-0.2-0.7-0.3-1.3-0.4-2
			c-0.1-0.6-0.1-1.2-0.1-1.8v-0.3c0.1-3.8,1.7-7.3,4.3-9.7c0.9-0.9,1.9-1.7,3-2.2c0.1-0.1,0.3-0.2,0.4-0.2c0.7-0.4,1.5-0.7,2.2-0.9
			c0.6-0.2,1.3-0.4,2-0.5c0.7-0.1,1.4-0.2,2.1-0.2h0c3.8,0,7.3,1.5,9.8,4c0.9,0.8,1.7,1.9,2.4,3c0.1,0.1,0.2,0.2,0.2,0.4
			c0.4,0.8,0.8,1.6,1,2.4c0.2,0.7,0.4,1.3,0.5,2c0.1,0.7,0.2,1.4,0.2,2.2V81c0,3.8-1.6,7.4-4.1,9.9v0c-0.9,0.9-2,1.7-3.1,2.3
			c-0.1,0.1-0.2,0.1-0.3,0.2c-0.9,0.5-1.8,0.8-2.8,1.1c-0.6,0.2-1.2,0.3-1.8,0.4C336.1,95,335.4,95.1,334.7,95.1L334.7,95.1
			L334.7,95.1z M263.8,145.3v-39.5c0-6.2,2.7-11.8,7-15.6c3.7-3.4,8.6-5.4,14-5.4h32c0.4,1.8,1,3.6,2,5.2c0,0.1,0.1,0.2,0.2,0.3
			l-12.1,12.1L263.8,145.3L263.8,145.3z M380.1,151.8c-11.2,0-18.4-0.4-23.8-1.4c-5.5-1-9.2-2.7-11.7-5.2c-0.2-0.2-0.4-0.4-0.5-0.6
			c-5.2-6-6-18.3-5.8-38.8v-0.1c0-2.2,0-4.4,0.1-6.7c2-0.4,3.9-1.1,5.6-2.2c0.1,0,0.2-0.1,0.3-0.2l11.6,11.6l43.6,43.5
			C392.2,151.7,385.8,151.8,380.1,151.8L380.1,151.8L380.1,151.8z"/>
	</g>
</g>
<g id="logo-forme_00000029741632842115197040000012527781426690078627_">
	<g id="moulin-shape_00000034057265770074092640000017849173461107816874_">
		<path d="M109.5,107.8c2.5-0.2,6.2-1.4,21-17c7.5-8,13.5-15.1,17.9-20.5c0.1-0.1,0.1-0.1,0.2-0.2c0.5-0.6,0.9-1.1,1.3-1.6
			c0.1-0.1,0.2-0.3,0.3-0.4h0c3-4.1,4.7-9.2,4.7-14.6V8.9c0-1.7-0.6-2.6-1.5-2.6c-0.6,0-1.3,0.4-2.1,1.1l-42,41.9c0-0.1,0-0.2,0-0.3
			c-0.2-2.5-1.4-6.2-17.1-20.8c-8-7.5-15.1-13.5-20.6-17.9c-0.1-0.1-0.1-0.1-0.2-0.2c-0.6-0.5-1.1-0.9-1.6-1.3
			c-0.1-0.1-0.2-0.2-0.3-0.2v0c0,0-0.1,0-0.1,0v0c-4.1-3-9.2-4.7-14.7-4.7l0,0H10.1c-2.8,0-3.5,1.6-1.5,3.6l42,41.9c0,0-0.1,0-0.1,0
			c-0.1,0-0.2,0-0.2,0c-2.5,0.2-6.2,1.3-20.9,17c-7.7,8.2-13.8,15.5-18.3,21c-0.3,0.3-0.5,0.7-0.8,1c-0.1,0.1-0.2,0.3-0.3,0.4
			c-0.1,0.1-0.2,0.2-0.2,0.4c-3,4.2-4.8,9.2-4.8,14.7v44.5c0,1.7,0.6,2.6,1.5,2.6c0.6,0,1.3-0.4,2-1.2L51,107.3
			c1.3,10.9,16.6,21.8,35.1,37.6c0,0,0.1,0.1,0.1,0.1c0,0.1,0.1,0.1,0.1,0.2c0,0,0.1,0,0.1,0c1.2,1,2.4,2.1,3.7,3.1
			c0,0.1,0.1,0.1,0.2,0.1c0,0,0.1,0,0.1,0v0c1.3,0.8,2.7,1.5,4.3,2c1.9,0.7,4,1.2,6.3,1.6c6.2,1.1,14.2,1.5,24.4,1.5
			c7.1,0,15.2-0.1,24.5-0.3c2.7,0,3.4-1.7,1.5-3.6l-42.1-42c0,0,0.1,0,0.1,0C109.4,107.8,109.5,107.8,109.5,107.8z M150.1,151.1
			c0.2,0.2,0.4,0.4,0.5,0.6c-0.2,0-0.4,0.1-0.8,0.1c-9.2,0.2-17.4,0.3-24.4,0.3c-11.3,0-18.5-0.4-24.1-1.4c-2.2-0.4-4.2-0.9-6-1.6
			c-1.2-0.5-2.3-0.9-3.2-1.4v-0.7l-1.2,0l-0.9-0.8c-0.7-0.6-1.4-1.2-2.1-1.8V144l-0.8-0.4c-2.9-2.5-5.8-4.9-8.5-7.2
			c-13.9-11.6-24.9-20.8-25.9-29.3l-0.4-3.5l-45,44.8c-0.2,0.3-0.4,0.4-0.6,0.5c0-0.2-0.1-0.4-0.1-0.8v-44.5c0-4.9,1.5-9.7,4.5-13.7
			l0.1-0.1l0.1-0.2l0.1-0.1c0.1-0.1,0.1-0.2,0.2-0.2l0.1-0.1l0.1-0.1c0.2-0.3,0.5-0.6,0.7-0.9c5.8-7.2,12-14.2,18.2-20.9
			C45.4,51.7,48.6,51.1,50.3,51l6.6,2.2L9.8,6.2C9.5,5.9,9.4,5.7,9.3,5.5c0.2,0,0.4-0.1,0.8-0.1h44.7c4.6,0,9.1,1.3,13,3.9v0.8
			l1.1,0c0.2,0.1,0.4,0.3,0.6,0.4c0.3,0.2,0.6,0.5,1,0.8l0.2,0.1l0.1,0.1c6.9,5.5,13.7,11.5,20.5,17.8c15.8,14.8,16.3,18,16.5,19.7
			l-2.2,6.6l47.2-47c0.2-0.2,0.4-0.4,0.6-0.5c0,0.2,0.1,0.4,0.1,0.8v44.5c0,4.6-1.4,9.1-3.9,12.9h-0.2l-0.5,0.9l-0.1,0.1l0,0
			c-0.2,0.2-0.3,0.4-0.5,0.6c-0.2,0.3-0.5,0.6-0.8,1l-0.1,0.2l-0.1,0.1c-5.4,6.7-11.4,13.6-17.8,20.5
			c-14.8,15.7-18.1,16.3-19.8,16.4l-6.6-2.2L150.1,151.1z M95,74c-0.3-0.9-0.6-1.8-1.1-2.7c-0.1-0.2-0.2-0.3-0.3-0.5
			c-0.8-1.3-1.6-2.4-2.6-3.3c-2.9-2.9-6.8-4.5-11-4.5h0c-0.7,0-1.5,0.1-2.4,0.2c-0.9,0.1-1.7,0.3-2.3,0.5c-0.8,0.2-1.7,0.6-2.5,1
			c-0.2,0.1-0.4,0.2-0.5,0.3c-1.3,0.7-2.4,1.5-3.3,2.5c-2.9,2.8-4.6,6.7-4.8,10.8v0.4c0,0.8,0,1.4,0.2,2c0.1,0.8,0.2,1.6,0.5,2.3
			c0.3,0.9,0.6,1.8,1,2.6c0.1,0.2,0.2,0.4,0.3,0.6c0.7,1.2,1.5,2.3,2.4,3.3c2.9,3,6.7,4.7,10.8,4.8v0c0.3,0,0.5,0,0.7,0
			c0.8,0,1.6,0,2.2-0.2c0.7-0.1,1.3-0.2,2-0.4c1-0.3,2-0.7,3-1.2c0.2-0.1,0.3-0.2,0.5-0.3c1.2-0.7,2.4-1.5,3.4-2.6l0.5-0.5v-0.1
			c2.7-2.9,4.1-6.6,4.1-10.6v-0.1c0-0.8-0.1-1.7-0.2-2.5C95.5,75.6,95.3,74.8,95,74z M94.1,78.8c0,3.8-1.6,7.4-4.1,9.9v0
			c-0.9,0.9-2,1.7-3.1,2.3c-0.1,0.1-0.2,0.1-0.3,0.2c-0.9,0.5-1.8,0.8-2.8,1.1c-0.6,0.2-1.2,0.3-1.8,0.4c-0.7,0.1-1.3,0.1-2,0.1l0,0
			c-0.2,0-0.3,0-0.5,0c-3.8-0.1-7.2-1.7-9.7-4.3c-0.9-0.9-1.6-1.9-2.2-3.1c-0.1-0.1-0.2-0.3-0.2-0.4c-0.4-0.8-0.7-1.6-0.9-2.4
			c-0.2-0.7-0.3-1.3-0.4-2c-0.1-0.6-0.1-1.2-0.1-1.8v-0.3c0.1-3.8,1.7-7.3,4.3-9.7c0.9-0.9,1.9-1.7,3-2.2c0.1-0.1,0.3-0.2,0.4-0.2
			c0.7-0.4,1.5-0.7,2.2-0.9c0.7-0.2,1.3-0.4,2.1-0.5c0.7-0.1,1.4-0.2,2.1-0.2h0c3.8,0,7.3,1.5,9.8,4c0.9,0.8,1.7,1.9,2.4,3
			c0.1,0.1,0.2,0.2,0.2,0.4c0.4,0.8,0.8,1.6,1,2.4c0.2,0.7,0.4,1.3,0.5,2c0.1,0.7,0.2,1.4,0.2,2.2V78.8z"/>
		<path d="M129.2,89.7c6.4-6.8,12.4-13.7,17.8-20.5l0.1-0.1l0.1-0.2c0.3-0.3,0.5-0.7,0.8-1c0.2-0.2,0.3-0.4,0.5-0.6l0,0l0.1-0.1
			l0.5-0.9h0.2c2.5-3.8,3.9-8.3,3.9-12.9V8.9c0-0.4,0-0.6-0.1-0.8c-0.2,0.1-0.4,0.3-0.6,0.5l-47.2,47l2.2-6.6
			c-0.2-1.7-0.8-4.9-16.5-19.7C84.3,23,77.4,17.1,70.6,11.6l-0.1-0.1l-0.2-0.1c-0.3-0.3-0.7-0.5-1-0.8c-0.2-0.2-0.4-0.3-0.6-0.4
			l-1.1,0V9.3c-3.8-2.5-8.3-3.9-13-3.9H10.1c-0.4,0-0.6,0-0.8,0.1c0.1,0.2,0.3,0.4,0.5,0.6l47.2,47L50.3,51
			c-1.7,0.2-5,0.8-19.8,16.4c-6.2,6.7-12.4,13.7-18.2,20.9c-0.3,0.3-0.5,0.6-0.7,0.9l-0.1,0.1l-0.1,0.1c-0.1,0.1-0.1,0.1-0.2,0.2
			l-0.1,0.1l-0.1,0.2L11.1,90c-2.9,4-4.5,8.7-4.5,13.7v44.5c0,0.4,0,0.6,0.1,0.8c0.2-0.1,0.3-0.3,0.6-0.5l45-44.8l0.4,3.5
			c1,8.5,12,17.7,25.9,29.3c2.7,2.3,5.6,4.7,8.5,7.2l0.8,0.4v0.3c0.7,0.6,1.4,1.2,2.1,1.8l0.9,0.8l1.2,0v0.7c0.9,0.5,1.9,1,3.2,1.4
			c1.8,0.6,3.8,1.2,6,1.6c5.6,1,12.8,1.4,24.1,1.4c7.1,0,15.3-0.1,24.4-0.3c0.3,0,0.6,0,0.8-0.1c-0.1-0.2-0.2-0.3-0.5-0.6
			l-47.3-47.1l6.6,2.2C111.1,106,114.4,105.4,129.2,89.7z M87.8,92.5c-0.2,0.1-0.3,0.2-0.5,0.3c-1,0.5-2,0.9-3,1.2
			c-0.7,0.2-1.3,0.3-2,0.4c-0.7,0.1-1.4,0.2-2.2,0.2c-0.2,0-0.4,0-0.7,0v0c-4.1-0.1-7.9-1.8-10.8-4.8c-1-1-1.8-2.1-2.4-3.3
			c-0.2-0.2-0.3-0.5-0.3-0.6c-0.4-0.8-0.7-1.7-1-2.6c-0.2-0.7-0.4-1.5-0.5-2.3c-0.1-0.6-0.2-1.3-0.2-2v-0.4c0.1-4.2,1.8-8,4.8-10.8
			c1-1,2.1-1.8,3.3-2.5c0.2-0.1,0.4-0.2,0.5-0.3c0.8-0.4,1.7-0.8,2.5-1c0.7-0.2,1.4-0.4,2.3-0.5c0.8-0.1,1.6-0.2,2.4-0.2h0
			c4.1,0,8,1.6,11,4.5c1,0.9,1.9,2,2.6,3.3c0.1,0.2,0.2,0.3,0.3,0.5c0.5,0.8,0.8,1.8,1.1,2.7c0.3,0.8,0.5,1.7,0.5,2.2
			c0.1,0.8,0.2,1.7,0.2,2.5v0.1c0,4-1.5,7.7-4.1,10.6v0.1l-0.5,0.5C90.1,91,89,91.9,87.8,92.5z M97.8,74.5L97.8,74.5L97.8,74.5
			L97.8,74.5z"/>
	</g>
</g>
</svg>
