<?xml version="1.0" encoding="UTF-8"?><svg id="Layer_2" xmlns="http://www.w3.org/2000/svg" viewBox="0 0 150 150"><defs><style>.cls-1{fill:#fff;}.cls-2{fill:#1e3734;}</style></defs><g id="logo-divise"><g id="logo-divise-2"><path class="cls-2" d="M75,74.75L4.71,85.26c4.54-5.72,11.17-13.69,19.73-22.77,14.73-15.63,18.43-16.74,20.93-16.97,15.14-1.38,28.23,26.22,29.63,29.24Z"/><path class="cls-2" d="M75.05,74.8L64.51,4.7c5.73,4.53,13.73,11.14,22.84,19.67,15.67,14.69,16.79,18.38,17.02,20.87,1.38,15.1-26.29,28.16-29.32,29.55Z"/><path class="cls-2" d="M75,74.84l70.29-10.51c-4.54,5.72-11.17,13.69-19.73,22.77-14.73,15.63-18.43,16.74-20.93,16.97-15.14,1.38-28.23-26.22-29.63-29.24Z"/><path class="cls-2" d="M74.95,74.8l10.53,70.1c-35.55-31.16-62.54-43.56-10.53-70.1Z"/><g><path class="cls-1" d="M75.13,74.83L3.69,3.59C1.71,1.61,2.38,0,5.18,0H49.85c13.9,0,25.28,11.35,25.28,25.21v49.62Z"/><path class="cls-2" d="M49.85,4.2c11.62,0,21.07,9.43,21.07,21.01v39.47L10.27,4.2H49.85M49.85,0H5.18C2.38,0,1.71,1.61,3.69,3.59L75.13,74.83V25.21C75.13,11.35,63.75,0,49.85,0h0Z"/></g><g><path class="cls-1" d="M74.97,74.92L146.4,3.68c1.98-1.97,3.6-1.3,3.6,1.49V49.71c0,13.87-11.38,25.21-25.28,25.21h-49.75Z"/><path class="cls-2" d="M145.79,10.24V49.71c0,11.59-9.45,21.01-21.07,21.01h-39.58L145.79,10.24m2.68-7.69c-.59,0-1.3,.37-2.07,1.13L74.97,74.92h49.75c13.9,0,25.28-11.35,25.28-25.21V5.17c0-1.71-.61-2.62-1.53-2.62h0Z"/></g><g><path class="cls-1" d="M74.87,74.76l71.52,71.33c1.93,1.92,1.27,3.54-1.46,3.59-74.26,1.3-71.29,2.32-70.07-74.91Z"/><path class="cls-2" d="M78.92,84.74l60.99,60.82c-7.31,.13-13.71,.23-19.45,.23-11.24,0-18.33-.42-23.72-1.41-5.48-1.01-9.19-2.64-11.66-5.15-6.9-7-6.7-23.91-6.16-54.49m-4.05-9.98c-1.07,67.53-3.48,75.24,45.59,75.24,7.05,0,15.16-.16,24.48-.32,2.73-.05,3.39-1.66,1.46-3.59L74.87,74.76h0Z"/></g><g><path class="cls-1" d="M75.03,74.67L3.6,145.91C1.62,147.88,0,147.22,0,144.43v-44.55c0-13.87,11.38-25.21,25.28-25.21h49.75Z"/><path class="cls-2" d="M64.86,78.87L4.21,139.35v-39.47c0-11.59,9.45-21.01,21.07-21.01h39.58m10.17-4.2H25.28c-13.9,0-25.28,11.35-25.28,25.21v44.55c0,1.71,.61,2.62,1.53,2.62,.59,0,1.3-.37,2.07-1.13L75.03,74.67h0Z"/></g><g><ellipse class="cls-1" cx="75.11" cy="75.01" rx="16.22" ry="16.18"/><path class="cls-2" d="M75.11,93.29c-10.11,0-18.33-8.2-18.33-18.28s8.22-18.28,18.33-18.28,18.33,8.2,18.33,18.28-8.22,18.28-18.33,18.28Zm0-32.36c-7.78,0-14.12,6.31-14.12,14.08s6.33,14.08,14.12,14.08,14.12-6.31,14.12-14.08-6.33-14.08-14.12-14.08Z"/></g></g></g></svg>