<?xml version="1.0" encoding="UTF-8"?><svg id="Layer_2" xmlns="http://www.w3.org/2000/svg" viewBox="0 0 150.02 149.98"><g id="Layer_2-2"><g id="logo-forme"><g id="moulin-shape"><path d="M104.64,104.07c2.49-.24,6.23-1.36,20.96-16.97,7.47-7.97,13.5-15.06,17.89-20.55,.08-.07,.14-.14,.17-.2,.48-.58,.89-1.12,1.3-1.64,.14-.14,.25-.27,.31-.41h.03c2.97-4.12,4.72-9.17,4.72-14.62V5.18c0-1.7-.61-2.62-1.53-2.62-.58,0-1.31,.37-2.06,1.12l-42.02,41.91c.02-.1,0-.24,0-.34-.24-2.49-1.38-6.17-17.06-20.85-7.96-7.5-15.07-13.49-20.57-17.89-.07-.07-.14-.14-.19-.17-.59-.48-1.13-.89-1.64-1.29-.1-.1-.21-.17-.31-.24v-.03s-.07-.03-.1-.03v-.03C60.41,1.76,55.31,.02,49.88,.02l-.03-.02H5.19C2.39,0,1.7,1.64,3.69,3.61L45.71,45.52s-.07-.02-.11-.02c-.08,0-.16,.02-.23,.02-2.49,.24-6.18,1.33-20.95,16.97-7.69,8.21-13.84,15.5-18.31,21.02-.27,.34-.51,.65-.75,.95-.14,.14-.24,.27-.34,.41-.1,.1-.17,.24-.24,.38-3.04,4.16-4.78,9.23-4.78,14.65v44.54c0,1.7,.62,2.62,1.54,2.62,.58,0,1.3-.37,2.05-1.16l42.47-42.36c1.33,10.9,16.61,21.81,35.12,37.65,.03,.03,.07,.07,.14,.1,0,.07,.07,.1,.14,.17,0,.03,.07,.03,.07,.03,1.24,1.02,2.43,2.08,3.67,3.14,.03,.07,.1,.1,.17,.14,.02,0,.06,.03,.13,.03v.03c1.31,.82,2.74,1.47,4.31,2.04,1.88,.68,3.96,1.23,6.29,1.64,6.22,1.12,14.21,1.47,24.4,1.47,7.05,0,15.15-.14,24.46-.31,2.73-.03,3.39-1.67,1.47-3.58l-42.13-42.02s.07,.02,.11,.02c.08,0,.16-.02,.23-.02Zm40.55,43.25c.24,.24,.39,.43,.48,.58-.17,.04-.42,.08-.76,.08-9.18,.17-17.36,.31-24.44,.31-11.31,0-18.52-.43-24.09-1.44-2.2-.39-4.22-.91-6.01-1.56-1.24-.46-2.27-.92-3.19-1.42v-.73l-1.16-.02-.88-.75c-.71-.61-1.41-1.22-2.12-1.82v-.3l-.81-.4c-2.94-2.52-5.82-4.92-8.55-7.22-13.91-11.62-24.88-20.8-25.91-29.29l-.42-3.47L2.38,144.7c-.25,.26-.45,.42-.6,.52-.04-.18-.07-.43-.07-.78v-44.54c0-4.94,1.54-9.66,4.45-13.65l.08-.12,.08-.16,.06-.08c.06-.08,.11-.15,.19-.23l.07-.07,.06-.08c.25-.32,.48-.61,.74-.93,5.84-7.2,11.98-14.25,18.23-20.93,14.8-15.68,18.07-16.26,19.77-16.43l6.61,2.2L4.89,2.4c-.25-.25-.41-.46-.51-.62,.18-.04,.44-.08,.81-.08H49.85c4.65,0,9.11,1.34,12.95,3.89v.81l1.12,.02c.18,.15,.37,.29,.56,.44,.32,.25,.65,.5,.99,.78l.16,.13,.06,.06c6.85,5.47,13.73,11.46,20.46,17.8,15.76,14.76,16.35,18,16.51,19.68l-2.21,6.59L147.61,4.88c.24-.24,.45-.4,.6-.5,.04,.18,.08,.43,.08,.79V49.71c0,4.63-1.35,9.08-3.9,12.91h-.16l-.51,.94-.07,.07-.05,.04c-.17,.21-.33,.42-.5,.63-.25,.32-.5,.64-.78,.98l-.13,.16-.06,.07c-5.42,6.74-11.41,13.62-17.82,20.45-14.8,15.69-18.07,16.26-19.77,16.43l-6.61-2.2,47.26,47.13Zm-55.05-77.11c-.27-.91-.65-1.83-1.12-2.67-.09-.15-.17-.3-.31-.49-.75-1.28-1.63-2.4-2.63-3.32-2.92-2.87-6.82-4.47-10.96-4.47h-.03c-.74,0-1.54,.06-2.37,.19-.93,.13-1.65,.3-2.32,.54-.83,.23-1.66,.57-2.49,1-.16,.08-.35,.16-.54,.29-1.26,.68-2.38,1.53-3.34,2.52-2.93,2.81-4.64,6.68-4.75,10.85v.39c0,.77,.05,1.43,.15,2.03,.08,.81,.24,1.59,.48,2.33,.26,.91,.6,1.78,.99,2.57,.08,.18,.18,.41,.35,.65,.66,1.18,1.47,2.3,2.42,3.32,2.87,2.99,6.69,4.69,10.78,4.83h0c.26,.05,.47,.05,.65,.05,.85,0,1.57-.05,2.25-.16,.67-.11,1.32-.23,1.99-.42,1.04-.29,2.04-.68,3.03-1.21,.16-.07,.33-.16,.5-.26,1.22-.67,2.37-1.54,3.41-2.58l.5-.5v-.06c2.67-2.91,4.13-6.65,4.13-10.6v-.1c0-.85-.09-1.67-.24-2.5-.08-.56-.24-1.39-.53-2.22Zm-.91,4.82c0,3.85-1.57,7.36-4.13,9.92v.03c-.92,.92-1.95,1.7-3.08,2.32-.1,.07-.24,.14-.34,.17-.89,.48-1.81,.85-2.8,1.12-.58,.17-1.16,.27-1.78,.37-.65,.1-1.3,.14-1.98,.14h-.02c-.17,.01-.3,.01-.48-.02-3.79-.1-7.24-1.74-9.7-4.29-.85-.92-1.61-1.94-2.22-3.07-.1-.14-.17-.27-.24-.44-.38-.75-.68-1.57-.91-2.39-.21-.65-.34-1.33-.41-2.04-.1-.58-.14-1.19-.14-1.81v-.34c.09-3.82,1.71-7.26,4.27-9.71,.89-.92,1.91-1.67,3.01-2.25,.14-.1,.31-.17,.44-.24,.72-.38,1.47-.68,2.22-.89,.65-.24,1.33-.38,2.05-.48,.68-.1,1.4-.17,2.12-.17h.03c3.83,0,7.28,1.53,9.81,4.02,.92,.85,1.71,1.87,2.36,3,.1,.14,.17,.24,.24,.37,.41,.75,.75,1.57,.99,2.39,.24,.65,.38,1.33,.48,2.01,.14,.72,.21,1.43,.21,2.18v.1Z"/><path d="M124.31,85.96c6.41-6.83,12.4-13.71,17.82-20.45l.06-.07,.13-.16c.28-.34,.53-.66,.78-.98,.17-.21,.33-.42,.5-.63l.05-.04,.07-.07,.51-.94h.16c2.55-3.83,3.9-8.28,3.9-12.91V5.17c0-.36-.04-.61-.08-.79-.15,.1-.36,.26-.6,.5l-47.16,47.02,2.21-6.59c-.16-1.68-.75-4.92-16.51-19.68-6.73-6.34-13.61-12.33-20.46-17.8l-.06-.06-.16-.13c-.34-.28-.67-.53-.99-.78-.19-.15-.38-.29-.56-.44l-1.12-.02v-.81c-3.84-2.55-8.3-3.89-12.95-3.89H5.19c-.37,0-.63,.04-.81,.08,.1,.16,.26,.37,.51,.62L52.05,49.42l-6.61-2.2c-1.7,.17-4.97,.75-19.77,16.43-6.25,6.68-12.39,13.73-18.23,20.93-.26,.32-.49,.61-.74,.93l-.06,.08-.07,.07c-.08,.08-.13,.15-.19,.23l-.06,.08-.08,.16-.08,.12c-2.91,3.99-4.45,8.71-4.45,13.65v44.54c0,.35,.03,.6,.07,.78,.15-.1,.35-.26,.6-.52l44.95-44.83,.42,3.47c1.03,8.49,12,17.67,25.91,29.29,2.73,2.3,5.61,4.7,8.55,7.22l.81,.4v.3c.71,.6,1.41,1.21,2.12,1.82l.88,.75,1.16,.02v.73c.92,.5,1.95,.96,3.19,1.42,1.79,.65,3.81,1.17,6.01,1.56,5.57,1.01,12.78,1.44,24.09,1.44,7.08,0,15.26-.14,24.44-.31,.34,0,.59-.04,.76-.08-.09-.15-.24-.34-.48-.58l-47.26-47.13,6.61,2.2c1.7-.17,4.97-.74,19.77-16.43Zm-41.44,2.81c-.17,.1-.34,.19-.5,.26-.99,.53-1.99,.92-3.03,1.21-.67,.19-1.32,.31-1.99,.42-.68,.11-1.4,.16-2.25,.16-.18,0-.39,0-.65-.04h0c-4.09-.15-7.91-1.85-10.78-4.84-.95-1.02-1.76-2.14-2.42-3.32-.17-.24-.27-.47-.35-.65-.39-.79-.73-1.66-.99-2.57-.24-.74-.4-1.52-.48-2.33-.1-.6-.15-1.26-.15-2.03v-.39c.11-4.17,1.82-8.04,4.75-10.85,.96-.99,2.08-1.84,3.34-2.52,.19-.13,.38-.21,.54-.29,.83-.43,1.66-.77,2.49-1,.67-.24,1.39-.41,2.32-.54,.83-.13,1.63-.19,2.37-.19h.03c4.14,0,8.04,1.6,10.96,4.47,1,.92,1.88,2.04,2.63,3.32,.14,.19,.22,.34,.31,.49,.47,.84,.85,1.76,1.12,2.67,.29,.83,.45,1.66,.53,2.22,.15,.83,.24,1.65,.24,2.5v.1c0,3.95-1.46,7.69-4.13,10.6v.06l-.5,.5c-1.04,1.04-2.19,1.91-3.41,2.58Zm10.04-18.04h0Z"/></g></g></g></svg>