<?xml version="1.0" encoding="UTF-8"?><svg xmlns="http://www.w3.org/2000/svg" viewBox="0 0 490.39 370.86"><g id="a"/><g id="b"><g id="c"><g><path d="M360.64,.03c-89.18-1.85-154.2,93.86-120.9,176,10.17,20.09,94.37,163.65,107.29,186.77,6.05,10.48,21.18,10.48,27.23,0,13.43-24.02,96.7-165.89,107.3-186.83C514.79,93.84,449.82-1.84,360.64,.03Zm-.33,193c-84.13-1.44-84.11-126.58,0-128,84.13,1.44,84.11,126.58,0,128Z"/><path d="M79.54,4.03C24.87,2.89-14.98,61.56,5.43,111.91c6.23,12.31,57.84,100.31,65.76,114.48,3.71,6.42,12.98,6.42,16.69,0,8.23-14.72,59.27-101.68,65.77-114.52C174.02,61.53,134.2,2.88,79.54,4.03Zm-.2,118.3c-51.57-.88-51.56-77.58,0-78.46,51.56,.88,51.56,77.58,0,78.46Z"/><path d="M328.5,370.86c-3.69-1.01-7.48-1.98-11.28-2.88l3.23-13.62c3.95,.94,7.91,1.95,11.75,3.01l-3.71,13.5Zm-22.65-5.38c-3.82-.77-7.68-1.48-11.45-2.1l2.29-13.81c3.93,.65,7.94,1.39,11.93,2.19l-2.76,13.72Zm-22.96-3.8c-3.86-.5-7.75-.93-11.55-1.27l1.27-13.94c3.98,.36,8.04,.81,12.08,1.33l-1.79,13.88Zm-58.35-2.02l-.11-14c3.84-.03,7.79-.1,11.73-.21l.4,13.99c-4.05,.12-8.09,.19-12.02,.22Zm-12.05-.04c-4.1-.06-8.17-.18-12.07-.35l.6-13.99c3.78,.16,7.72,.27,11.7,.34l-.22,14Zm47.28-.02c-3.89-.2-7.78-.31-11.57-.33l.09-14c4,.03,8.09,.14,12.18,.35l-.7,13.98Zm-71.45-1.03c-4.17-.31-8.25-.7-12.11-1.14l1.6-13.91c3.68,.42,7.57,.79,11.56,1.09l-1.04,13.96Zm-24.24-2.83c-4.26-.71-8.34-1.53-12.12-2.42l3.23-13.62c3.47,.82,7.24,1.58,11.19,2.23l-2.3,13.81Zm-24.2-5.88c-4.38-1.5-8.39-3.2-11.91-5.05l6.51-12.4c2.9,1.52,6.25,2.94,9.95,4.21l-4.54,13.24Zm-23.17-12.8c-3.87-3.57-6.76-7.61-8.58-12l12.93-5.37c1.04,2.51,2.77,4.89,5.14,7.08l-9.49,10.29Zm3.11-25.75l-13.96-1.05c.24-3.16,.9-6.47,1.98-9.84,.42-1.3,.89-2.59,1.41-3.83l12.9,5.43c-.36,.85-.69,1.74-.97,2.65-.74,2.33-1.2,4.57-1.36,6.65Zm7.36-17.16l-10.28-9.5c3.06-3.31,6.77-6.2,11.04-8.59l6.84,12.21c-3.02,1.69-5.51,3.62-7.6,5.88Zm17.17-9.87l-4.11-13.38c3.78-1.16,7.85-2.11,12.45-2.9l2.37,13.8c-4,.69-7.5,1.5-10.7,2.48Zm22-3.96l-1.38-13.93c4-.4,7.98-.7,12.03-.99l1.02,13.96c-3.96,.29-7.84,.58-11.68,.96Zm23.72-1.93l-1.37-13.93c4.6-.45,8.06-.97,10.87-1.62l3.15,13.64c-3.42,.79-7.44,1.4-12.65,1.91Zm26.55-8.51l-9.64-10.15c.61-.58,.89-1.15,1-2.02,.1-.79,.14-1.55,.14-2.25,0-.34-.01-.68-.04-1.01l13.96-1.02c.05,.66,.07,1.34,.07,2.02,0,1.26-.08,2.58-.24,3.92-.5,4.13-2.27,7.66-5.26,10.5Zm-11.23-21.12c-1.72-1.55-4.37-2.93-7.89-4.1l4.42-13.28c5.44,1.81,9.65,4.1,12.85,7l-9.38,10.39Zm-18.4-6.6c-3.29-.56-7.09-1.06-11.28-1.47l1.37-13.93c4.58,.45,8.59,.98,12.27,1.6l-2.36,13.8Zm-22.85-2.37c-3.6-.21-7.42-.39-11.7-.55l.51-13.99c4.39,.16,8.32,.34,12.03,.56l-.83,13.97Zm-23.48-.88c-3.77-.08-7.71-.15-11.81-.2l.17-14c4.15,.05,8.13,.11,11.94,.2l-.3,14Zm-23.65-.3c-3.82-.02-7.77-.04-11.85-.05l.04-14c4.1,.01,8.06,.03,11.91,.05l-.09,14Z"/></g></g></g></svg>