<?xml version="1.0" encoding="UTF-8"?><svg id="Layer_2" xmlns="http://www.w3.org/2000/svg" viewBox="0 0 175.66 175.8"><g id="Layer_1-2"><g><path d="M122.02,45.19h-35.06v32.41c4.33,5.16,15.94-4.93,18.56,8.36h-18.65v33.53h16.24q1.82,6.95-16.3,8.54v29.28c6.12-2.75,11.78-5.29,17.74-7.97v11.71c-31.95,11.8-72.29-3.61-91.92-34.9C-8.11,93.09-2.88,50.13,25.19,23.17,53.4-3.94,96.44-7.68,128.57,14.17c30.54,20.78,44.49,61.5,31.66,93.27-10.01-5.22-1.41-13.45-4.05-21.24-3.74,0-8.25,.04-12.75,0-9.76-.1-15.01-5.05-16.55-14.88-1.34-8.59-3.16-17.11-4.86-26.12Zm-79.4,.22c-1.88,10.93-3.72,21.67-5.59,32.56h41.19V45.41H42.62Zm35.62,41.31H36.69c1.95,10.1,3.62,19.46,5.69,28.73,.37,1.66,2.43,4.16,3.77,4.2,10.72,.35,21.46,.19,32.09,.19v-33.13Zm-49-8.45c1.87-11.2,3.67-21.96,5.47-32.77-18.92-.62-16.95-4.73-24.05,16.1-1.75,5.14-2.25,10.7-3.45,16.67H29.24Zm127.74,.05c-2.1-29.19-7.41-35.38-26.93-32.51,1.89,10.84,3.79,21.68,5.68,32.51h21.25ZM7.93,86.54c1.66,28.26,7.41,35.09,26.81,32.69-1.86-10.84-3.71-21.68-5.59-32.69H7.93ZM78.27,7.91c-16.22,3.87-24.5,14.92-31.2,28.94h31.2V7.91Zm-.13,148.99v-28.73h-31.3c7.25,13.86,15.24,25.08,31.3,28.73ZM86.77,8.07v28.66h31.11c-7.01-13.92-15.04-25.09-31.11-28.66Zm28.98,6.07l-1.66,2.08c2.67,4.2,5.52,8.31,7.97,12.63,5.82,10.26,6.99,10.77,20.25,6.34-9.38-7.43-17.97-14.24-26.56-21.05ZM23.36,34.64q16.47,3.81,25.61-20.43c-8.54,6.81-17.08,13.62-25.61,20.43Zm-1.9,93.94c10.36,8.33,18.95,15.22,27.53,22.11l1.68-1.77c-2.57-4.05-6.12-7.79-7.53-12.21-3.27-10.25-10.29-10.31-21.68-8.14Z"/><path d="M132.92,151.66c-3.94,5.11-6.18,9.03-9.38,11.89-3.75,3.34-7.23,2.54-7.27-3.18-.15-22.74-.15-45.48-.02-68.22,.03-5.75,2.93-7.81,7.54-3.55,16.73,15.4,33.27,31,49.78,46.64,1.18,1.12,2.5,3.98,1.98,4.64-1.14,1.44-3.35,2.6-5.22,2.76-4.59,.38-9.23,.12-15.43,.12,2.74,6.09,4.53,11.35,7.32,16.01,4.2,7.02,1.98,10.84-5.15,13.15-1.77,.57-3.52,1.33-5.1,2.29-5.47,3.32-8.45,1.25-10.58-4.2-2.03-5.19-4.65-10.16-8.46-18.34Zm28.52-17.65c-12.44-11.65-24.27-22.73-37.25-34.88v52.72c2.04-1.71,3.16-2.59,4.23-3.55,7.33-6.59,8.18-6.44,12.36,2.36,2.52,5.31,5.02,10.63,7.76,16.44,2.6-1.19,4.72-2.16,7.27-3.32-1.61-3.81-2.97-7.24-4.51-10.6q-7.34-16.09,10.13-19.16Z"/></g></g></svg>