<?xml version="1.0" encoding="UTF-8"?><svg id="Layer_2" xmlns="http://www.w3.org/2000/svg" viewBox="0 0 123 143.5"><defs><style>.cls-1{fill:#fff;}</style></defs><g id="Layer_1-2"><g><path d="M123,13.67V109.33c0,7.52-6.15,13.67-13.67,13.67h-27.33l-20.5,20.5-20.5-20.5H13.67c-7.59,0-13.67-6.15-13.67-13.67V13.67C0,6.15,6.08,0,13.67,0H109.33c7.52,0,13.67,6.15,13.67,13.67Z"/><path class="cls-1" d="M81.84,73.91v12.96H42.96v-12.96h12.78v-22.95c-.54,.72-1.38,1.44-2.52,2.16-1.14,.72-2.42,1.41-3.83,2.07-1.41,.66-2.85,1.19-4.32,1.58-1.47,.39-2.78,.58-3.92,.58v-13.32c1.02,0,2.28-.31,3.78-.95,1.5-.63,3.02-1.44,4.54-2.43,1.53-.99,2.88-1.95,4.05-2.88,1.17-.93,1.9-1.69,2.21-2.29h14.67v38.43h11.43Z"/></g></g></svg>