<?xml version="1.0" encoding="UTF-8"?><svg id="Layer_2" xmlns="http://www.w3.org/2000/svg" viewBox="0 0 75.38 87.95"><defs><style>.cls-1{fill:#fff;}.cls-2{fill:#1e3734;}</style></defs><g id="Layer_1-2"><g><path class="cls-2" d="M75.38,8.38v58.63c0,4.61-3.77,8.38-8.38,8.38h-16.75l-12.56,12.56-12.56-12.56H8.38c-4.65,0-8.38-3.77-8.38-8.38V8.38C0,3.77,3.73,0,8.38,0h58.63c4.61,0,8.38,3.77,8.38,8.38Z"/><path class="cls-1" d="M50.16,45.29v7.94H26.33v-7.94h7.83v-14.07c-.33,.44-.85,.88-1.54,1.32-.7,.44-1.48,.86-2.34,1.27-.86,.41-1.75,.73-2.65,.97-.9,.24-1.7,.36-2.4,.36v-8.16c.62,0,1.4-.19,2.32-.58,.92-.39,1.85-.88,2.79-1.49,.94-.61,1.76-1.19,2.48-1.77,.72-.57,1.17-1.04,1.35-1.41h8.99v23.55h7.01Z"/></g></g></svg>