<?xml version="1.0" encoding="UTF-8"?><svg id="Layer_2" xmlns="http://www.w3.org/2000/svg" viewBox="0 0 123 143.5"><defs><style>.cls-1{fill:#fff;}</style></defs><g id="Layer_1-2"><g><path d="M123,13.67V109.33c0,7.52-6.15,13.67-13.67,13.67h-27.33l-20.5,20.5-20.5-20.5H13.67c-7.59,0-13.67-6.15-13.67-13.67V13.67C0,6.15,6.08,0,13.67,0H109.33c7.52,0,13.67,6.15,13.67,13.67Z"/><path class="cls-1" d="M40.53,87.63c0-2.85,.23-5.4,.68-7.65,.45-2.25,1.2-4.31,2.25-6.19,1.05-1.88,2.46-3.63,4.23-5.24,1.77-1.61,4-3.08,6.7-4.42,2.82-1.58,5.18-2.9,7.07-3.96,1.89-1.06,3.39-1.97,4.5-2.73,1.11-.76,1.9-1.47,2.38-2.14,.48-.67,.72-1.43,.72-2.28,0-1.18-.27-2.2-.81-3.04s-1.32-1.51-2.34-2.01c-1.02-.5-2.28-.75-3.78-.75-1.2,0-2.34,.15-3.42,.45-1.08,.3-2.12,.75-3.1,1.35-.99,.6-1.95,1.3-2.88,2.11-.93,.81-1.79,1.73-2.57,2.75l-9.18-10.62c1.02-1.08,2.31-2.11,3.87-3.1,1.56-.99,3.38-1.89,5.44-2.7,2.07-.81,4.3-1.47,6.71-1.98,2.4-.51,4.95-.77,7.65-.77,4.32,0,7.96,.65,10.94,1.96,2.97,1.3,5.23,3.14,6.79,5.51,1.56,2.37,2.34,5.19,2.34,8.47,0,2.02-.31,3.82-.94,5.41s-1.46,2.98-2.48,4.17c-1.02,1.19-2.16,2.28-3.42,3.25-1.26,.98-2.55,1.86-3.87,2.66-1.44,.73-2.78,1.45-4,2.15-1.23,.7-2.4,1.38-3.51,2.02-1.11,.64-2.13,1.33-3.06,2.06-.93,.73-1.82,1.5-2.66,2.29h24.93v12.96H40.53Z"/></g></g></svg>