<?xml version="1.0" encoding="UTF-8"?><svg id="Layer_2" xmlns="http://www.w3.org/2000/svg" viewBox="0 0 75.38 87.95"><defs><style>.cls-1{fill:#fff;}.cls-2{fill:#1e3734;}</style></defs><g id="Layer_1-2"><g><path class="cls-2" d="M75.38,8.38v58.63c0,4.61-3.77,8.38-8.38,8.38h-16.75l-12.56,12.56-12.56-12.56H8.38c-4.65,0-8.38-3.77-8.38-8.38V8.38C0,3.77,3.73,0,8.38,0h58.63c4.61,0,8.38,3.77,8.38,8.38Z"/><path class="cls-1" d="M24.84,53.71c0-1.75,.14-3.31,.41-4.69,.28-1.38,.73-2.64,1.38-3.8,.64-1.15,1.51-2.22,2.59-3.21,1.08-.99,2.45-1.89,4.11-2.71,1.73-.97,3.17-1.78,4.33-2.43,1.16-.65,2.08-1.21,2.76-1.67,.68-.47,1.17-.9,1.46-1.31,.29-.41,.44-.87,.44-1.4,0-.73-.17-1.35-.5-1.86s-.81-.93-1.43-1.23c-.63-.3-1.4-.46-2.32-.46-.74,0-1.43,.09-2.1,.28-.66,.18-1.3,.46-1.9,.83-.61,.37-1.2,.8-1.76,1.3-.57,.5-1.09,1.06-1.57,1.68l-5.63-6.51c.62-.66,1.42-1.3,2.37-1.9,.96-.61,2.07-1.16,3.34-1.65,1.27-.5,2.64-.9,4.11-1.21,1.47-.31,3.03-.47,4.69-.47,2.65,0,4.88,.4,6.7,1.2,1.82,.8,3.21,1.93,4.16,3.38,.96,1.45,1.43,3.18,1.43,5.19,0,1.24-.19,2.34-.58,3.32s-.89,1.83-1.52,2.56c-.63,.73-1.32,1.4-2.1,1.99-.77,.6-1.56,1.14-2.37,1.63-.88,.45-1.7,.89-2.45,1.32-.75,.43-1.47,.84-2.15,1.24-.68,.39-1.31,.81-1.88,1.26-.57,.45-1.11,.92-1.63,1.4h15.28v7.94H24.84Z"/></g></g></svg>