<?xml version="1.0" encoding="UTF-8"?><svg id="Layer_2" xmlns="http://www.w3.org/2000/svg" viewBox="0 0 123 143.5"><defs><style>.cls-1{fill:#fff;}</style></defs><g id="Layer_1-2"><g><path d="M123,13.67V109.33c0,7.52-6.15,13.67-13.67,13.67h-27.33l-20.5,20.5-20.5-20.5H13.67c-7.59,0-13.67-6.15-13.67-13.67V13.67C0,6.15,6.08,0,13.67,0H109.33c7.52,0,13.67,6.15,13.67,13.67Z"/><path class="cls-1" d="M71.85,59.06c2.46,.43,4.64,1.4,6.52,2.93,1.89,1.53,3.36,3.45,4.41,5.77,1.05,2.32,1.58,4.92,1.58,7.79,0,3.79-.99,7.07-2.97,9.85-1.98,2.78-4.8,4.95-8.46,6.51-3.66,1.56-8.01,2.34-13.05,2.34-4.5,0-8.54-.67-12.11-2.02-3.57-1.35-6.61-3.32-9.13-5.9l7.74-10.44c1.56,1.68,3.39,2.96,5.49,3.82,2.1,.87,4.59,1.31,7.47,1.31,3.36,0,5.88-.62,7.56-1.87,1.68-1.25,2.52-3.18,2.52-5.81,0-2.87-1.01-5.01-3.01-6.41-2.01-1.41-5.18-2.11-9.5-2.11h-2.61v-10.35h2.88c3.3,0,5.91-.73,7.83-2.19,1.92-1.46,2.88-3.36,2.88-5.72,0-1.3-.31-2.42-.94-3.35-.63-.93-1.5-1.63-2.61-2.09-1.11-.46-2.45-.7-4-.7-2.46,0-4.71,.57-6.75,1.71-2.04,1.14-3.75,2.82-5.13,5.04l-9-10.35c1.32-1.8,3.13-3.34,5.44-4.64,2.31-1.29,4.95-2.29,7.92-3.01,2.97-.72,6.01-1.08,9.14-1.08,4.2,0,7.92,.67,11.16,2.01,3.24,1.34,5.76,3.23,7.56,5.66,1.8,2.44,2.7,5.24,2.7,8.4,0,2.38-.5,4.64-1.48,6.81-.99,2.16-2.36,3.96-4.1,5.39-1.74,1.43-3.72,2.33-5.94,2.69Z"/></g></g></svg>