<?xml version="1.0" encoding="UTF-8"?><svg id="Layer_2" xmlns="http://www.w3.org/2000/svg" viewBox="0 0 75.38 87.95"><defs><style>.cls-1{fill:#fff;}.cls-2{fill:#1e3734;}</style></defs><g id="Layer_1-2"><g><path class="cls-2" d="M75.38,8.38v58.63c0,4.61-3.77,8.38-8.38,8.38h-16.75l-12.56,12.56-12.56-12.56H8.38c-4.65,0-8.38-3.77-8.38-8.38V8.38C0,3.77,3.73,0,8.38,0h58.63c4.61,0,8.38,3.77,8.38,8.38Z"/><path class="cls-1" d="M44.03,36.19c1.51,.26,2.84,.86,4,1.8,1.16,.94,2.06,2.12,2.7,3.54,.64,1.42,.97,3.01,.97,4.77,0,2.32-.61,4.33-1.82,6.04-1.21,1.7-2.94,3.03-5.18,3.99-2.24,.96-4.91,1.43-8,1.43-2.76,0-5.23-.41-7.42-1.24-2.19-.83-4.05-2.03-5.6-3.61l4.74-6.4c.96,1.03,2.08,1.81,3.36,2.34,1.29,.53,2.81,.8,4.58,.8,2.06,0,3.6-.38,4.63-1.15,1.03-.77,1.54-1.95,1.54-3.56,0-1.76-.62-3.07-1.85-3.93-1.23-.86-3.17-1.29-5.82-1.29h-1.6v-6.34h1.76c2.02,0,3.62-.45,4.8-1.34,1.18-.89,1.76-2.06,1.76-3.5,0-.8-.19-1.48-.58-2.05-.39-.57-.92-1-1.6-1.28-.68-.28-1.5-.43-2.45-.43-1.51,0-2.89,.35-4.14,1.05-1.25,.7-2.3,1.73-3.14,3.09l-5.52-6.34c.81-1.1,1.92-2.05,3.34-2.84,1.42-.79,3.03-1.41,4.85-1.85,1.82-.44,3.69-.66,5.6-.66,2.57,0,4.85,.41,6.84,1.23,1.99,.82,3.53,1.98,4.63,3.47,1.1,1.49,1.65,3.21,1.65,5.15,0,1.46-.3,2.85-.91,4.17-.61,1.32-1.44,2.43-2.51,3.3-1.07,.88-2.28,1.43-3.64,1.65Z"/></g></g></svg>