<?xml version="1.0" encoding="UTF-8"?><svg id="Layer_2" xmlns="http://www.w3.org/2000/svg" viewBox="0 0 123 143.5"><defs><style>.cls-1{fill:#fff;}</style></defs><g id="Layer_1-2"><g><path d="M123,13.67V109.33c0,7.52-6.15,13.67-13.67,13.67h-27.33l-20.5,20.5-20.5-20.5H13.67c-7.59,0-13.67-6.15-13.67-13.67V13.67C0,6.15,6.08,0,13.67,0H109.33c7.52,0,13.67,6.15,13.67,13.67Z"/><path class="cls-1" d="M60.96,93.57c-4.74,0-8.96-.93-12.65-2.79-3.69-1.86-6.56-4.47-8.59-7.83l8.1-8.91c1.74,2.16,3.78,3.86,6.12,5.08s4.68,1.85,7.02,1.85c1.92,0,3.57-.38,4.95-1.12,1.38-.75,2.44-1.8,3.2-3.15,.75-1.35,1.12-2.86,1.12-4.54,0-1.8-.36-3.34-1.08-4.64-.72-1.29-1.71-2.29-2.97-3.02-1.26-.72-2.7-1.08-4.32-1.08s-3.21,.39-4.59,1.17c-1.38,.78-2.52,1.8-3.42,3.06h-12.42l7.56-38.88h31.68v13.14h-21.33l-1.89,10.89c.42-.42,1.16-.79,2.21-1.12,1.05-.33,2.48-.5,4.28-.5,4.08,0,7.71,.87,10.89,2.61,3.18,1.74,5.67,4.16,7.47,7.25,1.8,3.09,2.7,6.71,2.7,10.85s-1.03,8.03-3.1,11.29-4.91,5.82-8.5,7.65c-3.6,1.83-7.74,2.75-12.42,2.75Z"/></g></g></svg>