<?xml version="1.0" encoding="UTF-8"?><svg id="Layer_2" xmlns="http://www.w3.org/2000/svg" viewBox="0 0 75.38 87.95"><defs><style>.cls-1{fill:#fff;}.cls-2{fill:#1e3734;}</style></defs><g id="Layer_1-2"><g><path class="cls-2" d="M75.38,8.38v58.63c0,4.61-3.77,8.38-8.38,8.38h-16.75l-12.56,12.56-12.56-12.56H8.38c-4.65,0-8.38-3.77-8.38-8.38V8.38C0,3.77,3.73,0,8.38,0h58.63c4.61,0,8.38,3.77,8.38,8.38Z"/><path class="cls-1" d="M37.36,57.35c-2.91,0-5.49-.57-7.75-1.71-2.26-1.14-4.02-2.74-5.27-4.8l4.96-5.46c1.07,1.32,2.32,2.36,3.75,3.12s2.87,1.13,4.3,1.13c1.18,0,2.19-.23,3.03-.69,.85-.46,1.5-1.1,1.96-1.93,.46-.83,.69-1.76,.69-2.79,0-1.1-.22-2.05-.66-2.84-.44-.79-1.05-1.41-1.82-1.85-.77-.44-1.65-.66-2.65-.66s-1.97,.24-2.81,.72c-.85,.48-1.54,1.1-2.1,1.88h-7.61l4.63-23.83h19.42v8.05h-13.07l-1.16,6.67c.26-.26,.71-.49,1.35-.69,.64-.2,1.52-.3,2.62-.3,2.5,0,4.72,.53,6.67,1.6,1.95,1.07,3.47,2.55,4.58,4.44,1.1,1.89,1.65,4.11,1.65,6.65s-.63,4.92-1.9,6.92-3.01,3.57-5.21,4.69c-2.21,1.12-4.74,1.68-7.61,1.68Z"/></g></g></svg>