<?xml version="1.0" encoding="UTF-8"?><svg id="Layer_2" xmlns="http://www.w3.org/2000/svg" viewBox="0 0 123 143.5"><defs><style>.cls-1{fill:#fff;}</style></defs><g id="Layer_1-2"><g><path d="M123,13.67V109.33c0,7.52-6.15,13.67-13.67,13.67h-27.33l-20.5,20.5-20.5-20.5H13.67c-7.59,0-13.67-6.15-13.67-13.67V13.67C0,6.15,6.08,0,13.67,0H109.33c7.52,0,13.67,6.15,13.67,13.67Z"/><path class="cls-1" d="M82.06,82.77c-2.07,3.42-4.88,6.12-8.42,8.1-3.54,1.98-7.56,2.97-12.06,2.97-4.98,0-9.24-1.2-12.78-3.6-3.54-2.4-6.25-5.86-8.14-10.4-1.89-4.53-2.83-9.97-2.83-16.33,0-7.44,1.02-13.77,3.06-18.99,2.04-5.22,4.93-9.19,8.69-11.93,3.75-2.73,8.23-4.09,13.45-4.09,3.9,0,7.56,.81,10.98,2.43,3.42,1.62,6.42,3.96,9,7.02l-8.1,9.09c-1.5-1.92-3.3-3.4-5.4-4.46-2.1-1.05-4.35-1.58-6.75-1.58s-4.37,.57-6.08,1.71c-1.71,1.14-3.05,2.79-4,4.95-.96,2.16-1.5,4.8-1.62,7.92,.84-1.2,1.84-2.17,3.02-2.92,1.17-.75,2.49-1.33,3.96-1.75,1.47-.42,3.04-.63,4.72-.63,4.32,0,8.16,.95,11.52,2.83,3.36,1.89,6.01,4.41,7.97,7.56,1.95,3.15,2.92,6.74,2.92,10.76s-1.04,7.92-3.11,11.34Zm-15.52-2.39c1.5-.93,2.68-2.19,3.55-3.78,.87-1.59,1.3-3.29,1.3-5.08s-.44-3.52-1.3-5c-.87-1.47-2.06-2.65-3.55-3.56-1.5-.9-3.18-1.35-5.04-1.35-1.74,0-3.36,.45-4.86,1.35-1.5,.9-2.7,2.09-3.6,3.56-.9,1.47-1.35,3.14-1.35,5s.45,3.48,1.35,5.04c.9,1.56,2.11,2.82,3.64,3.78,1.53,.96,3.2,1.44,5,1.44s3.36-.46,4.86-1.4Z"/></g></g></svg>