<?xml version="1.0" encoding="UTF-8"?><svg id="Layer_2" xmlns="http://www.w3.org/2000/svg" viewBox="0 0 123 143.5"><defs><style>.cls-1{fill:#fff;}</style></defs><g id="Layer_1-2"><g><path d="M123,13.67V109.33c0,7.52-6.15,13.67-13.67,13.67h-27.33l-20.5,20.5-20.5-20.5H13.67c-7.59,0-13.67-6.15-13.67-13.67V13.67C0,6.15,6.08,0,13.67,0H109.33c7.52,0,13.67,6.15,13.67,13.67Z"/><path class="cls-1" d="M85.12,73.36c0,4.03-1.07,7.57-3.19,10.6-2.13,3.04-5,5.4-8.6,7.08-3.6,1.68-7.56,2.53-11.88,2.53s-8.19-.86-11.79-2.57c-3.6-1.71-6.47-4.14-8.59-7.26-2.13-3.13-3.2-6.74-3.2-10.83,0-2.35,.45-4.44,1.35-6.27,.9-1.83,2.04-3.43,3.42-4.78,1.38-1.35,2.79-2.48,4.23-3.38-1.38-.72-2.6-1.67-3.64-2.83-1.05-1.17-1.91-2.49-2.57-3.96-.66-1.47-.99-2.98-.99-4.54,0-2.94,.67-5.56,2.02-7.88,1.35-2.31,3.11-4.23,5.26-5.76,2.16-1.53,4.5-2.7,7.02-3.51,2.52-.81,5.01-1.21,7.47-1.21s4.96,.4,7.52,1.21c2.55,.81,4.92,1.98,7.11,3.51,2.19,1.53,3.94,3.42,5.27,5.67,1.32,2.25,1.98,4.85,1.98,7.78,0,1.56-.31,3.09-.95,4.59-.63,1.5-1.5,2.87-2.61,4.09-1.11,1.23-2.33,2.18-3.65,2.83,1.44,.96,2.85,2.14,4.23,3.52,1.38,1.38,2.52,3.02,3.42,4.92,.9,1.9,1.35,4.05,1.35,6.45Zm-14.58-.89c0-1.27-.26-2.4-.76-3.39-.51-1-1.2-1.84-2.07-2.53-.87-.69-1.83-1.22-2.88-1.58-1.05-.36-2.17-.54-3.38-.54-1.68,0-3.19,.35-4.54,1.04-1.35,.69-2.43,1.65-3.24,2.85-.81,1.21-1.21,2.62-1.21,4.25,0,1.15,.25,2.22,.77,3.21,.51,1,1.18,1.86,2.02,2.58,.84,.72,1.8,1.27,2.88,1.63,1.08,.36,2.19,.54,3.33,.54,1.68,0,3.2-.35,4.54-1.04,1.35-.69,2.44-1.64,3.29-2.85,.84-1.21,1.26-2.59,1.26-4.16Zm-16.11-25.06c0,1.44,.34,2.63,1.04,3.56,.69,.93,1.59,1.62,2.7,2.07s2.24,.67,3.38,.67c1.08,0,2.16-.24,3.24-.72,1.08-.48,1.99-1.18,2.75-2.12,.75-.93,1.12-2.11,1.12-3.55,0-1.14-.33-2.14-.99-3.02-.66-.87-1.52-1.56-2.56-2.07-1.05-.51-2.27-.77-3.65-.77s-2.51,.27-3.55,.81c-1.05,.54-1.89,1.25-2.52,2.11-.63,.87-.94,1.88-.94,3.02Z"/></g></g></svg>