<svg width="32" height="32" viewBox="0 0 32 32" fill="none" xmlns="http://www.w3.org/2000/svg" alt="" class="cmp-icon__image"><path d="M10.876 25.3238C10.8761 25.4126 10.8585 25.5005 10.8244 25.5825C10.7902 25.6645 10.7401 25.739 10.677 25.8018C10.6138 25.8645 10.5388 25.9143 10.4562 25.9482C10.3737 25.9821 10.2852 25.9995 10.1958 25.9995H7.30229C7.21295 25.9995 7.12447 25.9821 7.04192 25.9482C6.95936 25.9143 6.88435 25.8645 6.82118 25.8018C6.758 25.739 6.70791 25.6645 6.67376 25.5825C6.63961 25.5005 6.62208 25.4126 6.62217 25.3238V13.2728C6.62217 13.1841 6.63977 13.0963 6.67396 13.0143C6.70814 12.9324 6.75825 12.858 6.82142 12.7953C6.88458 12.7326 6.95956 12.6829 7.04207 12.649C7.12459 12.6151 7.21301 12.5978 7.30229 12.5978H10.1958C10.2851 12.5978 10.3736 12.6151 10.4561 12.649C10.5386 12.6829 10.6136 12.7326 10.6767 12.7953C10.7399 12.858 10.79 12.9324 10.8242 13.0143C10.8584 13.0963 10.876 13.1841 10.876 13.2728V25.3238ZM8.74907 11.4615C8.2052 11.4616 7.67351 11.3015 7.22125 11.0015C6.76898 10.7014 6.41646 10.2748 6.20827 9.7757C6.00008 9.27658 5.94557 8.72734 6.05164 8.19745C6.15771 7.66755 6.41959 7.18081 6.80417 6.79878C7.18874 6.41675 7.67872 6.1566 8.21215 6.05123C8.74557 5.94586 9.29847 6.00001 9.80091 6.20682C10.3034 6.41364 10.7328 6.76383 11.0348 7.2131C11.3369 7.66237 11.4981 8.19055 11.4979 8.73082C11.4978 9.45499 11.2081 10.1494 10.6926 10.6615C10.1771 11.1736 9.47806 11.4613 8.74907 11.4615ZM25.9995 25.3782C25.9995 25.543 25.9336 25.701 25.8164 25.8175C25.6991 25.934 25.54 25.9995 25.3742 25.9995H22.269C22.1031 25.9995 21.9441 25.934 21.8268 25.8175C21.7095 25.701 21.6436 25.543 21.6436 25.3782V19.7261C21.6436 18.8826 21.8931 16.0324 19.4255 16.0324C17.5115 16.0324 17.1269 17.9847 17.0457 18.8604V25.3802C17.0457 25.545 16.9798 25.703 16.8626 25.8195C16.7453 25.936 16.5862 26.0015 16.4204 26.0015H13.4173C13.2514 26.0015 13.0924 25.936 12.9751 25.8195C12.8578 25.703 12.7919 25.545 12.7919 25.3802V13.2184C12.7921 13.0537 12.8581 12.8959 12.9753 12.7796C13.0926 12.6632 13.2516 12.5978 13.4173 12.5978H16.4204C16.5861 12.5978 16.7451 12.6632 16.8623 12.7796C16.9796 12.8959 17.0455 13.0537 17.0457 13.2184V14.2701C17.7549 13.2117 18.8096 12.3957 21.0555 12.3957C26.0279 12.3957 25.9995 17.0102 25.9995 19.5461V25.3782Z" fill="#111111"></path></svg>