<?xml version="1.0" encoding="UTF-8"?><svg xmlns="http://www.w3.org/2000/svg" viewBox="0 0 356.58 356.08"><defs><style>.d{fill:#9cc;}.e{fill:#fcf4d9;}.f{fill:#399;}</style></defs><g id="a"/><g id="b"><g id="c"><g><g><polygon class="f" points="178 178 0 178 89 89 178 178"/><polygon class="d" points="178.08 178 0 356.08 0 178 178.08 178"/></g><g><polygon class="f" points="178.5 177.58 178.5 355.58 89.5 266.58 178.5 177.58"/><polygon class="d" points="178.5 177.5 356.58 355.58 178.5 355.58 178.5 177.5"/></g><g><polygon class="f" points="178.08 178.08 356.08 178.08 267.08 267.08 178.08 178.08"/><polygon class="d" points="178 178.08 356.08 0 356.08 178.08 178 178.08"/></g><g><polygon class="f" points="178.58 178.5 178.58 .5 267.58 89.5 178.58 178.5"/><polygon class="d" points="178.58 178.58 .5 .5 178.58 .5 178.58 178.58"/></g><rect class="e" x="140" y="139" width="78" height="78" rx="39" ry="39"/></g></g></g></svg>