<?xml version="1.0" encoding="utf-8"?>
<!-- Generator: Adobe Illustrator 26.3.1, SVG Export Plug-In . SVG Version: 6.00 Build 0)  -->
<svg version="1.1" id="a" xmlns="http://www.w3.org/2000/svg" xmlns:xlink="http://www.w3.org/1999/xlink" x="0px" y="0px"
	 viewBox="0 0 356.6 356.1" style="enable-background:new 0 0 356.6 356.1;" xml:space="preserve">
<style type="text/css">
	.st0{fill:#DB2D43;}
	.st1{fill:#EF4864;}
	.st2{fill:#FCF4D9;}
</style>
<g>
	<polygon class="st0" points="178,178 0,178 89,89 	"/>
	<polygon class="st1" points="178.1,178 0,356.1 0,178 	"/>
</g>
<g>
	<polygon class="st0" points="178.5,177.6 178.5,355.6 89.5,266.6 	"/>
	<polygon class="st1" points="178.5,177.5 356.6,355.6 178.5,355.6 	"/>
</g>
<g>
	<polygon class="st0" points="178.1,178.1 356.1,178.1 267.1,267.1 	"/>
	<polygon class="st1" points="178,178.1 356.1,0 356.1,178.1 	"/>
</g>
<g>
	<polygon class="st0" points="178.6,178.5 178.6,0.5 267.6,89.5 	"/>
	<polygon class="st1" points="178.6,178.6 0.5,0.5 178.6,0.5 	"/>
</g>
<path class="st2" d="M179,139L179,139c21.5,0,39,17.5,39,39l0,0c0,21.5-17.5,39-39,39l0,0c-21.5,0-39-17.5-39-39l0,0
	C140,156.5,157.5,139,179,139z"/>
</svg>
