<svg width="32" height="32" viewBox="0 0 32 32" fill="none" xmlns="http://www.w3.org/2000/svg" alt="" class="cmp-icon__image"><path fill-rule="evenodd" clip-rule="evenodd" d="M5.95273 11.6354C5.95273 8.50823 8.5082 5.95276 11.6354 5.95276H19.8564C22.9836 5.95276 25.539 8.50823 25.539 11.6354V19.8564C25.539 22.9836 22.9836 25.5391 19.8564 25.5391H11.6354C8.5082 25.5391 5.95273 22.9836 5.95273 19.8564V11.6354ZM11.6354 7.45276C9.33663 7.45276 7.45273 9.33666 7.45273 11.6354V19.8564C7.45273 22.1552 9.33663 24.0391 11.6354 24.0391H19.8564C22.1551 24.0391 24.039 22.1552 24.039 19.8564V11.6354C24.039 9.33666 22.1551 7.45276 19.8564 7.45276H11.6354ZM15.746 18.7675C17.4147 18.7675 18.7676 17.4147 18.7676 15.7459C18.7676 14.0772 17.4147 12.7243 15.746 12.7243C14.0772 12.7243 12.7244 14.0772 12.7244 15.7459C12.7244 17.4147 14.0772 18.7675 15.746 18.7675ZM15.746 20.2675C18.2432 20.2675 20.2676 18.2431 20.2676 15.7459C20.2676 13.2487 18.2432 11.2243 15.746 11.2243C13.2488 11.2243 11.2244 13.2487 11.2244 15.7459C11.2244 18.2431 13.2488 20.2675 15.746 20.2675ZM20.2673 11.2243C20.7667 11.2243 21.1716 10.8195 21.1716 10.32C21.1716 9.82058 20.7667 9.4157 20.2673 9.4157C19.7678 9.4157 19.3629 9.82058 19.3629 10.32C19.3629 10.8195 19.7678 11.2243 20.2673 11.2243Z" fill="#111111"></path></svg>