<svg width="32" height="32" viewBox="0 0 32 32" fill="none" xmlns="http://www.w3.org/2000/svg" alt="" class="cmp-icon__image"><path d="M26 9.89423C25.7266 10.2981 25.4173 10.6747 25.0723 11.024C24.7272 11.3734 24.3529 11.6923 23.9492 11.9808C23.9557 12.0705 23.9606 12.1587 23.9639 12.2452C23.9671 12.3317 23.9688 12.4199 23.9688 12.5096C23.9688 13.3173 23.8809 14.1154 23.7051 14.9038C23.5293 15.6923 23.2754 16.4551 22.9434 17.1923C22.4616 18.2628 21.8594 19.2196 21.1367 20.0625C20.4141 20.9054 19.5954 21.6186 18.6807 22.2019C17.766 22.7853 16.7682 23.2308 15.6875 23.5385C14.6068 23.8462 13.474 24 12.2891 24C11.1693 24 10.0771 23.8478 9.01269 23.5433C7.94824 23.2388 6.94401 22.7853 6 22.1827C6.31901 22.2212 6.64453 22.2404 6.97656 22.2404C7.90755 22.2404 8.80761 22.093 9.67675 21.7981C10.5459 21.5032 11.345 21.0737 12.0742 20.5096C11.638 20.5032 11.2181 20.4311 10.8144 20.2933C10.4108 20.1555 10.0413 19.9631 9.70605 19.7163C9.37076 19.4696 9.07779 19.1763 8.82714 18.8365C8.57649 18.4968 8.3828 18.1218 8.24609 17.7115C8.37629 17.7308 8.50487 17.7468 8.63183 17.7596C8.75878 17.7724 8.88736 17.7788 9.01757 17.7788C9.38215 17.7788 9.74022 17.7308 10.0918 17.6346C9.61002 17.5385 9.16894 17.3686 8.76855 17.125C8.36816 16.8814 8.02148 16.5849 7.72851 16.2356C7.43554 15.8862 7.20768 15.492 7.04492 15.0529C6.88216 14.6138 6.80078 14.1538 6.80078 13.6731V13.625C7.37369 13.9455 7.99544 14.1154 8.66601 14.1346C8.37955 13.9423 8.12402 13.7228 7.89941 13.476C7.6748 13.2292 7.48437 12.9615 7.32812 12.6731C7.17187 12.3846 7.05143 12.0801 6.96679 11.7596C6.88216 11.4391 6.83984 11.109 6.83984 10.7692C6.83984 10.4103 6.88541 10.0593 6.97656 9.71635C7.0677 9.3734 7.20768 9.04808 7.39648 8.74039C7.91731 9.375 8.49674 9.94392 9.13476 10.4471C9.77278 10.9503 10.4515 11.3814 11.1709 11.7404C11.8903 12.0994 12.6439 12.383 13.4316 12.5913C14.2194 12.7997 15.0267 12.9231 15.8535 12.9615C15.8144 12.8141 15.7868 12.6619 15.7705 12.5048C15.7542 12.3478 15.7461 12.1923 15.7461 12.0385C15.7461 11.4808 15.8535 10.9567 16.0683 10.4663C16.2832 9.97596 16.5762 9.54808 16.9473 9.18269C17.3183 8.81731 17.7529 8.52885 18.251 8.31731C18.749 8.10577 19.2812 8 19.8476 8C20.4206 8 20.9658 8.11058 21.4834 8.33173C22.001 8.55288 22.4551 8.86859 22.8457 9.27885C23.3079 9.1891 23.7555 9.0625 24.1885 8.89904C24.6214 8.73558 25.0397 8.53526 25.4433 8.29808C25.2936 8.76603 25.0641 9.19231 24.7549 9.57692C24.4456 9.96154 24.0762 10.2788 23.6465 10.5288C24.4668 10.4327 25.2513 10.2212 26 9.89423L26 9.89423Z" fill="#111111"></path></svg>